<svg width="83" height="492" viewBox="0 0 83 492" fill="none" xmlns="http://www.w3.org/2000/svg">
<g clip-path="url(#clip0_54832_634)">
<path d="M59.0143 0H23.8777C10.6795 0 0 11.7752 0 26.2957V465.692C0 480.212 10.6795 491.987 23.8652 491.987H59.0017C72.1874 491.987 82.8669 480.212 82.8669 465.692V26.2957C82.8669 11.7752 72.1874 0 59.0017 0H59.0143ZM62.5406 75.9655C64.8326 74.0764 66.0416 71.3436 66.9358 68.2329C67.301 66.9232 69.2027 67.0743 69.379 68.4218C69.7316 72.0992 70.8776 76.6959 69.2152 80.1718C68.1196 82.7283 64.4674 82.6906 63.3969 80.1214C63.0821 78.6354 61.3442 77.2375 62.5406 75.9781V75.9655ZM34.6832 192.319L20.8427 164.638C19.004 160.961 21.6738 156.628 25.792 156.628C26.9254 156.628 27.8448 155.709 27.8448 154.576V147.662C28.1974 130.496 54.1405 130.484 54.4931 147.662V154.576C54.4931 155.709 55.4125 156.628 56.5459 156.628C60.6641 156.628 63.334 160.961 61.4953 164.638C60.7145 167.018 45.6523 194.284 46.7228 196.274V204.737C46.6095 212.016 35.7285 212.066 35.6025 204.737C35.4388 201.777 36.207 194.926 34.6706 192.319H34.6832ZM60.7774 133.582C57.7549 129.401 57.8683 123.582 58.2713 123.091C58.2713 123.091 56.42 127.008 52.9693 126.101C51.4707 125.421 49.7831 124.905 47.8814 124.552C48.1081 122.789 47.5036 120.547 49.4934 119.59C53.5486 117.424 57.8431 114.301 59.0773 110.435C59.2284 109.943 59.5432 109.553 59.9085 109.238L59.8833 109.213C62.2635 107.072 62.5406 105.876 63.4095 103.785C64.48 101.229 68.1448 101.203 69.2404 103.76C69.8323 105.158 70.2227 106.77 70.122 108.546C69.4167 118.18 67.8551 129.665 64.5304 139.778C64.2407 140.66 62.9687 140.521 62.8302 139.602C62.4902 137.297 61.7094 135.37 60.7774 133.594V133.582ZM20.6915 59.7699C22.3161 46.7984 27.9203 31.9503 34.192 19.8226C37.1264 14.1428 45.2242 14.1428 48.1585 19.8226C54.4302 31.9503 60.047 46.7984 61.659 59.7699C62.125 63.4599 60.1729 71.5073 57.629 71.5073C54.9087 71.2051 52.5915 68.4596 50.6269 66.0164C48.2341 63.1073 50.3372 60.1226 52.4907 57.9564C53.6368 56.2563 57.226 45.0227 49.2542 48.8889C48.1585 49.4179 46.9117 48.423 47.2643 47.2517C48.0829 44.4307 48.9519 40.5897 46.6347 38.1465C44.7204 36.0055 43.4484 33.2601 42.6172 30.8043C42.1513 29.4316 40.2118 29.4316 39.7459 30.8043C38.9147 33.2601 37.6553 36.0055 35.7285 38.1465C33.4112 40.5897 34.2802 44.4307 35.0988 47.2517C35.4514 48.423 34.2046 49.4179 33.109 48.8889C24.5452 44.8086 28.8397 58.1831 31.3207 59.6188C35.7537 63.8881 28.6886 70.7391 24.7215 71.5073C22.1776 71.5073 20.2382 63.4599 20.6915 59.7699ZM22.1398 89.3652L25.792 87.6399C26.3209 87.388 26.4847 86.7206 26.132 86.2546C24.6334 83.9247 28.1848 81.6705 30.225 82.9172L33.7135 84.6678L31.9629 81.1793C30.7287 79.1517 32.983 75.5877 35.3003 77.0863C35.7662 77.439 36.4337 77.2752 36.673 76.7463L38.3983 73.0941C39.3932 70.7895 42.9447 70.7895 43.9396 73.0941L45.6649 76.7463C45.9168 77.2752 46.5843 77.439 47.0502 77.0863C49.3801 75.5877 51.6344 79.1391 50.3876 81.1793L48.6371 84.6678L52.1255 82.9172C54.1531 81.6831 57.7171 83.9373 56.2185 86.2546C55.8659 86.7206 56.0296 87.388 56.5585 87.6399L60.2107 89.3652C62.5154 90.3727 62.5154 93.9116 60.2107 94.9065L56.5585 96.6318C56.0296 96.8837 55.8659 97.5512 56.2185 98.0172C57.7171 100.347 54.1657 102.601 52.1255 101.354L48.6371 99.604L50.3876 103.092C51.6218 105.12 49.3675 108.684 47.0502 107.185C46.5843 106.833 45.9168 106.996 45.6649 107.525L43.9396 111.178C42.9447 113.482 39.3932 113.482 38.3983 111.178L36.673 107.525C36.4211 106.996 35.7537 106.833 35.2877 107.185C32.9578 108.684 30.7036 105.133 31.9503 103.092L33.7009 99.604L30.2124 101.354C28.1848 102.589 24.6208 100.334 26.1194 98.0172C26.4721 97.5512 26.3083 96.8837 25.7794 96.6444L22.1272 94.9191C19.8226 93.9242 19.8226 90.3727 22.1272 89.3778L22.1398 89.3652ZM12.9842 68.4092C13.1605 67.0617 15.0621 66.9106 15.4273 68.2203C16.1326 70.7643 17.2031 73.1949 18.7017 74.8824C21.3338 76.9478 19.8855 77.4516 18.9662 80.0962C17.8957 82.6654 14.2435 82.7157 13.1479 80.1466C11.4981 76.6707 12.6315 72.0866 12.9842 68.3967V68.4092ZM13.1353 103.747C14.2183 101.191 17.8957 101.216 18.9662 103.772C19.8352 105.863 20.1122 107.059 22.4924 109.2L22.4672 109.226C22.8325 109.54 23.1347 109.931 23.2984 110.422C24.5326 114.288 28.8397 117.399 32.8823 119.578C34.8721 120.535 34.2676 122.764 34.4943 124.54C32.5926 124.88 30.9051 125.409 29.4064 126.089C25.9557 126.995 24.1044 123.079 24.1044 123.079C24.1044 123.079 25.1623 127.109 22.5176 131.97C21.0819 134.338 19.9989 136.592 19.5455 139.589C16.4978 146.289 10.3143 104.453 13.1353 103.747ZM19.8226 409.045C17.5305 410.934 16.3215 413.667 15.4273 416.79C15.0621 418.1 13.1605 417.949 12.9842 416.601C12.6945 414.385 12.4174 411.992 12.2537 409.662C11.9011 402.559 17.6816 399.852 20.0996 407.471C20.3893 408 20.3011 408.667 19.8226 409.045ZM47.6673 292.691L61.5079 320.372C63.3466 324.05 60.6767 328.382 56.5585 328.382C55.4251 328.382 54.5057 329.301 54.5057 330.435V337.349C54.1531 354.514 28.21 354.527 27.8574 337.349V330.435C27.8574 329.301 26.938 328.382 25.8046 328.382C21.6864 328.382 19.0166 324.05 20.8552 320.372C21.6361 317.98 36.6982 290.727 35.6277 288.737V280.274C35.7411 272.995 46.6221 272.944 46.748 280.274C46.9117 283.233 46.1309 290.084 47.6799 292.691H47.6673ZM21.5857 351.416C24.6082 355.597 24.4822 361.415 24.0918 361.907C24.0918 361.907 25.9431 357.99 29.3938 358.897C30.8925 359.577 32.58 360.093 34.4817 360.446C34.255 362.209 34.8595 364.45 32.8697 365.408C28.8145 367.574 24.52 370.697 23.2858 374.563C23.1347 375.054 22.8199 375.445 22.4547 375.76L22.4798 375.785C20.0996 377.926 19.8226 379.122 18.9536 381.213C17.8831 383.769 14.2183 383.794 13.1227 381.238C12.5308 379.84 12.1404 378.228 12.2411 376.452C12.9464 366.818 14.508 355.333 17.8327 345.22C18.1224 344.338 19.3944 344.477 19.5329 345.396C19.8729 347.701 20.6537 349.628 21.5857 351.403V351.416ZM61.659 425.241C60.0344 438.212 54.4302 453.06 48.1585 465.188C45.2242 470.868 37.1264 470.868 34.192 465.188C27.9203 453.06 22.3035 438.212 20.6915 425.241C20.2256 421.551 22.1776 413.503 24.7215 413.503C27.4418 413.805 29.759 416.551 31.7237 418.994C34.1165 421.903 32.0133 424.888 29.8598 427.054C28.7137 428.754 25.1245 439.988 33.0964 436.121C34.192 435.593 35.4388 436.587 35.0862 437.759C34.2676 440.58 33.386 444.421 35.7159 446.864C37.6301 449.005 38.9021 451.75 39.7333 454.206C40.1992 455.579 42.1387 455.579 42.6047 454.206C43.4358 451.75 44.6952 449.005 46.6221 446.864C48.9393 444.421 48.0703 440.58 47.2517 437.759C46.8991 436.587 48.1459 435.593 49.2416 436.121C57.8053 440.202 53.5108 426.827 51.0299 425.392C46.5969 421.122 53.662 414.271 57.629 413.503C60.1729 413.503 62.1124 421.551 61.659 425.241ZM60.2233 395.633L56.5711 397.358C56.0422 397.61 55.8785 398.277 56.2311 398.743C57.7297 401.073 54.1783 403.327 52.1381 402.081L48.6497 400.33L50.4002 403.819C51.6344 405.846 49.3801 409.41 47.0628 407.911C46.5969 407.559 45.9294 407.723 45.6775 408.252L43.9522 411.904C42.9573 414.208 39.4058 414.208 38.4109 411.904L36.6856 408.252C36.4337 407.723 35.7662 407.559 35.3003 407.911C32.9704 409.41 30.7162 405.859 31.9629 403.819L33.7135 400.33L30.225 402.081C28.1974 403.315 24.6334 401.061 26.132 398.743C26.4847 398.277 26.3209 397.61 25.792 397.358L22.1398 395.633C19.8352 394.638 19.8352 391.086 22.1398 390.091L25.792 388.366C26.3209 388.114 26.4847 387.447 26.132 386.981C24.6334 384.651 28.1848 382.397 30.225 383.643L33.7135 385.394L31.9629 381.905C30.7287 379.878 32.983 376.314 35.3003 377.812C35.7662 378.165 36.4337 378.001 36.6856 377.472L38.4109 373.82C39.4058 371.516 42.9573 371.516 43.9522 373.82L45.6775 377.472C45.9294 378.001 46.5969 378.165 47.0628 377.812C49.3927 376.314 51.647 379.865 50.4002 381.905L48.6497 385.394L52.1381 383.643C54.1657 382.409 57.7297 384.663 56.2311 386.981C55.8785 387.447 56.0422 388.114 56.5711 388.353L60.2233 390.079C62.528 391.074 62.528 394.625 60.2233 395.62V395.633ZM69.379 416.589C69.2027 417.936 67.301 418.087 66.9358 416.778C66.2305 414.234 65.1601 411.803 63.6614 410.115C61.0293 408.05 62.4776 407.546 63.3969 404.902C64.4674 402.332 68.1196 402.282 69.2152 404.851C70.865 408.327 69.7316 412.911 69.379 416.601V416.589ZM69.2278 381.251C68.1448 383.807 64.4674 383.782 63.3969 381.225C62.528 379.135 62.2509 377.938 59.8707 375.797L59.8959 375.772C59.5307 375.457 59.2284 375.067 59.0647 374.576C57.8305 370.71 53.5234 367.599 49.4808 365.42C47.491 364.463 48.0955 362.234 47.8688 360.458C49.7705 360.118 51.4581 359.589 52.9567 358.909C56.4074 358.002 58.2587 361.919 58.2587 361.919C58.2587 361.919 57.2008 357.889 59.8455 353.028C61.2812 350.66 62.3642 348.406 62.8176 345.409C65.8653 338.709 72.0488 380.545 69.2278 381.251ZM72.7793 273.939C71.1547 275.564 66.6965 273.939 61.5708 270.186C60.3492 269.292 58.6365 269.418 57.5912 270.514C56.4452 271.698 54.5183 271.635 53.3597 270.463C52.2515 269.468 51.2817 268.222 50.9795 266.723C50.3624 264.066 48.4733 261.408 45.6272 260.073C42.6802 260.817 39.5947 260.817 36.6604 260.048C33.789 261.383 31.8622 264.104 31.2577 266.811C30.7413 269.607 27.3158 273.045 24.6837 270.4C23.6762 269.342 21.9761 269.317 20.8049 270.174C9.53347 278.586 4.93675 274.002 13.3494 262.718C14.2309 261.509 14.1302 259.834 13.0723 258.776C10.5284 256.119 13.9539 252.782 16.7119 252.265C19.5203 251.661 22.3413 249.545 23.6259 246.548C23.034 243.865 23.0592 241.07 23.7014 238.387C22.4421 235.365 19.6337 233.173 16.8001 232.531C14.042 232.015 10.8432 228.665 13.4249 226.121C14.4828 225.113 14.508 223.413 13.6516 222.242C9.91128 217.116 8.27409 212.671 9.89869 211.046C11.5233 209.421 15.9689 211.046 21.0945 214.799C22.3035 215.681 23.9785 215.58 25.0364 214.522C27.5803 212.066 30.7917 215.126 31.2199 217.884C31.8244 220.857 34.1794 223.866 37.3531 225.063C39.8466 224.521 42.4409 224.521 44.9345 225.05C48.0703 223.841 50.375 220.907 50.9921 217.985C51.2817 216.638 52.0122 215.441 53.0323 214.522C54.2161 213.338 56.1303 213.338 57.3141 214.522C58.372 215.58 60.047 215.693 61.256 214.799C66.3816 211.059 70.8272 209.421 72.4518 211.046C74.0764 212.671 72.4518 217.129 68.6989 222.254C67.8047 223.476 67.9307 225.189 69.0263 226.234C70.2102 227.368 70.1472 229.307 68.976 230.466C68.0566 231.486 66.8728 232.229 65.5127 232.518C62.7043 233.135 59.8833 235.239 58.5987 238.236C59.304 241.019 59.3292 243.928 58.6743 246.712C59.9966 249.671 62.805 251.699 65.6008 252.291C68.3841 252.782 71.8222 256.119 69.2656 258.776C68.2077 259.834 68.0944 261.509 68.9886 262.718C72.7289 267.844 74.3661 272.289 72.7415 273.914L72.7793 273.939Z" fill="#332932"/>
</g>
<defs>
<clipPath id="clip0_54832_634">
<rect width="82.8795" height="492" fill="white"/>
</clipPath>
</defs>
</svg>
