<svg width="62" height="420" viewBox="0 0 62 420" fill="none" xmlns="http://www.w3.org/2000/svg">
<g clip-path="url(#clip0_54715_983)">
<path d="M57.2515 374.595C57.1574 373.68 56.7 372.832 55.9736 372.253L54.7898 371.298C52.9604 369.832 53.0949 367.006 55.0454 365.714C56.2561 364.907 56.8345 363.44 56.4982 362.028C55.1934 356.444 52.5837 341.482 57.1036 324.596C57.1036 315.285 52.5568 313.186 49.7723 312.782C48.5885 312.607 47.7141 311.612 47.62 310.428C47.4316 307.898 46.7456 306.297 46.073 305.288C45.508 304.453 45.5215 303.364 46.073 302.516C46.4496 301.937 46.8397 301.278 47.1088 300.726C48.3867 298.103 49.5705 294.295 49.0055 289.801C48.6154 286.679 47.5123 284.15 46.3555 282.266C45.8308 281.392 45.8847 280.288 46.49 279.467C48.0504 277.368 50.418 273.399 50.3372 268.609C50.2834 265.407 49.14 262.393 46.9474 259.621C46.2344 258.72 46.1941 257.482 46.8532 256.54C48.3867 254.347 50.418 250.606 50.3372 246.18C50.2834 242.91 49.0997 239.856 46.8128 237.03C46.073 236.115 46.0057 234.837 46.6918 233.895C48.2387 231.729 50.4045 227.894 50.3372 223.32C50.2834 220.117 49.14 217.103 46.9474 214.332C46.2344 213.43 46.1941 212.192 46.8532 211.25C48.3867 209.057 50.418 205.317 50.3372 200.89C50.2834 197.62 49.0997 194.566 46.8128 191.741C46.073 190.826 46.0057 189.547 46.6918 188.606C48.2387 186.439 50.4045 182.605 50.3372 178.03C50.2834 174.774 49.0997 171.706 46.8263 168.88C46.0864 167.965 46.0192 166.687 46.7052 165.745C48.2522 163.579 50.418 159.744 50.3507 155.17C50.2969 151.9 49.1131 148.846 46.8263 146.02C46.0864 145.105 46.0192 143.827 46.7052 142.885C48.2522 140.719 50.418 136.884 50.3507 132.31C50.2969 129.107 49.1535 126.093 46.9608 123.322C46.2479 122.42 46.2075 121.182 46.8666 120.24C48.4002 118.047 50.4314 114.307 50.3507 109.88C50.2969 106.61 49.1131 103.556 46.8263 100.731C46.0864 99.8157 46.0192 98.5374 46.7052 97.5956C48.2522 95.4293 50.418 91.5946 50.3507 87.0199C50.2969 83.8176 49.1535 80.8037 46.9608 78.0319C46.2479 77.1304 46.2075 75.8926 46.8666 74.9507C48.4002 72.7575 50.4314 69.017 50.3507 64.5903C50.3103 61.7917 49.4091 59.141 47.7276 56.6519C47.6738 54.0281 46.2748 52.5077 44.1763 51.7542C42.3199 51.0815 40.7864 49.6014 40.1541 47.7177C39.1587 44.771 40.3425 41.7706 42.7504 40.1291C45.2255 38.4472 47.0012 36.0656 47.4989 32.9844C47.62 32.2309 47.9832 31.4775 48.6558 31.1007C50.0144 30.3338 49.7723 27.858 47.7814 27.8177H46.759C46.49 27.8177 46.1268 27.6428 45.925 27.4544C45.5349 27.0507 45.0641 26.674 44.5395 26.3242C43.8938 25.8936 43.8803 24.9787 44.4857 24.4943C45.5753 23.6063 46.342 22.3684 46.5303 20.6327C46.638 19.5966 46.194 19.1392 45.4004 19.0719C44.6067 19.0046 44.2435 18.1166 44.5664 17.4169C45.0372 16.3943 45.3869 15.2372 45.5484 13.959C46.4093 7.3391 40.3559 14.3223 35.9571 20.081C35.2845 20.9556 33.8452 20.4309 33.9393 19.3275C33.9393 19.193 33.9662 19.0584 33.9931 18.9239C34.2487 17.1747 35.1904 15.7754 36.3607 15.143V15.0758C37.679 14.107 38.6341 12.6538 38.8358 10.7029C38.8762 10.3665 39.0376 10.057 39.2932 9.89556C39.9523 9.50536 39.8582 8.09258 38.93 8.06567H38.8762C38.4861 8.06567 38.1229 7.89075 37.8538 7.6082C37.7866 7.54092 37.7059 7.46019 37.6252 7.39292C37.3561 7.16418 37.2351 6.82781 37.2754 6.47797C37.2754 6.4107 37.2754 6.34342 37.2754 6.2896C37.2754 5.44194 36.6835 4.72882 35.8899 4.54045C35.5939 4.47317 35.3787 4.23098 35.3114 3.93497C34.1949 -1.25868 29.2581 -1.25868 28.1684 3.96188C28.1146 4.24444 27.8994 4.47317 27.6169 4.54045C26.8098 4.71536 26.2045 5.42848 26.2045 6.2896C26.2045 6.34342 26.2045 6.39724 26.2045 6.45106C26.2314 6.74708 26.1238 7.02963 25.8816 7.218C25.7202 7.35255 25.5588 7.4871 25.4242 7.63511C25.1552 7.91766 24.7651 8.07913 24.375 8.07913C23.4468 8.10604 23.3527 9.51882 24.0118 9.90901C24.2674 10.057 24.4288 10.3665 24.4692 10.7163C24.7113 13.0037 25.9892 14.6183 27.6842 15.5601L27.8994 15.7081C28.7065 16.4482 29.3119 17.6053 29.5136 18.9508C29.554 19.2064 29.5809 19.4756 29.5809 19.7312C29.6078 20.7941 28.2088 21.2247 27.5631 20.3905C23.1509 14.5779 16.8688 7.25837 17.7566 13.9859C17.9181 15.2641 18.2678 16.4078 18.7386 17.4304C19.0615 18.13 18.6714 19.0315 17.9046 19.0988C17.1379 19.1661 16.667 19.637 16.7881 20.6596C16.9764 22.4222 17.7701 23.687 18.8866 24.575C19.4919 25.0594 19.5323 25.9878 18.8866 26.4184C18.3889 26.7547 17.9584 27.1046 17.5818 27.4948C17.3934 27.6966 17.0302 27.858 16.7612 27.858H15.7389C13.748 27.9119 13.5058 30.3876 14.8645 31.1411C15.5371 31.5178 15.8868 32.2713 16.0213 33.0382C16.5325 36.0791 18.2678 38.4337 20.6892 40.1156C22.1016 41.0978 23.1912 42.5106 23.5679 44.1925C24.2943 47.5293 22.411 50.7047 19.3843 51.7811C17.4472 52.4673 16.1021 53.8128 15.8465 56.0464C15.5236 56.4097 15.2546 56.746 15.0124 57.042C11.5553 61.3746 11.5284 66.4068 11.6764 68.3577C11.9992 72.7172 13.9497 75.9598 15.6985 78.0319C16.4922 78.9738 16.4653 80.3462 15.6985 81.3015C15.6312 81.3957 15.5505 81.4764 15.4833 81.5706C12.5776 85.1497 11.3266 88.8767 11.7705 92.6441C12.1741 96.1021 13.9363 98.8603 15.4564 100.677C16.2635 101.632 16.2769 103.004 15.4967 103.973H15.4833C12.5776 107.579 11.3266 111.293 11.7705 115.06C12.1875 118.639 14.0574 121.478 15.6178 123.295C16.4384 124.25 16.4653 125.649 15.6716 126.632C15.6043 126.712 15.5505 126.78 15.4833 126.86C12.5776 130.439 11.3266 134.166 11.7705 137.934C12.1741 141.392 13.9363 144.15 15.4564 145.966C16.2635 146.922 16.2769 148.294 15.4967 149.263H15.4833C12.5776 152.869 11.3266 156.582 11.7705 160.35C12.1875 163.929 14.0574 166.768 15.6178 168.584C16.4384 169.54 16.4653 170.939 15.6716 171.921C15.6043 172.002 15.5505 172.069 15.4833 172.15C12.5776 175.729 11.3266 179.456 11.7705 183.223C12.1875 186.803 14.0574 189.642 15.6178 191.445C16.4384 192.4 16.4653 193.799 15.6716 194.781C15.6043 194.862 15.5505 194.929 15.4833 195.01C12.5776 198.589 11.3266 202.316 11.7705 206.084C12.1875 209.663 14.0574 212.502 15.6178 214.318C16.4384 215.273 16.4653 216.673 15.6716 217.655C15.6043 217.736 15.5505 217.803 15.4833 217.884C12.5776 221.463 11.3266 225.19 11.7705 228.957C12.1741 232.415 13.9363 235.173 15.4564 236.99C16.2635 237.945 16.2769 239.318 15.4967 240.286H15.4833C12.5776 243.892 11.3266 247.606 11.7705 251.373C12.1875 254.952 14.0574 257.791 15.6178 259.608C16.4384 260.563 16.4653 261.962 15.6716 262.945C15.6043 263.025 15.5505 263.093 15.4833 263.173C12.5776 266.752 11.3266 270.479 11.7705 274.247C12.1741 277.705 13.9363 280.463 15.4564 282.28C16.2635 283.235 16.2769 284.607 15.4967 285.576H15.4833C12.5776 289.182 11.3266 292.896 11.7705 296.663C12.0665 299.166 13.0754 301.318 14.1784 303C14.6761 303.754 14.7434 304.736 14.3399 305.557C13.7345 306.768 13.1426 308.382 13.035 310.333C13.035 310.454 13.035 310.576 13.0216 310.697C12.9947 311.8 12.2683 312.769 11.2055 313.065C8.46135 313.845 4.93694 316.442 4.93694 324.65C9.4568 341.536 6.84712 356.511 5.54228 362.081C5.20598 363.494 5.78441 364.961 6.99509 365.768C8.94562 367.06 9.08014 369.885 7.25068 371.352L6.06691 372.307C5.3405 372.886 4.88313 373.72 4.78897 374.648L0.0404358 420.046H62.0404L57.2919 374.648L57.2515 374.595Z" fill="#251929"/>
</g>
<defs>
<clipPath id="clip0_54715_983">
<rect width="62" height="420" fill="white"/>
</clipPath>
</defs>
</svg>
