<svg width="97" height="97" viewBox="0 0 97 97" fill="none" xmlns="http://www.w3.org/2000/svg">
<g clip-path="url(#clip0_54832_630)">
<path d="M8.36 0.740112C7.78 2.46011 6.9 4.37012 5.58 5.89011C4.71 6.89011 4.27 8.20012 4.42 9.51012C4.54 10.5901 4.75 11.6001 5.03 12.5201C5.28 13.3601 4.43 14.1001 3.64 13.7101C-2.12 10.8801 0.449997 18.9601 1.28 20.1801C2.2 21.5501 3.27 22.3801 4.33 22.9801C4.67 23.1901 4.75 23.4001 4.72 23.6801C4.69 23.9601 4.39 24.1501 4.13 24.2601C3.64 24.4801 3.3 24.9701 3.3 25.5501C3.3 25.8201 3.37 26.0601 3.5 26.2801C8.32 47.1501 9.17 70.2801 9.29 80.9201C9.29 82.9101 9.29 84.9001 9.29 86.8901C11.28 86.8901 13.27 86.8901 15.26 86.8901C25.91 87.0101 49.04 87.8601 69.9 92.6801C70.11 92.8101 70.36 92.8801 70.63 92.8801C71.2 92.8801 71.7 92.5401 71.92 92.0501C72.04 91.7901 72.22 91.5001 72.49 91.4601C72.77 91.4301 72.98 91.5101 73.18 91.8501C73.78 92.9101 74.61 93.9801 75.98 94.9001C77.2 95.7201 85.28 98.3001 82.45 92.5401C82.06 91.7501 82.8 90.9001 83.64 91.1501C84.56 91.4301 85.57 91.6301 86.65 91.7601C87.97 91.9101 89.27 91.4701 90.27 90.6001C91.79 89.2801 93.7 88.4001 95.42 87.8201C96.41 87.4901 96.41 86.1001 95.42 85.7601C93.7 85.1801 91.79 84.3001 90.27 82.9801C89.27 82.1101 87.96 81.6701 86.65 81.8201C85.57 81.9401 84.56 82.1501 83.64 82.4301C82.8 82.6801 82.06 81.8301 82.45 81.0401C84.31 77.2501 81.46 77.0701 78.94 77.6201C77.73 77.8101 75.53 78.4301 71.78 75.8601C69.35 74.0701 66.91 72.2801 64.48 70.4901C63.51 70.1301 62.46 70.7601 62.32 71.7801C62.14 73.0601 61.1 74.1001 59.86 74.4301C56.98 75.2001 53.99 73.5701 53.08 70.7101L52.55 69.0401C52.05 67.4801 49.85 67.4501 49.32 69.0001L48.75 70.6601C47.74 73.5701 44.58 75.1201 41.66 74.1401C40.47 73.7401 39.62 72.6901 39.47 71.4401C39.35 70.4401 38.31 69.8201 37.35 70.1501L30.62 72.4501C28.66 73.1201 26.49 72.6001 25.04 71.1301C23.57 69.6701 23.05 67.5101 23.72 65.5501L26.02 58.8201C26.35 57.8601 25.73 56.8201 24.73 56.7001C23.48 56.5501 22.43 55.7001 22.03 54.5101C21.05 51.5901 22.6 48.4301 25.51 47.4201L27.17 46.8501C28.72 46.3101 28.69 44.1101 27.13 43.6201L25.46 43.0901C22.6 42.1801 20.97 39.1801 21.74 36.3101C22.07 35.0701 23.12 34.0201 24.39 33.8501C25.41 33.7101 26.04 32.6601 25.68 31.6901C23.89 29.2601 22.1 26.8201 20.31 24.3901C17.74 20.6401 18.36 18.4401 18.56 17.2301C19.11 14.7101 18.93 11.8601 15.14 13.7201C14.35 14.1101 13.5 13.3701 13.75 12.5301C14.03 11.6101 14.23 10.6001 14.36 9.52011C14.51 8.20011 14.07 6.90012 13.2 5.90012C11.88 4.38012 11 2.47012 10.42 0.750114C10.09 -0.239883 8.7 -0.239883 8.36 0.750114V0.740112ZM16.63 61.4001C17.36 61.5901 17.84 62.3001 17.72 63.0501C17.43 64.8601 17.28 68.1801 19.51 70.3601C20.61 71.4301 20.49 73.2501 19.85 75.2001C19.73 75.5601 19.84 75.8901 20.03 76.1501C20.29 76.3401 20.62 76.4401 20.98 76.3301C22.93 75.6901 24.76 75.5701 25.82 76.6701C27.99 78.9101 31.32 78.7601 33.13 78.4601C33.87 78.3401 34.59 78.8201 34.78 79.5501C34.95 80.2101 34.65 80.9101 34.04 81.2301L32.4 82.1101C31.43 82.6301 30.34 82.9001 29.24 82.9001H15.54C14.93 82.9001 14.36 82.6701 13.91 82.2801C13.51 81.8301 13.29 81.2501 13.29 80.6501V66.9501C13.29 65.8501 13.56 64.7601 14.08 63.7901L14.96 62.1501C15.28 61.5401 15.98 61.2401 16.64 61.4101L16.63 61.4001Z" fill="#332932"/>
</g>
<defs>
<clipPath id="clip0_54832_630">
<rect width="96.18" height="96.18" fill="white" transform="matrix(-1 0 0 -1 96.18 96.18)"/>
</clipPath>
</defs>
</svg>
