<svg width="201" height="239" viewBox="0 0 201 239" fill="none" xmlns="http://www.w3.org/2000/svg">
<g clip-path="url(#clip0_54715_897)">
<path d="M121.61 151.33C121.61 151.33 37.75 152.81 35.39 218.88H29.55C26.58 218.88 24.37 216.15 25 213.25C29.12 194.07 28.86 155.87 42.24 130.41C49.69 116.24 57.84 104.09 65.98 93.42L66.49 92.91C66.93 92.47 67.27 91.96 67.53 91.4C71.32 86.54 75.15 82.02 79 77.81C86.14 73.49 93.97 71.09 99.14 58.71C99.68 58.27 100.21 57.85 100.75 57.42C101.76 57.16 102.71 56.68 103.45 55.94L103.92 55.47C104.22 55.17 104.43 54.83 104.57 54.46C133.27 32.97 161.77 26.08 184.94 25.14V32.51C121.47 39.99 121.61 151.31 121.61 151.31V151.33ZM113.43 142.95C113.97 136.26 112.01 133.83 108.69 134.22C107.16 134.84 105.48 135.19 103.73 135.19C103.73 136.4 103.55 137.56 103.25 138.67H103.27C102.57 143.26 109.47 144.35 113.43 142.96V142.95ZM69.61 132.74C65.38 130.01 60.25 132.09 59.38 136.96C58.51 141.83 61.29 150.26 55.12 158.34C55.12 158.34 64.57 157.88 75.65 153.26L75.63 153.28C75.63 153.28 75.65 153.28 75.66 153.27C78.72 151.56 82.76 148.31 79.86 143.06H79.88C78.24 140.86 77.26 138.14 77.26 135.18C74.41 135.18 71.78 134.27 69.62 132.74H69.61ZM80.68 112.13C75.26 112.13 70.87 116.52 70.87 121.94C70.87 127.36 75.26 131.75 80.68 131.75C80.68 137.17 85.07 141.56 90.49 141.56C95.91 141.56 100.3 137.17 100.3 131.75C105.72 131.75 110.11 127.36 110.11 121.94C110.11 116.52 105.72 112.13 100.3 112.13C100.3 106.71 95.91 102.32 90.49 102.32C85.07 102.32 80.68 106.71 80.68 112.13ZM112.46 73.61C112.53 70.05 111.29 69.3 108.55 73.38C105.81 77.46 101.64 82.48 97.85 84C93.63 85.69 90.38 90.57 92.21 94.4C92.75 95.09 93.44 95.77 94.26 96.42C98.34 99.01 104.7 94.64 104.7 94.64C104.7 94.64 106.4 106.08 112.06 106.39C112.12 106.39 112.17 106.39 112.23 106.39C112.36 106.39 112.49 106.39 112.62 106.39C117.17 106.13 118.97 102 119.56 100.04C119.65 99.66 119.74 99.28 119.83 98.91C121.31 90.95 112.34 86.31 112.46 73.61ZM120.75 62.56C117.44 66.08 116.23 70.99 117.28 75.7C117.36 76.06 117.45 76.43 117.55 76.78C119.99 83.53 124.46 81.87 126.01 78.47C130.46 66.63 135.99 56.68 142.5 48.71C133.94 52.42 125.56 57.44 120.75 62.56ZM146.01 36.11C141.96 37.04 142.11 40.05 144.65 41.5C146.02 42.28 148.73 40.2 150.06 39.35C153.03 37.46 157.69 34.79 159.33 33.8L146.01 36.12V36.11Z" fill="#332932"/>
<path d="M200.22 0V14.34C200.22 23.7 193.21 31.52 183.92 32.69C100.58 43.16 35.47 132.37 35.47 217.86C34.37 238.65 16.35 239.22 0 238.33V0H200.22ZM45.73 12.91C45.73 16.41 48.57 19.25 52.07 19.25C52.07 22.75 54.91 25.59 58.41 25.59C61.91 25.59 64.75 22.75 64.75 19.25C68.25 19.25 71.09 16.41 71.09 12.91H45.74H45.73ZM168.98 19.92C169.59 19.92 170.09 20.42 170.09 21.03C170.09 23.25 172.42 24.69 174.41 23.7L185.25 16.24H185.27C187.03 15.38 186.42 12.74 184.47 12.74H162.42C160.07 12.74 158.52 15.38 159.84 17.32C159.92 17.43 159.99 17.53 160.07 17.62C161.35 19.03 163.19 19.92 165.25 19.92H168.98ZM135.8 16.34C138.41 16.91 140.48 17.94 140.47 19.75C140.44 27.03 143.7 30.19 144.26 30.67C145.19 31.75 146.67 32.15 148.03 31.72C153.14 30.07 158.15 28.78 163.03 27.79L163.11 27.77C163.92 27.6 164.6 26.93 164.62 26.1C164.69 23.33 157.76 24.5 154.06 20.77C152.93 19.61 152.19 18.49 151.74 17.21C150.81 14.58 148.45 12.72 145.66 12.72H134.42C133.53 13.95 134.05 15.94 135.81 16.32L135.8 16.34ZM110.23 30.67L114.87 33.1C115.54 33.45 115.75 34.39 115.3 35.04C114.76 35.83 114.67 36.9 115.08 37.78C116.09 39.97 118.51 40.84 120.5 39.74L130.22 34.36C132.82 32.92 134.46 29.99 134.46 26.78C134.46 23.57 132.82 20.64 130.22 19.2L120.5 13.82C118.51 12.72 116.09 13.59 115.08 15.78C114.67 16.66 114.75 17.73 115.3 18.52C115.74 19.17 115.54 20.11 114.87 20.46L110.23 22.89C108.87 23.6 108 25.12 108 26.79C108 28.46 108.87 29.97 110.23 30.69V30.67ZM91.4 46.38C91.73 45.62 92.35 45.02 93.13 44.75C93.13 44.75 97.12 43.3 98.51 41.66C102.79 37.72 94.79 34.11 97.98 30.04C110.65 13.28 102.82 7.07 86.47 19.9C84.82 21.15 82.69 20.64 81.76 18.79C80.18 15.56 76.95 16.88 75.21 19.21C71.7 23.86 71.97 30.66 65.31 33.37C61.82 34.23 58.02 32.64 54.41 33.66C53.28 33.88 52.18 33.52 51.24 32.9C43.63 30.25 45.08 12.92 35.48 18.8C30.48 23.9 19.48 8.7 13.77 13.83C8.64 19.73 23.91 30.28 18.56 35.73C13.24 45.24 30.19 43.7 32.84 51.3C33.38 52.14 33.51 53.17 33.31 54.14C32 58.13 33.92 62.44 32.82 66.26C29.79 72.36 23.56 71.77 19.15 75.27C16.76 76.99 16.66 79.97 18.3 82.26C21.41 89.35 8.49001 99.26 13.33 103.97C19.25 109.08 29.77 93.84 35.23 99.18C37.12 101.01 39.75 100.36 41.52 98.74C42.04 98.26 42.4 97.62 42.64 96.95C52.51 69.56 78.46 76.64 91.4 46.39V46.38ZM13.43 46.21V71.56C16.93 71.56 19.77 68.72 19.77 65.22C23.27 65.22 26.11 62.38 26.11 58.88C26.11 55.38 23.27 52.54 19.77 52.54C19.77 49.04 16.93 46.2 13.43 46.2V46.21ZM43.81 122.56C46.09 117.63 43.89 111.49 39.08 110.38C35.15 109.47 30.72 110.31 27.6 116.35C27.6 116.35 21.06 106.34 12.71 112.99C2.33 121.27 26.73 182.12 26.73 182.12C26.73 182.12 24.03 165.26 43.82 122.56H43.81ZM12.64 218.18C16.18 221.45 18.32 219.18 21.39 215.34C23.73 212.42 28.59 201.71 17.9 179.58C15.61 175.36 10.49 171.94 11.63 176.86C13.54 183.52 13.59 186.55 11.79 193.12C8.96001 203.43 16.3 203.17 16.3 203.17C16.3 203.17 9.11 203.77 9.42 211.34C9.63 213.96 10.76 216.44 12.64 218.18Z" fill="#251929"/>
</g>
<defs>
<clipPath id="clip0_54715_897">
<rect width="200.22" height="238.57" fill="white" transform="matrix(-1 0 0 1 200.22 0)"/>
</clipPath>
</defs>
</svg>
