<svg width="108" height="667" viewBox="0 0 108 667" fill="none" xmlns="http://www.w3.org/2000/svg">
<g clip-path="url(#clip0_54845_116)">
<path d="M94.0286 0H65.2372V667H90.6508C101.393 667 107.352 660.984 107.352 653.561V13.4389C107.352 6.01632 101.379 0 94.0286 0ZM82.3729 20.209C82.7353 20.209 83.0398 19.9046 83.0398 19.5422V17.2951C83.0398 14.9756 84.9244 13.0909 87.2439 13.0909H87.4904C89.8099 13.0909 91.6946 14.9756 91.6946 17.2951V19.5422C91.6946 19.9046 91.999 20.209 92.3614 20.209C93.6952 20.209 94.565 21.6153 93.9706 22.804L89.4765 31.7923C89.2735 32.1837 89.1721 32.6331 89.1721 33.0825V35.837C89.1721 35.9385 89.1721 36.0544 89.1431 36.1559C88.5777 35.982 87.9833 35.8805 87.3744 35.8805C86.7655 35.8805 86.1712 35.982 85.6058 36.1559C85.5913 36.0544 85.5768 35.953 85.5768 35.837V33.0825C85.5768 32.6331 85.4753 32.1982 85.2723 31.7923L80.7782 22.804C80.1838 21.6153 81.0537 20.209 82.3874 20.209H82.3729ZM92.3759 646.791C92.0135 646.791 91.7091 647.095 91.7091 647.458V649.705C91.7091 652.024 89.8244 653.909 87.5049 653.909H87.2584C84.9389 653.909 83.0543 652.024 83.0543 649.705V647.458C83.0543 647.095 82.7498 646.791 82.3874 646.791C81.0537 646.791 80.1838 645.385 80.7782 644.196L85.2723 635.208C85.4753 634.816 85.5768 634.367 85.5768 633.917V631.163C85.5768 631.062 85.5768 630.946 85.6058 630.844C86.1712 631.018 86.7655 631.12 87.3744 631.12C87.9833 631.12 88.5777 631.018 89.1431 630.844C89.1576 630.946 89.1721 631.047 89.1721 631.163V633.917C89.1721 634.367 89.2735 634.802 89.4765 635.208L93.9706 644.196C94.565 645.385 93.6952 646.791 92.3614 646.791H92.3759ZM95.1304 621.261C94.507 621.58 93.7532 621.508 93.2023 621.087C92.7384 620.74 92.086 620.899 91.8395 621.421L90.1289 625.031C89.6215 626.089 88.5632 626.77 87.3889 626.77C86.2146 626.77 85.1419 626.089 84.6489 625.031L82.9383 621.421C82.6918 620.899 82.025 620.74 81.5756 621.087C81.0247 621.508 80.2708 621.58 79.6474 621.261C78.1107 620.479 77.4874 618.594 78.2702 617.043L82.0685 609.475C83.0833 607.46 85.1563 606.184 87.4179 606.184C89.6795 606.184 91.7526 607.46 92.7674 609.475L96.5656 617.043C97.3485 618.594 96.7251 620.479 95.1884 621.261H95.1304ZM89.4765 555.879L93.9706 564.867C94.565 566.056 93.6952 567.462 92.3614 567.462C91.999 567.462 91.6946 567.767 91.6946 568.129V570.376C91.6946 572.696 89.8099 574.581 87.4904 574.581H87.2439C84.9244 574.581 83.0398 572.696 83.0398 570.376V568.129C83.0398 567.767 82.7353 567.462 82.3729 567.462C81.0392 567.462 80.1693 566.056 80.7637 564.867L85.2578 555.879C85.4608 555.488 85.5623 555.038 85.5623 554.589V551.835C85.5623 551.733 85.5623 551.617 85.5913 551.516C86.1567 551.69 86.751 551.791 87.3599 551.791C87.9688 551.791 88.5632 551.69 89.1286 551.516C89.1431 551.617 89.1576 551.719 89.1576 551.835V554.589C89.1576 555.038 89.259 555.473 89.462 555.879H89.4765ZM82.3729 586.164C82.7353 586.164 83.0398 585.859 83.0398 585.497V583.25C83.0398 580.93 84.9244 579.046 87.2439 579.046H87.4904C89.8099 579.046 91.6946 580.93 91.6946 583.25V585.497C91.6946 585.859 91.999 586.164 92.3614 586.164C93.6952 586.164 94.565 587.57 93.9706 588.759L89.4765 597.747C89.2735 598.138 89.1721 598.588 89.1721 599.037V601.792C89.1721 601.893 89.1721 602.009 89.1431 602.111C88.5777 601.937 87.9833 601.835 87.3744 601.835C86.7655 601.835 86.1712 601.937 85.6058 602.111C85.5913 602.009 85.5768 601.908 85.5768 601.792V599.037C85.5768 598.588 85.4753 598.153 85.2723 597.747L80.7782 588.759C80.1838 587.57 81.0537 586.164 82.3874 586.164H82.3729ZM96.5076 536.583L92.7094 544.151C91.6946 546.166 89.6215 547.442 87.3599 547.442C85.0984 547.442 83.0253 546.166 82.0105 544.151L78.2122 536.583C77.4294 535.032 78.0527 533.148 79.5894 532.365C80.2128 532.046 80.9667 532.118 81.5176 532.539C81.9815 532.887 82.6338 532.727 82.8803 532.205L84.591 528.596C85.0984 527.537 86.1567 526.856 87.3309 526.856C88.5052 526.856 89.578 527.537 90.0709 528.596L91.7816 532.205C92.028 532.727 92.6949 532.887 93.1443 532.539C93.6952 532.118 94.449 532.046 95.0724 532.365C96.6091 533.148 97.2325 535.032 96.4496 536.583H96.5076ZM89.4765 472.999L93.9706 481.987C94.565 483.176 93.6952 484.582 92.3614 484.582C91.999 484.582 91.6946 484.887 91.6946 485.249V487.496C91.6946 489.816 89.8099 491.7 87.4904 491.7H87.2439C84.9244 491.7 83.0398 489.816 83.0398 487.496V485.249C83.0398 484.887 82.7353 484.582 82.3729 484.582C81.0392 484.582 80.1693 483.176 80.7637 481.987L85.2578 472.999C85.4608 472.608 85.5623 472.158 85.5623 471.709V468.954C85.5623 468.853 85.5623 468.737 85.5913 468.635C86.1567 468.809 86.751 468.911 87.3599 468.911C87.9688 468.911 88.5632 468.809 89.1286 468.635C89.1431 468.737 89.1576 468.838 89.1576 468.954V471.709C89.1576 472.158 89.259 472.593 89.462 472.999H89.4765ZM82.3729 506.835C82.7353 506.835 83.0398 506.531 83.0398 506.168V503.921C83.0398 501.602 84.9244 499.717 87.2439 499.717H87.4904C89.8099 499.717 91.6946 501.602 91.6946 503.921V506.168C91.6946 506.531 91.999 506.835 92.3614 506.835C93.6952 506.835 94.565 508.242 93.9706 509.43L89.4765 518.419C89.2735 518.81 89.1721 519.259 89.1721 519.709V522.463C89.1721 522.565 89.1721 522.681 89.1431 522.782C88.5777 522.608 87.9833 522.507 87.3744 522.507C86.7655 522.507 86.1712 522.608 85.6058 522.782C85.5913 522.681 85.5768 522.579 85.5768 522.463V519.709C85.5768 519.259 85.4753 518.824 85.2723 518.419L80.7782 509.43C80.1838 508.242 81.0537 506.835 82.3874 506.835H82.3729ZM95.1304 459.053C94.507 459.372 93.7532 459.299 93.2023 458.879C92.7384 458.531 92.086 458.69 91.8395 459.212L90.1289 462.822C89.6215 463.88 88.5632 464.562 87.3889 464.562C86.2146 464.562 85.1419 463.88 84.6489 462.822L82.9383 459.212C82.6918 458.69 82.025 458.531 81.5756 458.879C81.0247 459.299 80.2708 459.372 79.6474 459.053C78.1107 458.27 77.4874 456.385 78.2702 454.834L82.0685 447.266C83.0833 445.251 85.1563 443.976 87.4179 443.976C89.6795 443.976 91.7526 445.251 92.7674 447.266L96.5656 454.834C97.3485 456.385 96.7251 458.27 95.1884 459.053H95.1304ZM89.4765 393.67L93.9706 402.659C94.565 403.847 93.6952 405.254 92.3614 405.254C91.999 405.254 91.6946 405.558 91.6946 405.921V408.168C91.6946 410.487 89.8099 412.372 87.4904 412.372H87.2439C84.9244 412.372 83.0398 410.487 83.0398 408.168V405.921C83.0398 405.558 82.7353 405.254 82.3729 405.254C81.0392 405.254 80.1693 403.847 80.7637 402.659L85.2578 393.67C85.4608 393.279 85.5623 392.83 85.5623 392.38V389.626C85.5623 389.524 85.5623 389.408 85.5913 389.307C86.1567 389.481 86.751 389.582 87.3599 389.582C87.9688 389.582 88.5632 389.481 89.1286 389.307C89.1431 389.408 89.1576 389.51 89.1576 389.626V392.38C89.1576 392.83 89.259 393.265 89.462 393.67H89.4765ZM82.3729 423.955C82.7353 423.955 83.0398 423.651 83.0398 423.288V421.041C83.0398 418.722 84.9244 416.837 87.2439 416.837H87.4904C89.8099 416.837 91.6946 418.722 91.6946 421.041V423.288C91.6946 423.651 91.999 423.955 92.3614 423.955C93.6952 423.955 94.565 425.361 93.9706 426.55L89.4765 435.538C89.2735 435.93 89.1721 436.379 89.1721 436.829V439.583C89.1721 439.684 89.1721 439.8 89.1431 439.902C88.5777 439.728 87.9833 439.626 87.3744 439.626C86.7655 439.626 86.1712 439.728 85.6058 439.902C85.5913 439.8 85.5768 439.699 85.5768 439.583V436.829C85.5768 436.379 85.4753 435.944 85.2723 435.538L80.7782 426.55C80.1838 425.361 81.0537 423.955 82.3874 423.955H82.3729ZM96.5076 374.375L92.7094 381.942C91.6946 383.957 89.6215 385.233 87.3599 385.233C85.0984 385.233 83.0253 383.957 82.0105 381.942L78.2122 374.375C77.4294 372.824 78.0527 370.939 79.5894 370.156C80.2128 369.837 80.9667 369.91 81.5176 370.33C81.9815 370.678 82.6338 370.518 82.8803 369.997L84.591 366.387C85.0984 365.329 86.1567 364.647 87.3309 364.647C88.5052 364.647 89.578 365.329 90.0709 366.387L91.7816 369.997C92.028 370.518 92.6949 370.678 93.1443 370.33C93.6952 369.91 94.449 369.837 95.0724 370.156C96.6091 370.939 97.2325 372.824 96.4496 374.375H96.5076ZM89.4765 310.79L93.9706 319.778C94.565 320.967 93.6952 322.373 92.3614 322.373C91.999 322.373 91.6946 322.678 91.6946 323.04V325.287C91.6946 327.607 89.8099 329.492 87.4904 329.492H87.2439C84.9244 329.492 83.0398 327.607 83.0398 325.287V323.04C83.0398 322.678 82.7353 322.373 82.3729 322.373C81.0392 322.373 80.1693 320.967 80.7637 319.778L85.2578 310.79C85.4608 310.399 85.5623 309.949 85.5623 309.5V306.745C85.5623 306.644 85.5623 306.528 85.5913 306.427C86.1567 306.6 86.751 306.702 87.3599 306.702C87.9688 306.702 88.5632 306.6 89.1286 306.427C89.1431 306.528 89.1576 306.629 89.1576 306.745V309.5C89.1576 309.949 89.259 310.384 89.462 310.79H89.4765ZM82.3729 344.627C82.7353 344.627 83.0398 344.322 83.0398 343.96V341.713C83.0398 339.393 84.9244 337.508 87.2439 337.508H87.4904C89.8099 337.508 91.6946 339.393 91.6946 341.713V343.96C91.6946 344.322 91.999 344.627 92.3614 344.627C93.6952 344.627 94.565 346.033 93.9706 347.222L89.4765 356.21C89.2735 356.601 89.1721 357.051 89.1721 357.5V360.255C89.1721 360.356 89.1721 360.472 89.1431 360.573C88.5777 360.399 87.9833 360.298 87.3744 360.298C86.7655 360.298 86.1712 360.399 85.6058 360.573C85.5913 360.472 85.5768 360.37 85.5768 360.255V357.5C85.5768 357.051 85.4753 356.616 85.2723 356.21L80.7782 347.222C80.1838 346.033 81.0537 344.627 82.3874 344.627H82.3729ZM95.1304 296.844C94.507 297.163 93.7532 297.09 93.2023 296.67C92.7384 296.322 92.086 296.481 91.8395 297.003L90.1289 300.613C89.6215 301.671 88.5632 302.353 87.3889 302.353C86.2146 302.353 85.1419 301.671 84.6489 300.613L82.9383 297.003C82.6918 296.481 82.025 296.322 81.5756 296.67C81.0247 297.09 80.2708 297.163 79.6474 296.844C78.1107 296.061 77.4874 294.176 78.2702 292.625L82.0685 285.058C83.0833 283.043 85.1563 281.767 87.4179 281.767C89.6795 281.767 91.7526 283.043 92.7674 285.058L96.5656 292.625C97.3485 294.176 96.7251 296.061 95.1884 296.844H95.1304ZM89.4765 231.447L93.9706 240.435C94.565 241.624 93.6952 243.03 92.3614 243.03C91.999 243.03 91.6946 243.335 91.6946 243.697V245.944C91.6946 248.264 89.8099 250.149 87.4904 250.149H87.2439C84.9244 250.149 83.0398 248.264 83.0398 245.944V243.697C83.0398 243.335 82.7353 243.03 82.3729 243.03C81.0392 243.03 80.1693 241.624 80.7637 240.435L85.2578 231.447C85.4608 231.056 85.5623 230.606 85.5623 230.157V227.403C85.5623 227.301 85.5623 227.185 85.5913 227.084C86.1567 227.258 86.751 227.359 87.3599 227.359C87.9688 227.359 88.5632 227.258 89.1286 227.084C89.1431 227.185 89.1576 227.287 89.1576 227.403V230.157C89.1576 230.606 89.259 231.041 89.462 231.447H89.4765ZM82.3729 261.746C82.7353 261.746 83.0398 261.442 83.0398 261.079V258.832C83.0398 256.513 84.9244 254.628 87.2439 254.628H87.4904C89.8099 254.628 91.6946 256.513 91.6946 258.832V261.079C91.6946 261.442 91.999 261.746 92.3614 261.746C93.6952 261.746 94.565 263.152 93.9706 264.341L89.4765 273.329C89.2735 273.721 89.1721 274.17 89.1721 274.62V277.374C89.1721 277.476 89.1721 277.592 89.1431 277.693C88.5777 277.519 87.9833 277.418 87.3744 277.418C86.7655 277.418 86.1712 277.519 85.6058 277.693C85.5913 277.592 85.5768 277.49 85.5768 277.374V274.62C85.5768 274.17 85.4753 273.735 85.2723 273.329L80.7782 264.341C80.1838 263.152 81.0537 261.746 82.3874 261.746H82.3729ZM96.5076 212.166L92.7094 219.734C91.6946 221.749 89.6215 223.024 87.3599 223.024C85.0984 223.024 83.0253 221.749 82.0105 219.734L78.2122 212.166C77.4294 210.615 78.0527 208.73 79.5894 207.947C80.2128 207.628 80.9667 207.701 81.5176 208.121C81.9815 208.469 82.6338 208.31 82.8803 207.788L84.591 204.178C85.0984 203.12 86.1567 202.438 87.3309 202.438C88.5052 202.438 89.578 203.12 90.0709 204.178L91.7816 207.788C92.028 208.31 92.6949 208.469 93.1443 208.121C93.6952 207.701 94.449 207.628 95.0724 207.947C96.6091 208.73 97.2325 210.615 96.4496 212.166H96.5076ZM89.4765 148.567L93.9706 157.555C94.565 158.744 93.6952 160.15 92.3614 160.15C91.999 160.15 91.6946 160.455 91.6946 160.817V163.064C91.6946 165.384 89.8099 167.268 87.4904 167.268H87.2439C84.9244 167.268 83.0398 165.384 83.0398 163.064V160.817C83.0398 160.455 82.7353 160.15 82.3729 160.15C81.0392 160.15 80.1693 158.744 80.7637 157.555L85.2578 148.567C85.4608 148.176 85.5623 147.726 85.5623 147.277V144.522C85.5623 144.421 85.5623 144.305 85.5913 144.203C86.1567 144.377 86.751 144.479 87.3599 144.479C87.9688 144.479 88.5632 144.377 89.1286 144.203C89.1431 144.305 89.1576 144.406 89.1576 144.522V147.277C89.1576 147.726 89.259 148.161 89.462 148.567H89.4765ZM82.3729 182.418C82.7353 182.418 83.0398 182.113 83.0398 181.751V179.504C83.0398 177.184 84.9244 175.3 87.2439 175.3H87.4904C89.8099 175.3 91.6946 177.184 91.6946 179.504V181.751C91.6946 182.113 91.999 182.418 92.3614 182.418C93.6952 182.418 94.565 183.824 93.9706 185.013L89.4765 194.001C89.2735 194.392 89.1721 194.842 89.1721 195.291V198.046C89.1721 198.147 89.1721 198.263 89.1431 198.365C88.5777 198.191 87.9833 198.089 87.3744 198.089C86.7655 198.089 86.1712 198.191 85.6058 198.365C85.5913 198.263 85.5768 198.162 85.5768 198.046V195.291C85.5768 194.842 85.4753 194.407 85.2723 194.001L80.7782 185.013C80.1838 183.824 81.0537 182.418 82.3874 182.418H82.3729ZM95.1304 134.635C94.507 134.954 93.7532 134.882 93.2023 134.461C92.7384 134.113 92.086 134.273 91.8395 134.795L90.1289 138.404C89.6215 139.463 88.5632 140.144 87.3889 140.144C86.2146 140.144 85.1419 139.463 84.6489 138.404L82.9383 134.795C82.6918 134.273 82.025 134.113 81.5756 134.461C81.0247 134.882 80.2708 134.954 79.6474 134.635C78.1107 133.852 77.4874 131.968 78.2702 130.416L82.0685 122.849C83.0833 120.834 85.1563 119.558 87.4179 119.558C89.6795 119.558 91.7526 120.834 92.7674 122.849L96.5656 130.416C97.3485 131.968 96.7251 133.852 95.1884 134.635H95.1304ZM89.4765 69.2384L93.9706 78.2267C94.565 79.4155 93.6952 80.8217 92.3614 80.8217C91.999 80.8217 91.6946 81.1261 91.6946 81.4886V83.7356C91.6946 86.0552 89.8099 87.9398 87.4904 87.9398H87.2439C84.9244 87.9398 83.0398 86.0552 83.0398 83.7356V81.4886C83.0398 81.1261 82.7353 80.8217 82.3729 80.8217C81.0392 80.8217 80.1693 79.4155 80.7637 78.2267L85.2578 69.2384C85.4608 68.847 85.5623 68.3976 85.5623 67.9482V65.1937C85.5623 65.0923 85.5623 64.9763 85.5913 64.8748C86.1567 65.0488 86.751 65.1503 87.3599 65.1503C87.9688 65.1503 88.5632 65.0488 89.1286 64.8748C89.1431 64.9763 89.1576 65.0778 89.1576 65.1937V67.9482C89.1576 68.3976 89.259 68.8325 89.462 69.2384H89.4765ZM82.3729 99.5375C82.7353 99.5375 83.0398 99.2331 83.0398 98.8707V96.6236C83.0398 94.304 84.9244 92.4194 87.2439 92.4194H87.4904C89.8099 92.4194 91.6946 94.304 91.6946 96.6236V98.8707C91.6946 99.2331 91.999 99.5375 92.3614 99.5375C93.6952 99.5375 94.565 100.944 93.9706 102.133L89.4765 111.121C89.2735 111.512 89.1721 111.962 89.1721 112.411V115.165C89.1721 115.267 89.1721 115.383 89.1431 115.484C88.5777 115.31 87.9833 115.209 87.3744 115.209C86.7655 115.209 86.1712 115.31 85.6058 115.484C85.5913 115.383 85.5768 115.281 85.5768 115.165V112.411C85.5768 111.962 85.4753 111.527 85.2723 111.121L80.7782 102.133C80.1838 100.944 81.0537 99.5375 82.3874 99.5375H82.3729ZM96.5076 49.9572L92.7094 57.5247C91.6946 59.5398 89.6215 60.8156 87.3599 60.8156C85.0984 60.8156 83.0253 59.5398 82.0105 57.5247L78.2122 49.9572C77.4294 48.406 78.0527 46.5214 79.5894 45.7385C80.2128 45.4196 80.9667 45.4921 81.5176 45.9125C81.9815 46.2604 82.6338 46.101 82.8803 45.5791L84.591 41.9693C85.0984 40.911 86.1567 40.2296 87.3309 40.2296C88.5052 40.2296 89.578 40.911 90.0709 41.9693L91.7816 45.5791C92.028 46.101 92.6949 46.2604 93.1443 45.9125C93.6952 45.4921 94.449 45.4196 95.0724 45.7385C96.6091 46.5214 97.2325 48.406 96.4496 49.9572H96.5076Z" fill="#332932"/>
<path d="M13.3229 0C5.97283 0 0 6.01632 0 13.4389V653.547C0 660.969 5.97283 666.985 13.3229 666.985H56.5679V0H13.3229ZM40.795 645.008C41.085 645.298 41.4039 645.559 41.7373 645.805C40.969 647.545 39.8672 649.183 38.4465 650.618C37.0258 652.053 35.3876 653.141 33.6334 653.909C33.387 653.576 33.1405 653.257 32.8361 652.967C29.7337 649.864 24.7177 649.864 21.6298 652.967C21.3398 653.257 21.0789 653.576 20.8324 653.909C19.0928 653.141 17.4546 652.039 16.0194 650.618C14.5841 649.183 13.4969 647.559 12.7285 645.805C13.0619 645.559 13.3809 645.312 13.6708 645.008C16.7732 641.905 16.7732 636.889 13.6708 633.802C13.3809 633.512 13.0619 633.251 12.7285 633.004C13.4969 631.265 14.5986 629.626 16.0194 628.191C17.4546 626.756 19.0783 625.669 20.8324 624.9C21.0789 625.234 21.3253 625.553 21.6298 625.843C24.7322 628.945 29.7482 628.945 32.8361 625.843C33.126 625.553 33.387 625.234 33.6334 624.9C35.3731 625.669 37.0113 626.77 38.4465 628.191C39.8817 629.612 40.969 631.25 41.7373 633.004C41.4039 633.251 41.085 633.497 40.795 633.802C37.6926 636.904 37.6926 641.92 40.795 645.008ZM40.795 380.783C41.085 381.072 41.4039 381.333 41.7373 381.58C40.969 383.319 39.8672 384.958 38.4465 386.393C37.0258 387.828 35.3876 388.915 33.6334 389.684C33.387 389.35 33.1405 389.031 32.8361 388.741C29.7337 385.639 24.7177 385.639 21.6298 388.741C21.3398 389.031 21.0789 389.35 20.8324 389.684C19.0928 388.915 17.4546 387.814 16.0194 386.393C14.5841 384.958 13.4969 383.334 12.7285 381.58C13.0619 381.333 13.3809 381.087 13.6708 380.783C16.7732 377.68 16.7732 372.664 13.6708 369.576C13.3809 369.286 13.0619 369.025 12.7285 368.779C13.4969 367.039 14.5986 365.401 16.0194 363.966C17.4546 362.531 19.0783 361.443 20.8324 360.675C21.0789 361.008 21.3253 361.327 21.6298 361.617C24.7322 364.72 29.7482 364.72 32.8361 361.617C33.126 361.327 33.387 361.008 33.6334 360.675C35.3731 361.443 37.0113 362.545 38.4465 363.966C39.8817 365.401 40.969 367.025 41.7373 368.779C41.4039 369.025 41.085 369.272 40.795 369.576C37.6926 372.679 37.6926 377.695 40.795 380.783ZM40.795 297.438C41.085 297.728 41.4039 297.989 41.7373 298.236C40.969 299.975 39.8672 301.613 38.4465 303.049C37.0113 304.484 35.3876 305.571 33.6334 306.34C33.387 306.006 33.1405 305.687 32.8361 305.397C29.7337 302.295 24.7177 302.295 21.6298 305.397C21.3398 305.687 21.0789 306.006 20.8324 306.34C19.0928 305.571 17.4546 304.469 16.0194 303.049C14.5841 301.613 13.4969 299.99 12.7285 298.236C13.0619 297.989 13.3809 297.743 13.6708 297.438C16.7732 294.336 16.7732 289.32 13.6708 286.232C13.3809 285.942 13.0619 285.681 12.7285 285.435C13.4969 283.695 14.5986 282.057 16.0194 280.622C17.4546 279.186 19.0783 278.099 20.8324 277.331C21.0789 277.664 21.3253 277.983 21.6298 278.273C24.7322 281.375 29.7482 281.375 32.8361 278.273C33.126 277.983 33.387 277.664 33.6334 277.331C35.3731 278.099 37.0113 279.201 38.4465 280.622C39.8817 282.042 40.969 283.68 41.7373 285.435C41.4039 285.681 41.085 285.928 40.795 286.232C37.6926 289.334 37.6926 294.35 40.795 297.438ZM40.795 33.1985C41.085 33.4884 41.4039 33.7494 41.7373 33.9958C40.969 35.7355 39.8672 37.3737 38.4465 38.8089C37.0258 40.2441 35.3876 41.3314 33.6334 42.0998C33.387 41.7663 33.1405 41.4474 32.8361 41.1574C29.7337 38.0551 24.7177 38.0551 21.6298 41.1574C21.3398 41.4474 21.0789 41.7663 20.8324 42.0998C19.0928 41.3314 17.4546 40.2296 16.0194 38.8089C14.5841 37.3737 13.4969 35.75 12.7285 33.9958C13.0619 33.7494 13.3809 33.5029 13.6708 33.1985C16.7732 30.0961 16.7732 25.0801 13.6708 21.9922C13.3809 21.7023 13.0619 21.4413 12.7285 21.1949C13.4969 19.4552 14.5986 17.817 16.0194 16.3818C17.4546 14.9466 19.0783 13.8593 20.8324 13.0909C21.0789 13.4244 21.3253 13.7433 21.6298 14.0333C24.7322 17.1356 29.7482 17.1356 32.8361 14.0333C33.126 13.7433 33.387 13.4244 33.6334 13.0909C35.3731 13.8593 37.0113 14.9611 38.4465 16.3818C39.8817 17.817 40.969 19.4407 41.7373 21.1949C41.4039 21.4413 41.085 21.6878 40.795 21.9922C37.6926 25.0946 37.6926 30.1106 40.795 33.1985Z" fill="#332932"/>
</g>
<defs>
<clipPath id="clip0_54845_116">
<rect width="107.352" height="667" fill="white"/>
</clipPath>
</defs>
</svg>
