<svg width="181" height="181" viewBox="0 0 181 181" fill="none" xmlns="http://www.w3.org/2000/svg">
<g clip-path="url(#clip0_54829_383)">
<path d="M90.0238 0C40.384 0 0 40.384 0 90.0152C0 139.646 40.384 180.048 90.0238 180.048C139.664 180.048 180.048 139.664 180.048 90.0152C180.048 40.3668 139.664 0 90.0238 0ZM153.918 41.4527L154.444 42.0215L155.34 41.5044C155.616 41.3234 155.978 41.2372 156.443 41.2372H156.503C156.96 41.1941 157.468 41.3148 158.003 41.4441C158.477 41.5561 158.968 41.6681 159.356 41.6768C159.399 41.6854 159.451 41.694 159.494 41.7026C165.363 50.1224 169.611 59.3954 172.093 69.2199L173.102 75.3215C172.852 75.6318 172.653 75.9679 172.455 76.2953C172.162 76.7693 171.895 77.2175 171.49 77.5622C171.145 77.9069 170.835 78.0965 170.464 78.1827C170.094 78.2861 169.723 78.3809 169.353 78.4671L169.258 78.4843C168.465 78.6653 167.543 78.8635 166.586 78.9583C164.759 66.2381 159.718 54.0953 151.962 43.7537C152.608 43.228 153.349 42.7109 154.314 42.1077L153.926 41.4527H153.918ZM162.984 94.7638C163.355 95.3326 162.76 96.0306 162.148 95.7548L160.33 94.9361C159.27 94.4535 158.761 93.2642 159.097 92.1525C159.27 91.5837 159.399 90.877 159.399 90.0325C159.399 89.1879 159.27 88.4812 159.097 87.9124C158.761 86.7921 159.27 85.6114 160.33 85.1288L162.148 84.3101C162.769 84.0343 163.355 84.7324 162.984 85.3012C162.553 85.9561 162.338 86.5939 162.708 86.9731C163.768 88.0417 164.061 89.0155 164.139 89.5757C164.139 89.7308 164.147 89.886 164.147 90.0497C164.147 90.2134 164.139 90.3513 164.139 90.4978C164.061 91.058 163.768 92.0318 162.708 93.1005C162.329 93.4797 162.553 94.1174 162.984 94.7724V94.7638ZM27.8793 92.5317C31.1886 92.0318 32.6709 95.2464 32.9381 95.8927C34.0153 101.081 36.4973 105.734 39.9445 109.501C39.9445 109.501 40.4013 110.018 40.634 110.259C40.7115 110.337 40.7891 110.423 40.8667 110.5C52.7078 122.996 48.4247 131.666 48.4247 131.666C48.4247 131.666 57.0771 127.4 69.5474 139.181C69.6681 139.302 69.7973 139.422 69.9266 139.543C70.1421 139.75 70.5988 140.155 70.5988 140.155C74.3649 143.602 79.0186 146.093 84.2067 147.161C84.853 147.428 88.0676 148.911 87.5677 152.22C84.9392 159.666 77.6311 162.889 72.8137 162.114C67.2809 160.795 61.998 158.822 57.0254 156.34C54.1039 154.538 48.2868 149.764 45.4342 146.92C42.5816 144.076 37.7211 142.439 37.6349 142.404C37.6349 142.404 37.6349 142.404 37.6263 142.396C37.6004 142.301 36.0664 137.552 33.1104 134.596C30.1803 131.666 25.2077 125.582 23.5444 122.755C21.1659 117.955 19.2785 112.87 17.9772 107.544L18.0289 107.605C17.0637 102.796 20.2696 95.2033 27.8793 92.5231V92.5317ZM17.4515 93.0832C15.9433 91.5665 15.9778 90.2307 15.995 90.0152C15.9778 89.7998 15.952 88.4726 17.4515 86.9472C17.8307 86.568 17.6066 85.9303 17.1757 85.2753C16.8051 84.7065 17.3998 84.0085 18.0117 84.2842L19.8301 85.103C20.8901 85.5856 21.3985 86.7749 21.0624 87.8866C20.8901 88.4554 20.7608 89.162 20.7608 90.0066C20.7608 90.8512 20.8901 91.5579 21.0624 92.1266C21.3985 93.247 20.8901 94.4277 19.8301 94.9103L18.0117 95.729C17.3912 96.0048 16.8051 95.3067 17.1757 94.7379C17.6066 94.0829 17.8221 93.4452 17.4515 93.066V93.0832ZM147.239 84.1722C146.17 78.9669 143.68 74.3046 140.224 70.5299C140.224 70.5299 139.431 69.6595 139.043 69.2458C127.521 56.8962 131.752 48.3557 131.752 48.3557C131.752 48.3557 122.876 52.7423 110.138 40.3754C109.957 40.2031 109.578 39.8842 109.578 39.8842C105.812 36.4284 101.141 33.9378 95.9358 32.8691C95.2291 32.5761 92.1008 31.0852 92.6006 27.8276C95.1688 20.554 102.21 17.3136 107.027 17.8824C112.577 19.1923 117.886 21.1314 122.876 23.6134C125.737 25.337 131.718 30.2234 134.613 33.1191C137.466 35.9716 141.991 37.4884 142.378 37.6177C142.396 37.6349 142.413 37.6521 142.43 37.6694C142.551 38.0399 144.076 42.5816 146.929 45.4428C149.833 48.3471 154.745 54.3539 156.452 57.2064C158.994 62.3255 160.967 67.7721 162.269 73.4772C162.631 78.2775 159.364 85.0254 152.28 87.516C149.023 88.0072 147.532 84.8875 147.239 84.1808V84.1722ZM118.963 112.026C115.171 112.026 112.103 115.094 112.103 118.886C112.103 131.028 102.227 140.913 90.0928 140.913C77.95 140.913 68.0651 131.028 68.0651 118.886C68.0651 115.094 64.9971 112.026 61.2052 112.026C49.071 112.026 39.1948 102.149 39.1948 90.0152C39.1948 77.8811 49.071 68.0048 61.2052 68.0048C64.9971 68.0048 68.0651 64.9368 68.0651 61.1449C68.0651 49.0107 77.95 39.1344 90.0928 39.1344C102.227 39.1344 112.103 49.0107 112.103 61.1449C112.103 64.9368 115.171 68.0048 118.963 68.0048C131.097 68.0048 140.974 77.8811 140.974 90.0152C140.974 102.149 131.097 112.026 118.963 112.026ZM95.8152 17.9513L94.9964 19.7697C94.5138 20.8298 93.3245 21.3382 92.2128 21.0021C91.644 20.8298 90.9374 20.7005 90.0928 20.7005C89.2482 20.7005 88.5415 20.8298 87.9728 21.0021C86.8524 21.3382 85.6717 20.8298 85.1891 19.7697L84.3704 17.9513C84.0947 17.3308 84.7927 16.7448 85.3615 17.1154C86.0165 17.5463 86.6542 17.7617 87.0334 17.3912C88.5502 15.883 89.886 15.9175 90.1014 15.9347C90.3169 15.9175 91.644 15.8916 93.1694 17.3912C93.5486 17.7704 94.1864 17.5463 94.8413 17.1154C95.4101 16.7448 96.1082 17.3395 95.8324 17.9513H95.8152ZM87.5763 27.819C88.0762 31.1197 84.8617 32.6106 84.2153 32.8778C79.0273 33.9464 74.3735 36.437 70.6161 39.8756C70.6161 39.8756 69.9956 40.4271 69.6939 40.7115C69.6853 40.7115 69.6767 40.7288 69.6681 40.7374C57.1375 52.6475 48.4419 48.3557 48.4419 48.3557C48.4419 48.3557 52.7251 57.0341 40.8753 69.5302C40.8063 69.5991 40.7374 69.6767 40.6598 69.7456C40.4185 69.9956 39.9531 70.5213 39.9531 70.5213C36.4973 74.296 33.9981 78.9669 32.9295 84.1722C32.6364 84.8789 31.1455 88.0072 27.8879 87.5074C20.8039 85.0082 17.5377 78.2602 17.8996 73.46L17.9944 72.4776C19.2957 67.1258 21.209 62.0153 23.6048 57.1892C25.3197 54.3366 30.2234 48.3299 33.1277 45.4342C36.0319 42.5299 37.5573 37.8934 37.6349 37.6521C37.6435 37.6435 37.6521 37.6349 37.6608 37.6263C37.8762 37.5573 42.5386 36.0319 45.4428 33.1191C48.3471 30.2062 54.0178 25.5783 56.9565 23.7426C61.9549 21.2348 67.2637 19.2527 72.8223 17.9255C77.6397 17.1585 84.9478 20.3816 87.5763 27.8276V27.819ZM84.3532 162.088L85.1719 160.269C85.6545 159.209 86.8438 158.701 87.9555 159.037C88.5243 159.209 89.231 159.339 90.0756 159.339C90.9201 159.339 91.6268 159.209 92.1956 159.037C93.3159 158.701 94.4966 159.209 94.9792 160.269L95.7979 162.088C96.0737 162.708 95.3756 163.294 94.8069 162.924C94.1519 162.493 93.5141 162.277 93.135 162.648C91.6182 164.156 90.2824 164.122 90.0669 164.104C89.8515 164.122 88.5157 164.147 86.9989 162.648C86.6197 162.269 85.982 162.493 85.327 162.924C84.7582 163.294 84.0602 162.7 84.336 162.088H84.3532ZM92.592 152.22C92.1008 148.962 95.2205 147.472 95.9272 147.179C101.132 146.11 105.803 143.619 109.57 140.155C109.57 140.155 110.095 139.689 110.345 139.448C110.414 139.379 110.492 139.31 110.561 139.233C123.057 127.383 131.735 131.666 131.735 131.666C131.735 131.666 127.348 122.781 139.715 110.052C139.888 109.88 140.207 109.492 140.207 109.492C143.654 105.735 146.136 101.081 147.213 95.8927C147.48 95.2464 148.962 92.0318 152.272 92.5317C159.364 95.0309 162.631 101.787 162.26 106.588C160.959 112.258 158.994 117.688 156.477 122.781C154.797 125.608 149.842 131.675 146.92 134.596C144.016 137.501 142.49 142.137 142.413 142.378C142.404 142.387 142.387 142.396 142.378 142.413C142.12 142.499 137.492 144.024 134.596 146.92C131.683 149.833 125.642 154.771 122.798 156.46C117.826 158.925 112.534 160.855 107.01 162.157C102.192 162.734 95.1516 159.485 92.5834 152.211L92.592 152.22ZM141.473 28.4998L141.749 28.2068C141.87 28.0689 141.999 27.931 142.128 27.7931L142.344 27.569C142.577 27.3019 142.895 27.1123 143.404 26.9658C143.826 26.802 144.343 26.7762 144.895 26.7417C145.274 26.7245 145.662 26.6986 146.075 26.6297C148.704 28.9652 151.169 31.4299 153.409 33.9636C153.34 34.3601 153.323 34.7479 153.297 35.1357C153.263 35.6958 153.237 36.2129 153.056 36.7042C152.927 37.1523 152.737 37.4712 152.453 37.7297L152.255 37.9193C152.082 38.083 151.918 38.2382 151.738 38.3933L151.522 38.5829C150.721 39.3068 149.997 39.8756 149.281 40.3582C146.368 36.8937 143.137 33.6706 139.681 30.7663C140.163 30.0424 140.767 29.2927 141.473 28.5084V28.4998ZM101.632 10.5743C101.667 10.4709 101.693 10.3675 101.71 10.2641L101.77 10.0055C101.796 9.87625 101.839 9.72975 101.874 9.60048L101.891 9.54877C101.968 9.22128 102.167 8.87656 102.529 8.50599C102.83 8.16127 103.27 7.88549 103.744 7.59248C104.054 7.40288 104.364 7.21328 104.692 6.94613L110.94 7.97167C120.782 10.4881 129.994 14.711 138.336 20.5281C138.336 20.5367 138.336 20.5454 138.336 20.5626C138.362 21.0538 138.474 21.5278 138.586 21.9846C138.716 22.5361 138.836 23.0532 138.793 23.6134C138.81 24.0615 138.724 24.4149 138.517 24.7423L138.38 24.975C138.293 25.1301 138.199 25.2853 138.052 25.5438L137.949 25.7248C137.389 26.6469 136.854 27.4139 136.303 28.0775C125.961 20.3299 113.818 15.2884 101.089 13.4527C101.184 12.5565 101.365 11.5999 101.624 10.5657L101.632 10.5743ZM83.1553 7.76484L83.1898 7.69589C83.3707 7.26499 83.7241 6.87718 84.1033 6.4549C84.3532 6.17912 84.6117 5.88611 84.853 5.53277C88.4295 5.31732 91.7302 5.34317 95.1774 5.50692C95.4101 5.85164 95.6859 6.15327 95.953 6.44628C96.3236 6.85994 96.677 7.25637 96.901 7.75622C97.1251 8.15265 97.2199 8.50599 97.194 8.90242C97.194 9.04892 97.194 9.20405 97.1768 9.35055L97.1596 9.44535V9.54015C97.1768 9.66942 97.1596 9.78145 97.151 9.95381C97.1165 11.0483 97.0044 12.048 96.8235 12.9701C92.2818 12.5651 87.7832 12.5737 83.2415 12.9701C83.0691 12.0825 82.9571 11.1 82.8967 9.8504C82.8795 9.70389 82.8881 9.54877 82.8795 9.33332C82.8623 9.17819 82.8709 9.04892 82.8623 8.85933C82.8364 8.5146 82.9312 8.16127 83.1553 7.76484ZM41.4354 22.0277C41.5475 21.5537 41.6595 21.0711 41.6681 20.6833C41.6768 20.6315 41.6854 20.5885 41.694 20.5454C50.1224 14.6679 59.4126 10.4192 69.2717 7.92858L75.287 6.92027C75.6059 7.17019 75.9506 7.38564 76.2867 7.59248C76.7607 7.88549 77.2089 8.16127 77.545 8.54908C77.8811 8.88518 78.0793 9.21266 78.1655 9.566L78.2689 9.93658C78.312 10.0831 78.3464 10.2382 78.3895 10.445C78.6739 11.5395 78.8549 12.5134 78.9497 13.4613C66.2381 15.2884 54.0953 20.3299 43.7365 28.0775C43.1418 27.3364 42.5558 26.4746 41.8922 25.3715L41.6509 24.9664C41.6078 24.9061 41.5733 24.8544 41.5044 24.7165C41.3234 24.4235 41.2372 24.0615 41.2372 23.5272C41.1941 23.0704 41.3148 22.562 41.4441 22.0277H41.4354ZM33.9636 26.6297C34.3601 26.6986 34.7479 26.7159 35.1357 26.7417C35.6872 26.7762 36.2129 26.802 36.6955 26.983C37.1437 27.1123 37.4712 27.3105 37.7125 27.5949L38.2726 28.2068C39.1172 29.1117 39.7894 29.939 40.3496 30.7663C36.8937 33.662 33.662 36.8851 30.7491 40.3582C29.9304 39.8066 29.0858 39.1258 28.1292 38.2382C28.0517 38.1692 27.9741 38.1003 27.8017 37.9365C27.7328 37.8848 27.6725 37.8245 27.569 37.7211C27.3019 37.4798 27.1123 37.1523 26.9658 36.6352C26.7934 36.2129 26.7676 35.6786 26.7331 35.1184C26.7072 34.7479 26.69 34.3601 26.6211 33.9809C28.9135 31.3955 31.3782 28.9307 33.9636 26.6383V26.6297ZM7.98029 69.1165C10.4709 59.292 14.7023 50.0707 20.554 41.694C21.0624 41.6681 21.5451 41.5561 22.019 41.4441C22.5534 41.3148 23.0532 41.2028 23.5789 41.2372C24.0529 41.2372 24.4235 41.332 24.6992 41.5044L25.337 41.8663C26.4573 42.5472 27.3191 43.1418 28.0603 43.7451C20.3127 54.0867 15.2711 66.2295 13.4441 78.9497C12.4875 78.8549 11.4533 78.6567 10.221 78.3378L9.97967 78.2775C9.8504 78.2516 9.72113 78.2085 9.54015 78.1568C9.20405 78.0793 8.87656 77.8724 8.50599 77.5019C8.15265 77.2002 7.86825 76.7521 7.57524 76.2695C7.38564 75.9679 7.19605 75.649 6.94613 75.3387L7.98029 69.1251V69.1165ZM5.51553 95.1947C5.41212 93.4193 5.35179 91.6785 5.35179 90.0325C5.35179 88.3864 5.4035 86.6542 5.51553 84.853C5.85164 84.6203 6.15327 84.3532 6.44628 84.0947C6.85994 83.7241 7.24776 83.3794 7.73898 83.1639C8.13541 82.9398 8.5146 82.845 8.90242 82.8709C9.04892 82.8709 9.19543 82.8795 9.40226 82.8967H9.57462C10.8501 82.9312 11.9446 83.0346 12.9443 83.2242C12.7461 85.508 12.6426 87.7918 12.6426 90.0325C12.6426 92.2732 12.7461 94.5397 12.9443 96.8235C11.936 97.0217 10.8242 97.1251 9.4712 97.1596C9.27299 97.1768 9.10063 97.1854 8.83347 97.194C8.52322 97.2199 8.15265 97.1251 7.66142 96.8579C7.23914 96.6856 6.85133 96.3322 6.43766 95.9703C6.14465 95.7117 5.84302 95.4446 5.51553 95.2119V95.1947ZM25.6645 137.992C25.5352 138.043 25.4404 138.104 25.3456 138.164C25.2422 138.224 25.1301 138.285 25.0267 138.345C24.9319 138.397 24.8458 138.457 24.751 138.509L24.6906 138.543C24.4149 138.724 24.0443 138.81 23.51 138.81C23.0532 138.854 22.5447 138.724 22.0104 138.604C21.5364 138.492 21.0538 138.38 20.6574 138.371C20.6143 138.371 20.5798 138.354 20.5367 138.354C14.6506 129.951 10.402 120.644 7.91134 110.742L6.91165 104.743C7.15296 104.433 7.35979 104.106 7.558 103.778C7.85102 103.304 8.13541 102.847 8.54908 102.494C8.85933 102.175 9.18681 101.968 9.52291 101.891L10.1348 101.727C11.4275 101.4 12.4789 101.201 13.4355 101.098C15.2625 113.818 20.3041 125.961 28.0517 136.303C27.3277 136.897 26.5177 137.466 25.6558 138L25.6645 137.992ZM38.4881 151.591L38.2295 151.884C38.0744 152.074 37.8934 152.263 37.678 152.487C37.4712 152.737 37.1437 152.927 36.6438 153.073C36.2129 153.237 35.6872 153.263 35.1357 153.297C34.7651 153.315 34.3945 153.34 33.9722 153.418C31.3868 151.134 28.9221 148.661 26.6211 146.067C26.6814 145.688 26.7072 145.3 26.7331 144.929C26.7676 144.369 26.7934 143.843 26.9916 143.344C27.1209 142.895 27.3105 142.577 27.5777 142.327L27.75 142.171C27.8707 142.059 27.9913 141.939 28.1723 141.784C28.2154 141.741 28.2585 141.698 28.3447 141.62C29.1806 140.853 29.9735 140.224 30.7491 139.689C33.6706 143.163 36.8937 146.377 40.3496 149.281C39.8239 150.057 39.212 150.815 38.4967 151.591H38.4881ZM78.4671 169.215C78.4412 169.353 78.4154 169.482 78.3809 169.611L78.3637 169.663C78.312 169.887 78.2516 170.094 78.1913 170.309L78.1396 170.49C78.062 170.826 77.8724 171.145 77.4932 171.524C77.1916 171.869 76.7521 172.145 76.2781 172.438C75.9679 172.628 75.6576 172.817 75.3301 173.076L69.0993 172.05C59.2834 169.551 50.0707 165.328 41.694 159.485C41.694 159.485 41.694 159.485 41.694 159.476C41.6681 158.968 41.5561 158.477 41.4441 158.003C41.3148 157.468 41.1941 156.96 41.2372 156.434C41.2372 155.969 41.3234 155.598 41.513 155.288L41.8922 154.642C41.9439 154.556 41.9956 154.478 42.0818 154.349C42.6506 153.409 43.1849 152.625 43.7278 151.953C54.0867 159.701 66.2295 164.742 78.9411 166.569C78.8549 167.353 78.7084 168.207 78.4671 169.206V169.215ZM84.5083 175.239V175.127L84.56 175.092L84.5083 175.239ZM96.8924 172.283L96.8579 172.352C96.677 172.783 96.3236 173.171 95.9444 173.593C95.6945 173.877 95.4273 174.17 95.1947 174.506C91.5751 174.722 88.3002 174.713 84.8617 174.515C84.629 174.179 84.3618 173.877 84.1033 173.584C83.7327 173.171 83.3793 172.774 83.1553 172.274C82.9312 171.878 82.8364 171.516 82.8623 171.128C82.8623 170.826 82.8795 170.508 82.8881 170.171C82.8881 170.025 82.9054 169.878 82.9226 169.697C82.9743 168.749 83.0777 167.879 83.2328 167.069C85.508 167.267 87.7918 167.371 90.0238 167.371C92.2559 167.371 94.5397 167.267 96.8062 167.069C96.9527 167.862 97.0562 168.715 97.1251 169.663L97.1596 170.18C97.1768 170.499 97.1854 170.809 97.1854 171.18C97.2113 171.524 97.1165 171.886 96.8924 172.274V172.283ZM138.586 158.046C138.483 158.503 138.371 158.977 138.336 159.425C138.336 159.451 138.336 159.468 138.336 159.494C129.899 165.371 120.609 169.611 110.785 172.085L104.718 173.093C104.407 172.843 104.063 172.636 103.735 172.438C103.261 172.145 102.813 171.869 102.494 171.49C102.158 171.137 101.968 170.818 101.882 170.464L101.787 170.103C101.736 169.922 101.693 169.741 101.641 169.525L101.52 169.025C101.296 168.077 101.158 167.284 101.081 166.561C113.81 164.733 125.952 159.692 136.294 151.944C136.802 152.573 137.276 153.237 137.707 153.935L138.535 155.323C138.716 155.598 138.802 155.952 138.793 156.495C138.836 156.96 138.716 157.477 138.586 158.029V158.046ZM146.084 153.409C145.688 153.34 145.291 153.315 144.903 153.297C144.352 153.263 143.835 153.237 143.352 153.056C142.904 152.927 142.585 152.737 142.318 152.436C142.077 152.194 141.844 151.936 141.542 151.6L141.43 151.47C141.379 151.41 141.327 151.358 141.241 151.238C140.646 150.565 140.138 149.919 139.698 149.273C143.154 146.377 146.377 143.154 149.299 139.681C149.962 140.12 150.6 140.62 151.229 141.18C151.289 141.241 152.168 142.008 152.487 142.327C152.754 142.559 152.944 142.878 153.091 143.387C153.254 143.809 153.28 144.335 153.315 144.895C153.332 145.283 153.358 145.67 153.427 146.067C151.177 148.601 148.713 151.065 146.093 153.401L146.084 153.409ZM172.05 111.017C169.542 120.807 165.311 130.003 159.494 138.354C158.977 138.38 158.485 138.492 158.011 138.604C157.477 138.733 156.977 138.845 156.452 138.81C155.986 138.81 155.624 138.724 155.314 138.526L154.271 137.923C154.185 137.871 154.116 137.828 153.978 137.733C153.228 137.268 152.565 136.802 151.962 136.311C159.709 125.97 164.759 113.827 166.586 101.107C167.5 101.201 168.37 101.382 169.12 101.555L169.275 101.581C169.672 101.675 170.077 101.779 170.508 101.899C170.844 101.977 171.163 102.167 171.55 102.554C171.904 102.847 172.179 103.296 172.464 103.77C172.653 104.08 172.843 104.399 173.093 104.718L172.059 111.026L172.05 111.017ZM174.515 95.186C174.179 95.4187 173.877 95.6859 173.584 95.9444C173.171 96.315 172.783 96.6597 172.283 96.8752C171.869 97.1079 171.516 97.2027 171.163 97.1682H170.714C170.421 97.1509 170.137 97.1423 169.887 97.1423L169.697 97.1079C168.775 97.0562 167.896 96.9527 167.086 96.8062C167.276 94.4794 167.379 92.1956 167.379 90.0238C167.379 87.8521 167.284 85.5683 167.086 83.2242C167.914 83.0691 168.827 82.9657 169.835 82.9054C170.12 82.8881 170.396 82.8795 170.671 82.8709L171.18 82.8537C171.524 82.8192 171.886 82.9312 172.352 83.1898C172.774 83.3707 173.162 83.7155 173.576 84.086C173.869 84.3446 174.17 84.6117 174.506 84.8444C174.627 86.5422 174.687 88.283 174.687 90.0238C174.687 91.5579 174.627 93.2298 174.515 95.186Z" fill="#251929"/>
</g>
<defs>
<clipPath id="clip0_54829_383">
<rect width="180.039" height="180.039" fill="white"/>
</clipPath>
</defs>
</svg>
