<svg width="181" height="137" viewBox="0 0 181 137" fill="none" xmlns="http://www.w3.org/2000/svg">
<g clip-path="url(#clip0_54829_548)">
<path d="M112.692 40.9221C112.09 40.9221 111.604 41.3158 111.419 41.4895C111.349 41.3969 111.268 41.3158 111.21 41.2348C110.828 40.7947 110.4 40.5747 109.936 40.5632C109.369 40.5516 108.894 40.8874 108.674 41.0611C108.616 40.98 108.547 40.9105 108.489 40.8411C108.118 40.3895 107.701 40.1463 107.238 40.1347C106.636 40.1116 106.138 40.4589 105.941 40.6211C105.872 40.5284 105.802 40.4358 105.745 40.3547C105.386 39.9031 104.98 39.6368 104.529 39.6021C103.961 39.5557 103.463 39.8568 103.243 40.0189C103.185 39.9379 103.128 39.8568 103.081 39.7873C102.745 39.3126 102.352 39.0462 101.9 38.9883C101.31 38.9189 100.788 39.2315 100.58 39.382C100.522 39.2894 100.464 39.1852 100.406 39.1041C100.094 38.6178 99.7232 38.3399 99.2831 38.2588C98.7042 38.1662 98.1715 38.4441 97.9515 38.583C97.8936 38.4788 97.8473 38.3862 97.801 38.2936C97.5231 37.7956 97.1757 37.483 96.7472 37.3904C96.1798 37.263 95.6472 37.4946 95.4156 37.6219C95.3693 37.5177 95.3229 37.4251 95.2882 37.3325C95.0682 36.8114 94.7555 36.4871 94.3503 36.3482C93.8523 36.1745 93.3197 36.3482 93.0765 36.4524C93.0533 36.3598 93.0302 36.2671 93.007 36.1861C92.8449 35.6534 92.6249 35.306 92.2659 35.1439C91.8259 34.9123 91.2701 35.0397 91.0501 35.0976C91.0501 34.9934 91.0501 34.8892 91.0501 34.7965C91.0501 34.2754 90.9574 33.9396 90.7606 33.7544C90.4943 33.5344 90.0427 33.5344 89.8111 33.5228C89.8574 33.4649 89.9037 33.3954 89.9384 33.3375C90.2048 32.9785 90.3901 32.8627 90.2974 32.7469H85.2719C85.2256 33.0596 85.2024 33.4301 85.2603 33.8123V33.8586C85.4456 34.6692 85.9435 35.2945 86.5804 35.5724C86.5456 35.804 86.5572 36.8461 87.2636 37.5872L87.2867 37.6104C87.7267 38.0735 88.2941 38.2704 88.9079 38.2588C88.9658 38.502 89.2205 39.3126 89.9269 39.7526L89.95 39.7757C90.4248 40.0768 90.9806 40.1231 91.5712 39.9726C91.6406 40.1579 91.9764 40.9453 92.7291 41.2811H92.7523C93.227 41.5127 93.7481 41.5011 94.2924 41.2811C94.4082 41.5127 94.7903 42.1611 95.5082 42.4275H95.5314C96.0177 42.6127 96.5388 42.5433 97.0715 42.2769C97.1757 42.4622 97.6041 43.1338 98.3684 43.3654H98.3915C98.8779 43.5044 99.3989 43.4233 99.9084 43.1222C100.013 43.2959 100.476 43.9444 101.24 44.1412H101.263C101.75 44.257 102.259 44.1412 102.757 43.8286C102.873 44.0023 103.359 44.6276 104.123 44.7897H104.147C104.633 44.8823 105.119 44.755 105.582 44.4307C105.733 44.6276 106.219 45.1834 106.949 45.3108H106.972C107.458 45.3918 107.956 45.2413 108.431 44.8823C108.558 45.0444 109.079 45.6466 109.844 45.7508H109.867C110.353 45.8087 110.828 45.6582 111.28 45.3108C111.395 45.4382 111.673 45.7276 112.079 45.9245L112.658 40.9337L112.692 40.9221Z" fill="#251627"/>
<path d="M140.356 40.9222C139.765 41.0727 139.383 41.5591 139.244 41.7675C139.152 41.698 139.059 41.6285 138.978 41.5706C138.503 41.2233 138.04 41.1075 137.588 41.2117C137.021 41.3275 136.639 41.7675 136.477 41.9991C136.396 41.9412 136.315 41.8833 136.245 41.8254C135.782 41.478 135.307 41.3391 134.856 41.4317C134.265 41.5591 133.86 42.0107 133.698 42.2191C133.605 42.1496 133.524 42.0801 133.443 42.0107C132.98 41.6517 132.517 41.5127 132.065 41.5822C131.498 41.6749 131.092 42.0917 130.919 42.3117C130.837 42.2423 130.768 42.1844 130.699 42.1265C130.247 41.7559 129.784 41.5938 129.332 41.6633C128.73 41.7559 128.302 42.2075 128.139 42.4044C128.058 42.3233 127.966 42.2538 127.896 42.1844C127.456 41.8022 126.993 41.6401 126.541 41.698C125.939 41.7675 125.499 42.2075 125.337 42.4044C125.256 42.3233 125.175 42.2538 125.094 42.1844C124.654 41.8022 124.202 41.617 123.739 41.6633C123.137 41.7212 122.685 42.1612 122.523 42.3465C122.442 42.2654 122.361 42.1844 122.292 42.1149C121.863 41.7096 121.412 41.5243 120.96 41.5706C120.381 41.617 119.941 41.9991 119.744 42.1959C119.675 42.1265 119.605 42.057 119.536 41.9875C119.119 41.5822 118.679 41.3854 118.216 41.4085C117.614 41.4433 117.15 41.8601 116.965 42.0338C116.884 41.9528 116.815 41.8717 116.745 41.7907C116.34 41.3738 115.9 41.1654 115.437 41.1885C114.858 41.2117 114.406 41.5706 114.198 41.7559C114.128 41.6864 114.07 41.6054 114.001 41.5359C113.607 41.1075 113.167 40.899 112.715 40.899L112.136 45.8898C112.322 45.9825 112.519 46.0519 112.75 46.0751H112.773C113.271 46.1214 113.746 45.9477 114.198 45.5656C114.337 45.7277 114.881 46.2951 115.657 46.353H115.68C116.166 46.3877 116.629 46.2141 117.058 45.8319C117.231 46.0056 117.764 46.5151 118.505 46.5614H118.528C119.026 46.5846 119.489 46.3877 119.918 45.9825C120.057 46.133 120.636 46.6772 121.4 46.7004H121.423C121.91 46.7004 122.361 46.5151 122.778 46.1214C122.952 46.2951 123.519 46.7699 124.249 46.7815H124.272C124.77 46.7815 125.221 46.5614 125.638 46.1446C125.789 46.2835 126.379 46.8046 127.155 46.8046H127.178C127.676 46.793 128.128 46.573 128.533 46.1446C128.684 46.2835 129.297 46.7814 130.062 46.7583H130.085C130.583 46.7467 131.023 46.5035 131.416 46.0635C131.567 46.2025 132.192 46.6888 132.957 46.6541H132.98C133.466 46.6193 133.894 46.3877 134.277 45.9593C134.473 46.1214 135.076 46.5383 135.805 46.4804H135.828C136.315 46.4341 136.766 46.1793 137.137 45.7161C137.299 45.8435 137.936 46.3067 138.712 46.2372H138.735C139.221 46.1793 139.638 45.9246 139.997 45.473C140.136 45.5772 140.472 45.7856 140.912 45.8782L140.333 40.8875L140.356 40.9222Z" fill="#251627"/>
<path d="M162.751 32.7354C162.82 32.8744 163.202 33.1639 163.364 33.326C163.272 33.3375 163.179 33.3607 163.098 33.3723C162.878 33.407 162.716 33.4302 162.565 33.4997C162.45 33.5576 162.345 33.6502 162.276 33.7776C162.137 34.0902 162.172 34.6113 162.206 34.866C162.114 34.866 162.021 34.8429 161.94 34.8429C161.431 34.7966 161.037 34.866 160.771 35.144C160.388 35.4913 160.307 36.0703 160.261 36.3135C160.157 36.2903 160.053 36.2556 159.96 36.2324C159.427 36.1051 158.976 36.1282 158.64 36.383C158.2 36.6725 158.003 37.2051 157.934 37.4714C157.841 37.4367 157.748 37.402 157.667 37.3672C157.123 37.1704 156.683 37.1935 156.289 37.3904C155.78 37.6683 155.537 38.2241 155.456 38.4557C155.351 38.4094 155.247 38.3631 155.155 38.3283C154.633 38.1083 154.159 38.0736 153.753 38.2704C153.221 38.5252 152.943 39.0578 152.839 39.2894C152.734 39.2431 152.642 39.1852 152.549 39.1389C152.028 38.8842 151.553 38.8378 151.136 39C150.581 39.2315 150.28 39.741 150.164 39.9726C150.06 39.9147 149.967 39.8568 149.874 39.8105C149.365 39.5326 148.89 39.4631 148.462 39.6137C147.929 39.7989 147.593 40.2853 147.454 40.5169C147.373 40.4706 147.28 40.4127 147.211 40.3663C146.713 40.0653 146.238 39.9958 145.798 40.1232C145.219 40.2969 144.872 40.8064 144.745 41.0264C144.652 40.9685 144.559 40.899 144.467 40.8411C143.969 40.5285 143.505 40.4242 143.065 40.5516C142.51 40.7021 142.151 41.1538 142 41.3853C141.919 41.3274 141.838 41.2695 141.769 41.2232C141.282 40.899 140.819 40.7832 140.367 40.899L140.946 45.8898C141.143 45.9361 141.363 45.9593 141.583 45.9245H141.606C142.093 45.8551 142.521 45.5656 142.88 45.1024C143.054 45.2182 143.714 45.6582 144.478 45.5308H144.501C144.976 45.4498 145.393 45.1719 145.729 44.6971C145.937 44.8245 146.586 45.195 147.315 45.0561H147.338C147.825 44.9518 148.242 44.6508 148.566 44.1529C148.739 44.2571 149.434 44.6392 150.198 44.4771H150.222C150.696 44.3497 151.09 44.0371 151.403 43.5507C151.623 43.6781 152.294 43.9676 153.024 43.7823H153.047C153.533 43.6434 153.927 43.296 154.205 42.7749C154.39 42.8791 155.131 43.1802 155.884 42.9486H155.907C156.394 42.7749 156.764 42.4043 157.019 41.8717C157.216 41.9527 157.968 42.2191 158.733 41.918H158.756C159.231 41.698 159.601 41.3159 159.81 40.7369C160.006 40.7948 160.805 41.0032 161.558 40.6095H161.581C162.044 40.3432 162.38 39.8916 162.542 39.3242C162.797 39.3473 163.596 39.4168 164.291 38.8726L164.314 38.8494C164.766 38.4789 165.067 37.9462 165.101 37.2746C165.321 37.2514 166.248 37.0777 166.85 36.0935L166.873 36.0587C167.058 35.7693 167.163 35.4219 167.197 35.0513C167.244 34.7039 167.197 34.3334 167.058 33.986C167.232 33.8355 167.568 33.407 167.742 32.6891H162.716L162.751 32.7354Z" fill="#251627"/>
<path d="M112.692 56.6356C112.09 56.6356 111.604 57.0293 111.419 57.203C111.349 57.1104 111.268 57.0293 111.21 56.9483C110.828 56.5082 110.4 56.2882 109.936 56.2767C109.369 56.2651 108.894 56.6009 108.674 56.7746C108.616 56.6935 108.547 56.624 108.489 56.5546C108.118 56.103 107.701 55.8598 107.238 55.8482C106.636 55.8251 106.138 56.1724 105.941 56.3346C105.872 56.2419 105.802 56.1493 105.745 56.0682C105.386 55.6166 104.98 55.3503 104.529 55.3156C103.961 55.2692 103.463 55.5703 103.243 55.7324C103.185 55.6514 103.128 55.5703 103.081 55.5008C102.745 55.0261 102.352 54.7597 101.9 54.7018C101.31 54.6324 100.788 54.945 100.58 55.0955C100.522 55.0029 100.464 54.8987 100.406 54.8176C100.094 54.3313 99.7232 54.0534 99.2831 53.9723C98.7042 53.8797 98.1715 54.1576 97.9515 54.2966C97.8936 54.1923 97.8473 54.0997 97.801 54.0071C97.5231 53.5091 97.1757 53.1965 96.7472 53.1039C96.1798 52.9765 95.6472 53.2081 95.4156 53.3354C95.3693 53.2312 95.3229 53.1386 95.2882 53.046C95.0682 52.5249 94.7555 52.2006 94.3503 52.0617C93.8523 51.888 93.3197 52.0617 93.0765 52.1659C93.0533 52.0733 93.0302 51.9806 93.007 51.8996C92.8449 51.3669 92.6249 51.0195 92.2659 50.8574C91.8259 50.6258 91.2701 50.7532 91.0501 50.8111C91.0501 50.7069 91.0501 50.6027 91.0501 50.51C91.0501 49.989 90.9574 49.6531 90.7606 49.4679C90.4943 49.2479 90.0427 49.2479 89.8111 49.2363C89.8574 49.1784 89.9037 49.1089 89.9384 49.051C90.2048 48.692 90.3901 48.5762 90.2974 48.4604H85.2719C85.2256 48.7731 85.2024 49.1436 85.2603 49.5258V49.5721C85.4456 50.3827 85.9435 51.008 86.5804 51.2859C86.5456 51.5175 86.5572 52.5596 87.2636 53.3007L87.2867 53.3239C87.7267 53.787 88.2941 53.9839 88.9079 53.9723C88.9658 54.2155 89.2205 55.0261 89.9269 55.4661L89.95 55.4892C90.4248 55.7903 90.9806 55.8366 91.5712 55.6861C91.6406 55.8714 91.9764 56.6588 92.7291 56.9946H92.7523C93.227 57.2262 93.7481 57.2146 94.2924 56.9946C94.4082 57.2262 94.7903 57.8746 95.5082 58.141H95.5314C96.0177 58.3262 96.5388 58.2568 97.0715 57.9904C97.1757 58.1757 97.6041 58.8473 98.3684 59.0789H98.3915C98.8779 59.2179 99.3989 59.1368 99.9084 58.8357C100.013 59.0094 100.476 59.6579 101.24 59.8547H101.263C101.75 59.9705 102.259 59.8547 102.757 59.5421C102.873 59.7158 103.359 60.3411 104.123 60.5032H104.147C104.633 60.5958 105.119 60.4685 105.582 60.1442C105.733 60.3411 106.219 60.8969 106.949 61.0243H106.972C107.458 61.1053 107.956 60.9548 108.431 60.5958C108.558 60.758 109.079 61.3601 109.844 61.4643H109.867C110.353 61.5222 110.828 61.3717 111.28 61.0243C111.395 61.1517 111.673 61.4411 112.079 61.638L112.658 56.6472L112.692 56.6356Z" fill="#251627"/>
<path d="M140.356 56.6357C139.765 56.7862 139.383 57.2726 139.244 57.481C139.152 57.4115 139.059 57.342 138.978 57.2841C138.503 56.9368 138.04 56.821 137.588 56.9252C137.021 57.041 136.639 57.481 136.477 57.7126C136.396 57.6547 136.315 57.5968 136.245 57.5389C135.782 57.1915 135.307 57.0526 134.856 57.1452C134.265 57.2726 133.86 57.7242 133.698 57.9326C133.605 57.8631 133.524 57.7936 133.443 57.7242C132.98 57.3652 132.517 57.2262 132.065 57.2957C131.498 57.3884 131.092 57.8052 130.919 58.0252C130.837 57.9558 130.768 57.8979 130.699 57.84C130.247 57.4694 129.784 57.3073 129.332 57.3768C128.73 57.4694 128.302 57.921 128.139 58.1179C128.058 58.0368 127.966 57.9673 127.896 57.8979C127.456 57.5157 126.993 57.3536 126.541 57.4115C125.939 57.481 125.499 57.921 125.337 58.1179C125.256 58.0368 125.175 57.9673 125.094 57.8979C124.654 57.5157 124.202 57.3305 123.739 57.3768C123.137 57.4347 122.685 57.8747 122.523 58.06C122.442 57.9789 122.361 57.8979 122.292 57.8284C121.863 57.4231 121.412 57.2378 120.96 57.2841C120.381 57.3305 119.941 57.7126 119.744 57.9094C119.675 57.84 119.605 57.7705 119.536 57.701C119.119 57.2957 118.679 57.0989 118.216 57.122C117.614 57.1568 117.15 57.5736 116.965 57.7473C116.884 57.6663 116.815 57.5852 116.745 57.5042C116.34 57.0873 115.9 56.8789 115.437 56.902C114.858 56.9252 114.406 57.2841 114.198 57.4694C114.128 57.3999 114.07 57.3189 114.001 57.2494C113.607 56.821 113.167 56.6125 112.715 56.6125L112.136 61.6033C112.322 61.696 112.519 61.7654 112.75 61.7886H112.773C113.271 61.8349 113.746 61.6612 114.198 61.2791C114.337 61.4412 114.881 62.0086 115.657 62.0665H115.68C116.166 62.1012 116.629 61.9276 117.058 61.5454C117.231 61.7191 117.764 62.2286 118.505 62.2749H118.528C119.026 62.2981 119.489 62.1012 119.918 61.696C120.057 61.8465 120.636 62.3907 121.4 62.4139H121.423C121.91 62.4139 122.361 62.2286 122.778 61.8349C122.952 62.0086 123.519 62.4834 124.249 62.495H124.272C124.77 62.495 125.221 62.2749 125.638 61.8581C125.789 61.997 126.379 62.5181 127.155 62.5181H127.178C127.676 62.5065 128.128 62.2865 128.533 61.8581C128.684 61.997 129.297 62.495 130.062 62.4718H130.085C130.583 62.4602 131.023 62.217 131.416 61.777C131.567 61.916 132.192 62.4023 132.957 62.3676H132.98C133.466 62.3328 133.894 62.1012 134.277 61.6728C134.473 61.8349 135.076 62.2518 135.805 62.1939H135.828C136.315 62.1476 136.766 61.8928 137.137 61.4296C137.299 61.557 137.936 62.0202 138.712 61.9507H138.735C139.221 61.8928 139.638 61.6381 139.997 61.1865C140.136 61.2907 140.472 61.4991 140.912 61.5917L140.333 56.601L140.356 56.6357Z" fill="#251627"/>
<path d="M162.751 48.4489C162.82 48.5879 163.202 48.8773 163.364 49.0395C163.272 49.051 163.179 49.0742 163.098 49.0858C162.878 49.1205 162.716 49.1437 162.565 49.2132C162.45 49.2711 162.345 49.3637 162.276 49.4911C162.137 49.8037 162.172 50.3248 162.206 50.5795C162.114 50.5795 162.021 50.5564 161.94 50.5564C161.431 50.5101 161.037 50.5795 160.771 50.8575C160.388 51.2048 160.307 51.7838 160.261 52.027C160.157 52.0038 160.053 51.9691 159.96 51.9459C159.427 51.8186 158.976 51.8417 158.64 52.0965C158.2 52.386 158.003 52.9186 157.934 53.1849C157.841 53.1502 157.748 53.1155 157.667 53.0807C157.123 52.8839 156.683 52.907 156.289 53.1039C155.78 53.3818 155.537 53.9376 155.456 54.1692C155.351 54.1229 155.247 54.0766 155.155 54.0418C154.633 53.8218 154.159 53.7871 153.753 53.9839C153.221 54.2387 152.943 54.7713 152.839 55.0029C152.734 54.9566 152.642 54.8987 152.549 54.8524C152.028 54.5977 151.553 54.5513 151.136 54.7135C150.581 54.945 150.28 55.4545 150.164 55.6861C150.06 55.6282 149.967 55.5703 149.874 55.524C149.365 55.2461 148.89 55.1766 148.462 55.3272C147.929 55.5124 147.593 55.9988 147.454 56.2304C147.373 56.1841 147.28 56.1262 147.211 56.0798C146.713 55.7788 146.238 55.7093 145.798 55.8367C145.219 56.0104 144.872 56.5199 144.745 56.7399C144.652 56.682 144.559 56.6125 144.467 56.5546C143.969 56.242 143.505 56.1377 143.065 56.2651C142.51 56.4156 142.151 56.8673 142 57.0988C141.919 57.0409 141.838 56.983 141.769 56.9367C141.282 56.6125 140.819 56.4967 140.367 56.6125L140.946 61.6033C141.143 61.6496 141.363 61.6728 141.583 61.638H141.606C142.093 61.5686 142.521 61.2791 142.88 60.8159C143.054 60.9317 143.714 61.3717 144.478 61.2443H144.501C144.976 61.1633 145.393 60.8854 145.729 60.4106C145.937 60.538 146.586 60.9085 147.315 60.7696H147.338C147.825 60.6653 148.242 60.3643 148.566 59.8664C148.739 59.9706 149.434 60.3527 150.198 60.1906H150.222C150.696 60.0632 151.09 59.7506 151.403 59.2642C151.623 59.3916 152.294 59.6811 153.024 59.4958H153.047C153.533 59.3569 153.927 59.0095 154.205 58.4884C154.39 58.5926 155.131 58.8937 155.884 58.6621H155.907C156.394 58.4884 156.764 58.1178 157.019 57.5852C157.216 57.6662 157.968 57.9326 158.733 57.6315H158.756C159.231 57.4115 159.601 57.0294 159.81 56.4504C160.006 56.5083 160.805 56.7167 161.558 56.323H161.581C162.044 56.0567 162.38 55.6051 162.542 55.0377C162.797 55.0608 163.596 55.1303 164.291 54.5861L164.314 54.5629C164.766 54.1924 165.067 53.6481 165.101 52.9881C165.321 52.9649 166.248 52.7912 166.85 51.807L166.873 51.7722C167.058 51.4828 167.163 51.1354 167.197 50.7648C167.244 50.4174 167.197 50.0469 167.058 49.6995C167.232 49.549 167.568 49.1205 167.742 48.4026H162.716L162.751 48.4489Z" fill="#251627"/>
<path d="M35.1208 40.9221C34.5187 40.9221 34.0323 41.3158 33.8471 41.4895C33.7776 41.3969 33.6965 41.3158 33.6386 41.2348C33.2565 40.7947 32.8281 40.5747 32.3649 40.5632C31.7975 40.5516 31.3227 40.8874 31.1027 41.0611C31.0448 40.98 30.9753 40.9105 30.9174 40.8411C30.5469 40.3895 30.13 40.1463 29.6668 40.1347C29.0647 40.1116 28.5668 40.4589 28.3699 40.6211C28.3004 40.5284 28.231 40.4358 28.1731 40.3547C27.8141 39.9031 27.4088 39.6368 26.9572 39.6021C26.3898 39.5557 25.8919 39.8568 25.6719 40.0189C25.614 39.9379 25.5561 39.8568 25.5098 39.7873C25.174 39.3126 24.7803 39.0462 24.3287 38.9883C23.7381 38.9189 23.217 39.2315 23.0086 39.382C22.9507 39.2894 22.8928 39.1852 22.8349 39.1041C22.5222 38.6178 22.1517 38.3399 21.7117 38.2588C21.1327 38.1662 20.6 38.4441 20.38 38.583C20.3221 38.4788 20.2758 38.3862 20.2295 38.2936C19.9516 37.7956 19.6042 37.483 19.1758 37.3904C18.6084 37.263 18.0757 37.4946 17.8441 37.6219C17.7978 37.5177 17.7515 37.4251 17.7167 37.3325C17.4967 36.8114 17.1841 36.4871 16.7788 36.3482C16.2809 36.1745 15.7482 36.3482 15.505 36.4524C15.4819 36.3598 15.4587 36.2671 15.4356 36.1861C15.2734 35.6534 15.0534 35.306 14.6945 35.1439C14.2544 34.9123 13.6986 35.0397 13.4786 35.0976C13.4786 34.9934 13.4786 34.8892 13.4786 34.7965C13.4786 34.2754 13.386 33.9396 13.1891 33.7544C12.9228 33.5344 12.4712 33.5344 12.2396 33.5228C12.2859 33.4649 12.3322 33.3954 12.367 33.3375C12.6333 32.9785 12.8186 32.8627 12.7259 32.7469H7.70041C7.65409 33.0596 7.63093 33.4301 7.68883 33.8123V33.8586C7.8741 34.6692 8.37202 35.2945 9.0089 35.5724C8.97416 35.804 8.98574 36.8461 9.69209 37.5872L9.71525 37.6104C10.1553 38.0735 10.7227 38.2704 11.3364 38.2588C11.3943 38.502 11.649 39.3126 12.3554 39.7526L12.3785 39.7757C12.8533 40.0768 13.4091 40.1231 13.9997 39.9726C14.0692 40.1579 14.405 40.9453 15.1576 41.2811H15.1808C15.6556 41.5127 16.1766 41.5011 16.7209 41.2811C16.8367 41.5127 17.2188 42.1611 17.9367 42.4275H17.9599C18.4462 42.6127 18.9673 42.5433 19.5 42.2769C19.6042 42.4622 20.0326 43.1338 20.7969 43.3654H20.8201C21.3064 43.5044 21.8275 43.4233 22.337 43.1222C22.4412 43.2959 22.9044 43.9444 23.6686 44.1412H23.6918C24.1781 44.257 24.6876 44.1412 25.1855 43.8286C25.3013 44.0023 25.7877 44.6276 26.5519 44.7897H26.5751C27.0614 44.8823 27.5478 44.755 28.011 44.4307C28.1615 44.6276 28.6478 45.1834 29.3773 45.3108H29.4005C29.8868 45.3918 30.3848 45.2413 30.8595 44.8823C30.9869 45.0444 31.508 45.6466 32.2722 45.7508H32.2954C32.7817 45.8087 33.2565 45.6582 33.7081 45.3108C33.8239 45.4382 34.1018 45.7276 34.5071 45.9245L35.0861 40.9337L35.1208 40.9221Z" fill="#251627"/>
<path d="M62.7844 40.9222C62.1938 41.0727 61.8117 41.5591 61.6728 41.7675C61.5801 41.698 61.4875 41.6285 61.4064 41.5706C60.9317 41.2233 60.4685 41.1075 60.0169 41.2117C59.4495 41.3275 59.0674 41.7675 58.9052 41.9991C58.8242 41.9412 58.7431 41.8833 58.6737 41.8254C58.2105 41.478 57.7357 41.3391 57.2841 41.4317C56.6936 41.5591 56.2883 42.0107 56.1262 42.2191C56.0335 42.1496 55.9525 42.0801 55.8714 42.0107C55.4082 41.6517 54.945 41.5127 54.4934 41.5822C53.926 41.6749 53.5208 42.0917 53.3471 42.3117C53.266 42.2423 53.1965 42.1844 53.127 42.1265C52.6754 41.7559 52.2123 41.5938 51.7607 41.6633C51.1585 41.7559 50.7301 42.2075 50.568 42.4044C50.4869 42.3233 50.3943 42.2538 50.3248 42.1844C49.8848 41.8022 49.4216 41.6401 48.97 41.698C48.3678 41.7675 47.9278 42.2075 47.7657 42.4044C47.6846 42.3233 47.6036 42.2538 47.5225 42.1844C47.0825 41.8022 46.6309 41.617 46.1677 41.6633C45.5656 41.7212 45.114 42.1612 44.9519 42.3465C44.8708 42.2654 44.7898 42.1844 44.7203 42.1149C44.2918 41.7096 43.8402 41.5243 43.3886 41.5706C42.8097 41.617 42.3696 41.9991 42.1728 42.1959C42.1033 42.1265 42.0338 42.057 41.9643 41.9875C41.5475 41.5822 41.1075 41.3854 40.6443 41.4085C40.0421 41.4433 39.579 41.8601 39.3937 42.0338C39.3126 41.9528 39.2431 41.8717 39.1737 41.7907C38.7684 41.3738 38.3284 41.1654 37.8652 41.1885C37.2862 41.2117 36.8346 41.5706 36.6262 41.7559C36.5567 41.6864 36.4988 41.6054 36.4293 41.5359C36.0356 41.1075 35.5956 40.899 35.144 40.899L34.565 45.8898C34.7503 45.9825 34.9471 46.0519 35.1787 46.0751H35.2019C35.6998 46.1214 36.1746 45.9477 36.6262 45.5656C36.7651 45.7277 37.3094 46.2951 38.0852 46.353H38.1083C38.5947 46.3877 39.0579 46.2141 39.4863 45.8319C39.66 46.0056 40.1927 46.5151 40.9338 46.5614H40.9569C41.4548 46.5846 41.918 46.3877 42.3465 45.9825C42.4854 46.133 43.0644 46.6772 43.8287 46.7004H43.8518C44.3382 46.7004 44.7898 46.5151 45.2066 46.1214C45.3803 46.2951 45.9477 46.7699 46.6772 46.7815H46.7004C47.1983 46.7815 47.6499 46.5614 48.0668 46.1446C48.2173 46.2835 48.8079 46.8046 49.5837 46.8046H49.6069C50.1048 46.793 50.5564 46.573 50.9617 46.1446C51.1122 46.2835 51.7259 46.7814 52.4902 46.7583H52.5133C53.0112 46.7467 53.4513 46.5035 53.845 46.0635C53.9955 46.2025 54.6208 46.6888 55.3851 46.6541H55.4082C55.8946 46.6193 56.323 46.3877 56.7051 45.9593C56.902 46.1214 57.5041 46.5383 58.2336 46.4804H58.2568C58.7431 46.4341 59.1947 46.1793 59.5653 45.7161C59.7274 45.8435 60.3643 46.3067 61.1401 46.2372H61.1633C61.6496 46.1793 62.0665 45.9246 62.4254 45.473C62.5644 45.5772 62.9002 45.7856 63.3402 45.8782L62.7612 40.8875L62.7844 40.9222Z" fill="#251627"/>
<path d="M85.1677 32.7354C85.2372 32.8744 85.6193 33.1639 85.7814 33.326C85.6888 33.3375 85.5962 33.3607 85.5151 33.3723C85.2951 33.407 85.133 33.4302 84.9824 33.4997C84.8666 33.5576 84.7624 33.6502 84.693 33.7776C84.554 34.0902 84.5887 34.6113 84.6235 34.866C84.5308 34.866 84.4382 34.8429 84.3571 34.8429C83.8476 34.7966 83.4539 34.866 83.1876 35.144C82.8055 35.4913 82.7244 36.0703 82.6781 36.3135C82.5739 36.2903 82.4697 36.2556 82.377 36.2324C81.8444 36.1051 81.3928 36.1282 81.057 36.383C80.617 36.6725 80.4201 37.2051 80.3506 37.4714C80.258 37.4367 80.1654 37.402 80.0843 37.3672C79.5401 37.1704 79.1 37.1935 78.7063 37.3904C78.1968 37.6683 77.9537 38.2241 77.8726 38.4557C77.7684 38.4094 77.6642 38.3631 77.5715 38.3283C77.0504 38.1083 76.5757 38.0736 76.1704 38.2704C75.6377 38.5252 75.3598 39.0578 75.2556 39.2894C75.1514 39.2431 75.0588 39.1852 74.9661 39.1389C74.445 38.8842 73.9703 38.8378 73.5534 39C72.9976 39.2315 72.6965 39.741 72.5807 39.9726C72.4765 39.9147 72.3839 39.8568 72.2912 39.8105C71.7817 39.5326 71.307 39.4631 70.8785 39.6137C70.3459 39.7989 70.0101 40.2853 69.8711 40.5169C69.7901 40.4706 69.6974 40.4127 69.6279 40.3663C69.13 40.0653 68.6553 39.9958 68.2152 40.1232C67.6363 40.2969 67.2889 40.8064 67.1615 41.0264C67.0689 40.9685 66.9762 40.899 66.8836 40.8411C66.3857 40.5285 65.9225 40.4242 65.4825 40.5516C64.9266 40.7021 64.5677 41.1538 64.4171 41.3853C64.3361 41.3274 64.255 41.2695 64.1855 41.2232C63.6992 40.899 63.236 40.7832 62.7844 40.899L63.3634 45.8898C63.5603 45.9361 63.7803 45.9593 64.0003 45.9245H64.0234C64.5098 45.8551 64.9382 45.5656 65.2972 45.1024C65.4709 45.2182 66.1309 45.6582 66.8952 45.5308H66.9183C67.3931 45.4498 67.81 45.1719 68.1458 44.6971C68.3542 44.8245 69.0026 45.195 69.7322 45.0561H69.7553C70.2417 44.9518 70.6585 44.6508 70.9828 44.1529C71.1564 44.2571 71.8512 44.6392 72.6155 44.4771H72.6386C73.1134 44.3497 73.5071 44.0371 73.8197 43.5507C74.0398 43.6781 74.7114 43.9676 75.4409 43.7823H75.464C75.9504 43.6434 76.3441 43.296 76.622 42.7749C76.8073 42.8791 77.5484 43.1802 78.301 42.9486H78.3242C78.8105 42.7749 79.1811 42.4043 79.4358 41.8717C79.6327 41.9527 80.3854 42.2191 81.1496 41.918H81.1728C81.6475 41.698 82.0181 41.3159 82.2265 40.7369C82.4234 40.7948 83.2223 41.0032 83.975 40.6095H83.9982C84.4614 40.3432 84.7972 39.8916 84.9593 39.3242C85.214 39.3473 86.013 39.4168 86.7078 38.8726L86.731 38.8494C87.1826 38.4789 87.4836 37.9462 87.5184 37.2746C87.7384 37.2514 88.6647 37.0777 89.2669 36.0935L89.29 36.0587C89.4753 35.7693 89.5795 35.4219 89.6143 35.0513C89.6606 34.7039 89.6143 34.3334 89.4753 33.986C89.649 33.8355 89.9848 33.407 90.1585 32.6891H85.133L85.1677 32.7354Z" fill="#251627"/>
<path d="M35.1208 56.6356C34.5187 56.6356 34.0323 57.0293 33.8471 57.203C33.7776 57.1104 33.6965 57.0293 33.6386 56.9483C33.2565 56.5082 32.8281 56.2882 32.3649 56.2767C31.7975 56.2651 31.3227 56.6009 31.1027 56.7746C31.0448 56.6935 30.9753 56.624 30.9174 56.5546C30.5469 56.103 30.13 55.8598 29.6668 55.8482C29.0647 55.8251 28.5668 56.1724 28.3699 56.3346C28.3004 56.2419 28.231 56.1493 28.1731 56.0682C27.8141 55.6166 27.4088 55.3503 26.9572 55.3156C26.3898 55.2692 25.8919 55.5703 25.6719 55.7324C25.614 55.6514 25.5561 55.5703 25.5098 55.5008C25.174 55.0261 24.7803 54.7597 24.3287 54.7018C23.7381 54.6324 23.217 54.945 23.0086 55.0955C22.9507 55.0029 22.8928 54.8987 22.8349 54.8176C22.5222 54.3313 22.1517 54.0534 21.7117 53.9723C21.1327 53.8797 20.6 54.1576 20.38 54.2966C20.3221 54.1923 20.2758 54.0997 20.2295 54.0071C19.9516 53.5091 19.6042 53.1965 19.1758 53.1039C18.6084 52.9765 18.0757 53.2081 17.8441 53.3354C17.7978 53.2312 17.7515 53.1386 17.7167 53.046C17.4967 52.5249 17.1841 52.2006 16.7788 52.0617C16.2809 51.888 15.7482 52.0617 15.505 52.1659C15.4819 52.0733 15.4587 51.9806 15.4356 51.8996C15.2734 51.3669 15.0534 51.0195 14.6945 50.8574C14.2544 50.6258 13.6986 50.7532 13.4786 50.8111C13.4786 50.7069 13.4786 50.6027 13.4786 50.51C13.4786 49.989 13.386 49.6531 13.1891 49.4679C12.9228 49.2479 12.4712 49.2479 12.2396 49.2363C12.2859 49.1784 12.3322 49.1089 12.367 49.051C12.6333 48.692 12.8186 48.5762 12.7259 48.4604H7.70041C7.65409 48.7731 7.63093 49.1436 7.68883 49.5258V49.5721C7.8741 50.3827 8.37202 51.008 9.0089 51.2859C8.97416 51.5175 8.98574 52.5596 9.69209 53.3007L9.71525 53.3239C10.1553 53.787 10.7227 53.9839 11.3364 53.9723C11.3943 54.2155 11.649 55.0261 12.3554 55.4661L12.3785 55.4892C12.8533 55.7903 13.4091 55.8366 13.9997 55.6861C14.0692 55.8714 14.405 56.6588 15.1576 56.9946H15.1808C15.6556 57.2262 16.1766 57.2146 16.7209 56.9946C16.8367 57.2262 17.2188 57.8746 17.9367 58.141H17.9599C18.4462 58.3262 18.9673 58.2568 19.5 57.9904C19.6042 58.1757 20.0326 58.8473 20.7969 59.0789H20.8201C21.3064 59.2179 21.8275 59.1368 22.337 58.8357C22.4412 59.0094 22.9044 59.6579 23.6686 59.8547H23.6918C24.1781 59.9705 24.6876 59.8547 25.1855 59.5421C25.3013 59.7158 25.7877 60.3411 26.5519 60.5032H26.5751C27.0614 60.5958 27.5478 60.4685 28.011 60.1442C28.1615 60.3411 28.6478 60.8969 29.3773 61.0243H29.4005C29.8868 61.1053 30.3848 60.9548 30.8595 60.5958C30.9869 60.758 31.508 61.3601 32.2722 61.4643H32.2954C32.7817 61.5222 33.2565 61.3717 33.7081 61.0243C33.8239 61.1517 34.1018 61.4411 34.5071 61.638L35.0861 56.6472L35.1208 56.6356Z" fill="#251627"/>
<path d="M62.7844 56.6357C62.1938 56.7862 61.8117 57.2726 61.6728 57.481C61.5801 57.4115 61.4875 57.342 61.4064 57.2841C60.9317 56.9368 60.4685 56.821 60.0169 56.9252C59.4495 57.041 59.0674 57.481 58.9052 57.7126C58.8242 57.6547 58.7431 57.5968 58.6737 57.5389C58.2105 57.1915 57.7357 57.0526 57.2841 57.1452C56.6936 57.2726 56.2883 57.7242 56.1262 57.9326C56.0335 57.8631 55.9525 57.7936 55.8714 57.7242C55.4082 57.3652 54.945 57.2262 54.4934 57.2957C53.926 57.3884 53.5208 57.8052 53.3471 58.0252C53.266 57.9558 53.1965 57.8979 53.127 57.84C52.6754 57.4694 52.2123 57.3073 51.7607 57.3768C51.1585 57.4694 50.7301 57.921 50.568 58.1179C50.4869 58.0368 50.3943 57.9673 50.3248 57.8979C49.8848 57.5157 49.4216 57.3536 48.97 57.4115C48.3678 57.481 47.9278 57.921 47.7657 58.1179C47.6846 58.0368 47.6036 57.9673 47.5225 57.8979C47.0825 57.5157 46.6309 57.3305 46.1677 57.3768C45.5656 57.4347 45.114 57.8747 44.9519 58.06C44.8708 57.9789 44.7898 57.8979 44.7203 57.8284C44.2918 57.4231 43.8402 57.2378 43.3886 57.2841C42.8097 57.3305 42.3696 57.7126 42.1728 57.9094C42.1033 57.84 42.0338 57.7705 41.9643 57.701C41.5475 57.2957 41.1075 57.0989 40.6443 57.122C40.0421 57.1568 39.579 57.5736 39.3937 57.7473C39.3126 57.6663 39.2431 57.5852 39.1737 57.5042C38.7684 57.0873 38.3284 56.8789 37.8652 56.902C37.2862 56.9252 36.8346 57.2841 36.6262 57.4694C36.5567 57.3999 36.4988 57.3189 36.4293 57.2494C36.0356 56.821 35.5956 56.6125 35.144 56.6125L34.565 61.6033C34.7503 61.696 34.9471 61.7654 35.1787 61.7886H35.2019C35.6998 61.8349 36.1746 61.6612 36.6262 61.2791C36.7651 61.4412 37.3094 62.0086 38.0852 62.0665H38.1083C38.5947 62.1012 39.0579 61.9276 39.4863 61.5454C39.66 61.7191 40.1927 62.2286 40.9338 62.2749H40.9569C41.4548 62.2981 41.918 62.1012 42.3465 61.696C42.4854 61.8465 43.0644 62.3907 43.8287 62.4139H43.8518C44.3382 62.4139 44.7898 62.2286 45.2066 61.8349C45.3803 62.0086 45.9477 62.4834 46.6772 62.495H46.7004C47.1983 62.495 47.6499 62.2749 48.0668 61.8581C48.2173 61.997 48.8079 62.5181 49.5837 62.5181H49.6069C50.1048 62.5065 50.5564 62.2865 50.9617 61.8581C51.1122 61.997 51.7259 62.495 52.4902 62.4718H52.5133C53.0112 62.4602 53.4513 62.217 53.845 61.777C53.9955 61.916 54.6208 62.4023 55.3851 62.3676H55.4082C55.8946 62.3328 56.323 62.1012 56.7051 61.6728C56.902 61.8349 57.5041 62.2518 58.2336 62.1939H58.2568C58.7431 62.1476 59.1947 61.8928 59.5653 61.4296C59.7274 61.557 60.3643 62.0202 61.1401 61.9507H61.1633C61.6496 61.8928 62.0665 61.6381 62.4254 61.1865C62.5644 61.2907 62.9002 61.4991 63.3402 61.5917L62.7612 56.601L62.7844 56.6357Z" fill="#251627"/>
<path d="M85.1677 48.4489C85.2372 48.5879 85.6193 48.8773 85.7814 49.0395C85.6888 49.051 85.5962 49.0742 85.5151 49.0858C85.2951 49.1205 85.133 49.1437 84.9824 49.2132C84.8666 49.2711 84.7624 49.3637 84.693 49.4911C84.554 49.8037 84.5887 50.3248 84.6235 50.5795C84.5308 50.5795 84.4382 50.5564 84.3571 50.5564C83.8476 50.5101 83.4539 50.5795 83.1876 50.8575C82.8055 51.2048 82.7244 51.7838 82.6781 52.027C82.5739 52.0038 82.4697 51.9691 82.377 51.9459C81.8444 51.8186 81.3928 51.8417 81.057 52.0965C80.617 52.386 80.4201 52.9186 80.3506 53.1849C80.258 53.1502 80.1654 53.1155 80.0843 53.0807C79.5401 52.8839 79.1 52.907 78.7063 53.1039C78.1968 53.3818 77.9537 53.9376 77.8726 54.1692C77.7684 54.1229 77.6642 54.0766 77.5715 54.0418C77.0504 53.8218 76.5757 53.7871 76.1704 53.9839C75.6377 54.2387 75.3598 54.7713 75.2556 55.0029C75.1514 54.9566 75.0588 54.8987 74.9661 54.8524C74.445 54.5977 73.9703 54.5513 73.5534 54.7135C72.9976 54.945 72.6965 55.4545 72.5807 55.6861C72.4765 55.6282 72.3839 55.5703 72.2912 55.524C71.7817 55.2461 71.307 55.1766 70.8785 55.3272C70.3459 55.5124 70.0101 55.9988 69.8711 56.2304C69.7901 56.1841 69.6974 56.1262 69.6279 56.0798C69.13 55.7788 68.6553 55.7093 68.2152 55.8367C67.6363 56.0104 67.2889 56.5199 67.1615 56.7399C67.0689 56.682 66.9762 56.6125 66.8836 56.5546C66.3857 56.242 65.9225 56.1377 65.4825 56.2651C64.9266 56.4156 64.5677 56.8673 64.4171 57.0988C64.3361 57.0409 64.255 56.983 64.1855 56.9367C63.6992 56.6125 63.236 56.4967 62.7844 56.6125L63.3634 61.6033C63.5603 61.6496 63.7803 61.6728 64.0003 61.638H64.0234C64.5098 61.5686 64.9382 61.2791 65.2972 60.8159C65.4709 60.9317 66.1309 61.3717 66.8952 61.2443H66.9183C67.3931 61.1633 67.81 60.8854 68.1458 60.4106C68.3542 60.538 69.0026 60.9085 69.7322 60.7696H69.7553C70.2417 60.6653 70.6585 60.3643 70.9828 59.8664C71.1564 59.9706 71.8512 60.3527 72.6155 60.1906H72.6386C73.1134 60.0632 73.5071 59.7506 73.8197 59.2642C74.0398 59.3916 74.7114 59.6811 75.4409 59.4958H75.464C75.9504 59.3569 76.3441 59.0095 76.622 58.4884C76.8073 58.5926 77.5484 58.8937 78.301 58.6621H78.3242C78.8105 58.4884 79.1811 58.1178 79.4358 57.5852C79.6327 57.6662 80.3854 57.9326 81.1496 57.6315H81.1728C81.6475 57.4115 82.0181 57.0294 82.2265 56.4504C82.4234 56.5083 83.2223 56.7167 83.975 56.323H83.9982C84.4614 56.0567 84.7972 55.6051 84.9593 55.0377C85.214 55.0608 86.013 55.1303 86.7078 54.5861L86.731 54.5629C87.1826 54.1924 87.4836 53.6481 87.5184 52.9881C87.7384 52.9649 88.6647 52.7912 89.2669 51.807L89.29 51.7722C89.4753 51.4828 89.5795 51.1354 89.6143 50.7648C89.6606 50.4174 89.6143 50.0469 89.4753 49.6995C89.649 49.549 89.9848 49.1205 90.1585 48.4026H85.133L85.1677 48.4489Z" fill="#251627"/>
<path d="M1.89906 29.4584C1.89906 29.4584 1.89906 29.4584 1.89906 29.4816C1.95696 29.6205 2.01486 29.7479 2.07276 29.8753C2.4433 30.7669 3.30019 33.0018 3.97181 35.7924C3.87917 35.9082 3.78653 36.0125 3.6939 36.1398C2.13065 38.4557 3.10334 41.6749 3.84443 43.435C4.37709 44.6971 4.74764 46.0519 4.94449 47.4647C5.37293 50.6027 5.69716 55.663 3.91391 58.7316H3.92549C1.81801 61.0591 1.8759 64.0582 1.8759 64.0582V66.7099C1.8759 68.2731 2.88333 69.5469 4.13392 69.5469H4.87501V71.2607C4.87501 73.0208 3.74021 74.445 2.33909 74.445H2.24645C0.891642 74.445 -0.173678 75.9388 0.0115948 77.6873C0.162129 79.0884 1.18113 80.1306 2.31593 80.119C3.70548 80.0959 4.84027 81.497 4.87501 83.2339H3.30019C1.72537 83.2339 0.451618 84.8319 0.451618 86.812V90.0427C0.451618 90.4133 0.497936 90.7838 0.578993 91.1196L4.42341 122.5C4.66658 124.527 3.60126 126.449 1.9917 126.831L1.4822 126.958V136.153H18.7936V126.958L18.2957 126.843C16.6862 126.46 15.6093 124.538 15.864 122.5L19.7084 91.1196C19.7895 90.7838 19.8358 90.4133 19.8358 90.0427V86.812C19.8358 84.8319 18.5621 83.2339 16.9872 83.2339H15.4124C15.4472 81.497 16.582 80.1074 17.9715 80.119C19.0947 80.1306 20.1137 79.1 20.2758 77.6873C20.4727 75.9388 19.3958 74.445 18.041 74.445H17.9483C16.5472 74.445 15.4124 73.0208 15.4124 71.2607V69.5469H16.1535C17.3925 69.5469 18.4115 68.2731 18.4115 66.7099V64.0582C18.4115 64.0582 18.4694 61.0591 16.3619 58.7431H16.3735C14.5903 55.6746 14.9145 50.6027 15.3429 47.4647C15.5398 46.0519 15.9103 44.6971 16.443 43.435C17.1841 41.6749 18.1684 38.4557 16.5935 36.1398C16.5125 36.0125 16.4083 35.9082 16.3156 35.7924C16.9872 33.0018 17.8557 30.7669 18.2147 29.8753C18.2726 29.7479 18.3305 29.609 18.3884 29.4816C18.3884 29.47 18.3884 29.4584 18.3884 29.4584C19.2916 27.212 19.8242 24.5603 19.8242 21.7233C19.8242 13.5597 15.4819 6.94775 10.1321 6.94775C4.78237 6.94775 0.463198 13.5597 0.463198 21.7233C0.463198 24.5603 0.984278 27.2004 1.89906 29.4584Z" fill="#251929"/>
<path d="M95.5545 31.6817C95.7051 30.7785 96.4462 30.1185 97.3146 30.13L100.661 30.1648C100.8 30.1648 100.951 30.1648 101.09 30.1185C103.73 29.3311 105.802 24.4676 103.116 23.9118C102.444 23.7729 101.726 23.7381 101.043 23.796C100.592 23.8308 100.267 23.3792 100.406 22.916C100.777 21.7001 100.314 20.2411 99.0052 19.6274C97.9515 19.1295 96.7125 19.4074 95.9482 20.3106L94.3039 22.2559C93.7018 22.9623 92.706 23.1012 91.9533 22.5802H91.9301C91.4901 22.2675 91.2122 21.7696 91.1659 21.2138L90.6448 14.625C90.5869 13.8723 90.9574 13.166 91.5827 12.807C92.1617 12.4712 92.5091 12.0659 92.5091 11.6259C92.5091 11.1164 92.0575 10.6532 91.328 10.3058C90.5869 9.94686 90.1584 9.13629 90.2858 8.29099C90.3669 7.67727 90.4132 7.01723 90.4132 6.33404C90.4132 2.83701 89.2089 0.0115967 87.7267 0.0115967C86.2446 0.0115967 85.0403 2.84859 85.0403 6.33404C85.0403 7.01723 85.0866 7.67727 85.1677 8.29099C85.2835 9.13629 84.855 9.95844 84.1255 10.3058C83.3844 10.6648 82.9444 11.128 82.9444 11.6259C82.9444 12.0659 83.2918 12.4828 83.8707 12.807C84.496 13.166 84.8666 13.8723 84.8087 14.625L84.2876 21.2138C84.2413 21.758 83.9634 22.2559 83.5234 22.5686H83.5002C82.7475 23.1012 81.7517 22.9623 81.1495 22.2559L79.5053 20.3106C78.741 19.4074 77.502 19.1295 76.4482 19.6274C75.1397 20.2411 74.6766 21.7001 75.0471 22.916C75.1861 23.3676 74.8618 23.8308 74.4102 23.796C73.727 23.7381 72.9975 23.7844 72.3375 23.9118C69.651 24.4561 71.7238 29.3311 74.3639 30.1185C74.5029 30.1648 74.6418 30.1764 74.7924 30.1648L78.1389 30.13C79.0073 30.13 79.7484 30.7785 79.899 31.6817C80.2116 33.546 81.0685 35.2135 82.2612 36.4641C83.1181 37.842 86.6151 41.2117 81.4043 49.5258C80.1305 51.5638 79.4126 53.9261 79.4126 56.3346V56.3578C79.2389 58.4189 79.9221 60.5611 80.5011 61.9275C81.1148 63.375 81.5433 64.9266 81.7633 66.5362C82.2612 70.1143 82.6201 75.9156 80.5821 79.4127H80.5937C78.1852 82.076 78.2547 85.5035 78.2547 85.5035V88.5258C78.2547 89.9616 78.9957 91.1775 80.0147 91.6059C80.6632 91.8839 81.1264 92.4744 81.4159 93.1229C81.6243 93.5976 81.6938 94.1303 81.5896 94.6398C81.2653 96.2146 80.1305 97.3726 78.7873 97.3726H78.6715C77.1314 97.3726 75.904 99.0863 76.124 101.078C76.2282 102.004 77.9073 103.973 79.2968 105.467C80.1074 106.335 79.9684 107.655 79.0652 108.431C77.7683 109.543 76.6219 111.372 76.6219 112.82L73.8776 125.071L73.8428 125.418V136.129H101.576V125.418L101.541 125.071L98.7968 112.82C98.7968 111.372 97.6504 109.543 96.3535 108.431C95.4619 107.655 95.3229 106.335 96.1219 105.467C97.5231 103.973 99.2021 102.004 99.2947 101.078C99.5147 99.0863 98.2873 97.3726 96.7472 97.3726H96.6314C95.2766 97.3726 94.1418 96.2146 93.8292 94.6398C93.725 94.1303 93.7944 93.5976 94.0029 93.1229C94.2808 92.4744 94.744 91.8839 95.404 91.6059C96.423 91.1775 97.1641 89.9616 97.1641 88.5258V85.5035C97.1641 85.5035 97.2336 82.076 94.825 79.4242H94.8366C92.7986 75.9041 93.1691 70.1143 93.6555 66.5362C93.8755 64.9266 94.3039 63.375 94.9176 61.9275C95.4966 60.5611 96.1798 58.4189 96.0061 56.3578C96.0061 53.9376 95.2998 51.5638 94.0144 49.5142C88.8152 41.2117 92.3122 37.842 93.1691 36.4756C94.3734 35.2251 95.2187 33.5692 95.5314 31.6933L95.5545 31.6817Z" fill="#251929"/>
<path d="M175.5 79.32C175.419 78.6716 174.967 77.1778 174.516 76.7841C173.913 76.263 172.952 76.5178 172.547 76.0083C172.478 75.9156 171.748 74.0282 171.667 73.7387C171.32 72.5807 172.258 72.986 172.848 71.9902C174.11 69.8711 173.612 66.3741 170.799 66.2235V65.6446C171.945 65.2045 172.107 63.1897 172.466 62.8076C173.45 61.777 175.129 62.7381 175.5 59.3916C176.264 52.5133 174.168 44.7434 174.296 37.9926C174.4 37.7957 174.492 37.622 174.597 37.4136C174.689 37.0893 174.886 36.7535 175.199 36.2325C175.372 35.943 175.477 35.5956 175.477 35.225C175.477 34.4376 175.002 33.7544 174.33 33.4534C173.971 33.2912 173.566 33.0365 173.52 32.6544C173.473 32.2722 173.578 31.9712 174.052 31.6933C175.511 30.8595 176.994 29.7132 178.267 27.8257C179.402 26.1351 182.957 14.9955 175.014 18.8979C173.925 19.4305 172.756 18.4115 173.103 17.2536C173.485 15.9914 173.774 14.5903 173.948 13.1081C174.157 11.2901 173.554 9.49524 172.35 8.11728C170.532 6.02137 169.316 3.38123 168.517 1.019C168.286 0.335807 167.695 0 167.105 0C166.514 0 165.912 0.335807 165.692 1.019C164.893 3.39281 163.677 6.03295 161.859 8.11728C160.655 9.49524 160.053 11.3017 160.261 13.1081C160.435 14.5903 160.724 15.9914 161.106 17.2536C161.454 18.4115 160.284 19.4305 159.196 18.8979C151.252 14.9955 154.807 26.1351 155.942 27.8257C157.204 29.7132 158.686 30.8595 160.157 31.6933C160.632 31.9828 160.736 32.2722 160.69 32.666C160.643 33.0481 160.238 33.3028 159.879 33.4649C159.207 33.7776 158.733 34.4492 158.733 35.2366C158.733 35.6072 158.837 35.943 159.011 36.244C159.323 36.7651 159.508 37.0893 159.613 37.4252C159.717 37.622 159.81 37.8073 159.914 38.0041C160.041 44.755 157.945 52.5249 158.709 59.4032C159.08 62.7497 160.771 61.7886 161.743 62.8191C162.102 63.2013 162.264 65.2045 163.411 65.6561V66.2351C160.609 66.3856 160.111 69.8943 161.361 72.0017C161.952 72.9976 162.878 72.5923 162.542 73.7502C162.461 74.0397 161.732 75.9156 161.662 76.0198C161.269 76.5293 160.307 76.2746 159.694 76.7957C159.242 77.1894 158.791 78.6716 158.709 79.3316C157.054 93.2155 161.952 107.065 158.628 121.863C157.714 125.939 155.212 126.275 156.023 132.088C156.347 134.392 156.949 135.655 159.3 135.851C161.095 136.002 164.094 136.118 167.139 136.141C170.185 136.118 173.184 136.002 174.979 135.851C177.329 135.655 177.932 134.392 178.256 132.088C179.055 126.275 176.565 125.939 175.65 121.863C172.327 107.053 177.214 93.2155 175.569 79.3316L175.5 79.32Z" fill="#251929"/>
</g>
<defs>
<clipPath id="clip0_54829_548">
<rect width="180.039" height="136.129" fill="white"/>
</clipPath>
</defs>
</svg>
