<svg width="461" height="75" viewBox="0 0 461 75" fill="none" xmlns="http://www.w3.org/2000/svg">
<g clip-path="url(#clip0_54715_969)">
<path d="M460.09 64.86V45H0V62.53C0 69.94 4.14999 74.05 9.26999 74.05H450.82C455.94 74.05 460.09 69.93 460.09 64.86ZM446.15 56.82C446.15 57.07 446.36 57.28 446.61 57.28H448.16C449.76 57.28 451.06 58.58 451.06 60.18V60.35C451.06 61.95 449.76 63.25 448.16 63.25H446.61C446.36 63.25 446.15 63.46 446.15 63.71C446.15 64.63 445.18 65.23 444.36 64.82L438.16 61.72C437.89 61.58 437.58 61.51 437.27 61.51H435.37C435.3 61.51 435.22 61.51 435.15 61.49C435.27 61.1 435.34 60.69 435.34 60.27C435.34 59.85 435.27 59.44 435.15 59.05C435.22 59.04 435.29 59.03 435.37 59.03H437.27C437.58 59.03 437.88 58.96 438.16 58.82L444.36 55.72C445.18 55.31 446.15 55.91 446.15 56.83V56.82ZM13.94 63.72C13.94 63.47 13.73 63.26 13.48 63.26H11.93C10.33 63.26 9.03 61.96 9.03 60.36V60.19C9.03 58.59 10.33 57.29 11.93 57.29H13.48C13.73 57.29 13.94 57.08 13.94 56.83C13.94 55.91 14.91 55.31 15.73 55.72L21.93 58.82C22.2 58.96 22.51 59.03 22.82 59.03H24.72C24.79 59.03 24.87 59.03 24.94 59.05C24.82 59.44 24.75 59.85 24.75 60.27C24.75 60.69 24.82 61.1 24.94 61.49C24.87 61.5 24.8 61.51 24.72 61.51H22.82C22.51 61.51 22.21 61.58 21.93 61.72L15.73 64.82C14.91 65.23 13.94 64.63 13.94 63.71V63.72ZM31.55 65.62C31.33 65.19 31.38 64.67 31.67 64.29C31.91 63.97 31.8 63.52 31.44 63.35L28.95 62.17C28.22 61.82 27.75 61.09 27.75 60.28C27.75 59.47 28.22 58.73 28.95 58.39L31.44 57.21C31.8 57.04 31.91 56.58 31.67 56.27C31.38 55.89 31.33 55.37 31.55 54.94C32.09 53.88 33.39 53.45 34.46 53.99L39.68 56.61C41.07 57.31 41.95 58.74 41.95 60.3C41.95 61.86 41.07 63.29 39.68 63.99L34.46 66.61C33.39 67.15 32.09 66.72 31.55 65.66V65.62ZM76.65 61.72L70.45 64.82C69.63 65.23 68.66 64.63 68.66 63.71C68.66 63.46 68.45 63.25 68.2 63.25H66.65C65.05 63.25 63.75 61.95 63.75 60.35V60.18C63.75 58.58 65.05 57.28 66.65 57.28H68.2C68.45 57.28 68.66 57.07 68.66 56.82C68.66 55.9 69.63 55.3 70.45 55.71L76.65 58.81C76.92 58.95 77.23 59.02 77.54 59.02H79.44C79.51 59.02 79.59 59.02 79.66 59.04C79.54 59.43 79.47 59.84 79.47 60.26C79.47 60.68 79.54 61.09 79.66 61.48C79.59 61.49 79.52 61.5 79.44 61.5H77.54C77.23 61.5 76.93 61.57 76.65 61.71V61.72ZM55.76 56.82C55.76 57.07 55.97 57.28 56.22 57.28H57.77C59.37 57.28 60.67 58.58 60.67 60.18V60.35C60.67 61.95 59.37 63.25 57.77 63.25H56.22C55.97 63.25 55.76 63.46 55.76 63.71C55.76 64.63 54.79 65.23 53.97 64.82L47.77 61.72C47.5 61.58 47.19 61.51 46.88 61.51H44.98C44.91 61.51 44.83 61.51 44.76 61.49C44.88 61.1 44.95 60.69 44.95 60.27C44.95 59.85 44.88 59.44 44.76 59.05C44.83 59.04 44.9 59.03 44.98 59.03H46.88C47.19 59.03 47.49 58.96 47.77 58.82L53.97 55.72C54.79 55.31 55.76 55.91 55.76 56.83V56.82ZM89.96 66.57L84.74 63.95C83.35 63.25 82.47 61.82 82.47 60.26C82.47 58.7 83.35 57.27 84.74 56.57L89.96 53.95C91.03 53.41 92.33 53.84 92.87 54.9C93.09 55.33 93.04 55.85 92.75 56.23C92.51 56.55 92.62 57 92.98 57.17L95.47 58.35C96.2 58.7 96.67 59.43 96.67 60.24C96.67 61.05 96.2 61.79 95.47 62.13L92.98 63.31C92.62 63.48 92.51 63.94 92.75 64.25C93.04 64.63 93.09 65.15 92.87 65.58C92.33 66.64 91.03 67.07 89.96 66.53V66.57ZM133.82 61.72L127.62 64.82C126.8 65.23 125.83 64.63 125.83 63.71C125.83 63.46 125.62 63.25 125.37 63.25H123.82C122.22 63.25 120.92 61.95 120.92 60.35V60.18C120.92 58.58 122.22 57.28 123.82 57.28H125.37C125.62 57.28 125.83 57.07 125.83 56.82C125.83 55.9 126.8 55.3 127.62 55.71L133.82 58.81C134.09 58.95 134.4 59.02 134.71 59.02H136.61C136.68 59.02 136.76 59.02 136.83 59.04C136.71 59.43 136.64 59.84 136.64 60.26C136.64 60.68 136.71 61.09 136.83 61.48C136.76 61.49 136.69 61.5 136.61 61.5H134.71C134.4 61.5 134.1 61.57 133.82 61.71V61.72ZM110.48 56.82C110.48 57.07 110.69 57.28 110.94 57.28H112.49C114.09 57.28 115.39 58.58 115.39 60.18V60.35C115.39 61.95 114.09 63.25 112.49 63.25H110.94C110.69 63.25 110.48 63.46 110.48 63.71C110.48 64.63 109.51 65.23 108.69 64.82L102.49 61.72C102.22 61.58 101.91 61.51 101.6 61.51H99.7C99.63 61.51 99.55 61.51 99.48 61.49C99.6 61.1 99.67 60.69 99.67 60.27C99.67 59.85 99.6 59.44 99.48 59.05C99.55 59.04 99.62 59.03 99.7 59.03H101.6C101.91 59.03 102.21 58.96 102.49 58.82L108.69 55.72C109.51 55.31 110.48 55.91 110.48 56.83V56.82ZM143.44 65.62C143.22 65.19 143.27 64.67 143.56 64.29C143.8 63.97 143.69 63.52 143.33 63.35L140.84 62.17C140.11 61.82 139.64 61.09 139.64 60.28C139.64 59.47 140.11 58.73 140.84 58.39L143.33 57.21C143.69 57.04 143.8 56.58 143.56 56.27C143.27 55.89 143.22 55.37 143.44 54.94C143.98 53.88 145.28 53.45 146.35 53.99L151.57 56.61C152.96 57.31 153.84 58.74 153.84 60.3C153.84 61.86 152.96 63.29 151.57 63.99L146.35 66.61C145.28 67.15 143.98 66.72 143.44 65.66V65.62ZM188.54 61.72L182.34 64.82C181.52 65.23 180.55 64.63 180.55 63.71C180.55 63.46 180.34 63.25 180.09 63.25H178.54C176.94 63.25 175.64 61.95 175.64 60.35V60.18C175.64 58.58 176.94 57.28 178.54 57.28H180.09C180.34 57.28 180.55 57.07 180.55 56.82C180.55 55.9 181.52 55.3 182.34 55.71L188.54 58.81C188.81 58.95 189.12 59.02 189.43 59.02H191.33C191.4 59.02 191.48 59.02 191.55 59.04C191.43 59.43 191.36 59.84 191.36 60.26C191.36 60.68 191.43 61.09 191.55 61.48C191.48 61.49 191.41 61.5 191.33 61.5H189.43C189.12 61.5 188.82 61.57 188.54 61.71V61.72ZM167.65 56.82C167.65 57.07 167.86 57.28 168.11 57.28H169.66C171.26 57.28 172.56 58.58 172.56 60.18V60.35C172.56 61.95 171.26 63.25 169.66 63.25H168.11C167.86 63.25 167.65 63.46 167.65 63.71C167.65 64.63 166.68 65.23 165.86 64.82L159.66 61.72C159.39 61.58 159.08 61.51 158.77 61.51H156.87C156.8 61.51 156.72 61.51 156.65 61.49C156.77 61.1 156.84 60.69 156.84 60.27C156.84 59.85 156.77 59.44 156.65 59.05C156.72 59.04 156.79 59.03 156.87 59.03H158.77C159.08 59.03 159.38 58.96 159.66 58.82L165.86 55.72C166.68 55.31 167.65 55.91 167.65 56.83V56.82ZM201.85 66.57L196.63 63.95C195.24 63.25 194.36 61.82 194.36 60.26C194.36 58.7 195.24 57.27 196.63 56.57L201.85 53.95C202.92 53.41 204.22 53.84 204.76 54.9C204.98 55.33 204.93 55.85 204.64 56.23C204.4 56.55 204.51 57 204.87 57.17L207.36 58.35C208.09 58.7 208.56 59.43 208.56 60.24C208.56 61.05 208.09 61.79 207.36 62.13L204.87 63.31C204.51 63.48 204.4 63.94 204.64 64.25C204.93 64.63 204.98 65.15 204.76 65.58C204.22 66.64 202.92 67.07 201.85 66.53V66.57ZM245.71 61.72L239.51 64.82C238.69 65.23 237.72 64.63 237.72 63.71C237.72 63.46 237.51 63.25 237.26 63.25H235.71C234.11 63.25 232.81 61.95 232.81 60.35V60.18C232.81 58.58 234.11 57.28 235.71 57.28H237.26C237.51 57.28 237.72 57.07 237.72 56.82C237.72 55.9 238.69 55.3 239.51 55.71L245.71 58.81C245.98 58.95 246.29 59.02 246.6 59.02H248.5C248.57 59.02 248.65 59.02 248.72 59.04C248.6 59.43 248.53 59.84 248.53 60.26C248.53 60.68 248.6 61.09 248.72 61.48C248.65 61.49 248.58 61.5 248.5 61.5H246.6C246.29 61.5 245.99 61.57 245.71 61.71V61.72ZM222.37 56.82C222.37 57.07 222.58 57.28 222.83 57.28H224.38C225.98 57.28 227.28 58.58 227.28 60.18V60.35C227.28 61.95 225.98 63.25 224.38 63.25H222.83C222.58 63.25 222.37 63.46 222.37 63.71C222.37 64.63 221.4 65.23 220.58 64.82L214.38 61.72C214.11 61.58 213.8 61.51 213.49 61.51H211.59C211.52 61.51 211.44 61.51 211.37 61.49C211.49 61.1 211.56 60.69 211.56 60.27C211.56 59.85 211.49 59.44 211.37 59.05C211.44 59.04 211.51 59.03 211.59 59.03H213.49C213.8 59.03 214.1 58.96 214.38 58.82L220.58 55.72C221.4 55.31 222.37 55.91 222.37 56.83V56.82ZM255.33 65.62C255.11 65.19 255.16 64.67 255.45 64.29C255.69 63.97 255.58 63.52 255.22 63.35L252.73 62.17C252 61.82 251.53 61.09 251.53 60.28C251.53 59.47 252 58.73 252.73 58.39L255.22 57.21C255.58 57.04 255.69 56.58 255.45 56.27C255.16 55.89 255.11 55.37 255.33 54.94C255.87 53.88 257.17 53.45 258.24 53.99L263.46 56.61C264.85 57.31 265.73 58.74 265.73 60.3C265.73 61.86 264.85 63.29 263.46 63.99L258.24 66.61C257.17 67.15 255.87 66.72 255.33 65.66V65.62ZM300.44 61.72L294.24 64.82C293.42 65.23 292.45 64.63 292.45 63.71C292.45 63.46 292.24 63.25 291.99 63.25H290.44C288.84 63.25 287.54 61.95 287.54 60.35V60.18C287.54 58.58 288.84 57.28 290.44 57.28H291.99C292.24 57.28 292.45 57.07 292.45 56.82C292.45 55.9 293.42 55.3 294.24 55.71L300.44 58.81C300.71 58.95 301.02 59.02 301.33 59.02H303.23C303.3 59.02 303.38 59.02 303.45 59.04C303.33 59.43 303.26 59.84 303.26 60.26C303.26 60.68 303.33 61.09 303.45 61.48C303.38 61.49 303.31 61.5 303.23 61.5H301.33C301.02 61.5 300.72 61.57 300.44 61.71V61.72ZM279.54 56.82C279.54 57.07 279.75 57.28 280 57.28H281.55C283.15 57.28 284.45 58.58 284.45 60.18V60.35C284.45 61.95 283.15 63.25 281.55 63.25H280C279.75 63.25 279.54 63.46 279.54 63.71C279.54 64.63 278.57 65.23 277.75 64.82L271.55 61.72C271.28 61.58 270.97 61.51 270.66 61.51H268.76C268.69 61.51 268.61 61.51 268.54 61.49C268.66 61.1 268.73 60.69 268.73 60.27C268.73 59.85 268.66 59.44 268.54 59.05C268.61 59.04 268.68 59.03 268.76 59.03H270.66C270.97 59.03 271.27 58.96 271.55 58.82L277.75 55.72C278.57 55.31 279.54 55.91 279.54 56.83V56.82ZM313.74 66.57L308.52 63.95C307.13 63.25 306.25 61.82 306.25 60.26C306.25 58.7 307.13 57.27 308.52 56.57L313.74 53.95C314.81 53.41 316.11 53.84 316.65 54.9C316.87 55.33 316.82 55.85 316.53 56.23C316.29 56.55 316.4 57 316.76 57.17L319.25 58.35C319.98 58.7 320.45 59.43 320.45 60.24C320.45 61.05 319.98 61.79 319.25 62.13L316.76 63.31C316.4 63.48 316.29 63.94 316.53 64.25C316.82 64.63 316.87 65.15 316.65 65.58C316.11 66.64 314.81 67.07 313.74 66.53V66.57ZM357.61 61.72L351.41 64.82C350.59 65.23 349.62 64.63 349.62 63.71C349.62 63.46 349.41 63.25 349.16 63.25H347.61C346.01 63.25 344.71 61.95 344.71 60.35V60.18C344.71 58.58 346.01 57.28 347.61 57.28H349.16C349.41 57.28 349.62 57.07 349.62 56.82C349.62 55.9 350.59 55.3 351.41 55.71L357.61 58.81C357.88 58.95 358.19 59.02 358.5 59.02H360.4C360.47 59.02 360.55 59.02 360.62 59.04C360.5 59.43 360.43 59.84 360.43 60.26C360.43 60.68 360.5 61.09 360.62 61.48C360.55 61.49 360.48 61.5 360.4 61.5H358.5C358.19 61.5 357.89 61.57 357.61 61.71V61.72ZM334.26 56.82C334.26 57.07 334.47 57.28 334.72 57.28H336.27C337.87 57.28 339.17 58.58 339.17 60.18V60.35C339.17 61.95 337.87 63.25 336.27 63.25H334.72C334.47 63.25 334.26 63.46 334.26 63.71C334.26 64.63 333.29 65.23 332.47 64.82L326.27 61.72C326 61.58 325.69 61.51 325.38 61.51H323.48C323.41 61.51 323.33 61.51 323.26 61.49C323.38 61.1 323.45 60.69 323.45 60.27C323.45 59.85 323.38 59.44 323.26 59.05C323.33 59.04 323.4 59.03 323.48 59.03H325.38C325.69 59.03 325.99 58.96 326.27 58.82L332.47 55.72C333.29 55.31 334.26 55.91 334.26 56.83V56.82ZM367.22 65.62C367 65.19 367.05 64.67 367.34 64.29C367.58 63.97 367.47 63.52 367.11 63.35L364.62 62.17C363.89 61.82 363.42 61.09 363.42 60.28C363.42 59.47 363.89 58.73 364.62 58.39L367.11 57.21C367.47 57.04 367.58 56.58 367.34 56.27C367.05 55.89 367 55.37 367.22 54.94C367.76 53.88 369.06 53.45 370.13 53.99L375.35 56.61C376.74 57.31 377.62 58.74 377.62 60.3C377.62 61.86 376.74 63.29 375.35 63.99L370.13 66.61C369.06 67.15 367.76 66.72 367.22 65.66V65.62ZM412.33 61.72L406.13 64.82C405.31 65.23 404.34 64.63 404.34 63.71C404.34 63.46 404.13 63.25 403.88 63.25H402.33C400.73 63.25 399.43 61.95 399.43 60.35V60.18C399.43 58.58 400.73 57.28 402.33 57.28H403.88C404.13 57.28 404.34 57.07 404.34 56.82C404.34 55.9 405.31 55.3 406.13 55.71L412.33 58.81C412.6 58.95 412.91 59.02 413.22 59.02H415.12C415.19 59.02 415.27 59.02 415.34 59.04C415.22 59.43 415.15 59.84 415.15 60.26C415.15 60.68 415.22 61.09 415.34 61.48C415.27 61.49 415.2 61.5 415.12 61.5H413.22C412.91 61.5 412.61 61.57 412.33 61.71V61.72ZM391.43 56.82C391.43 57.07 391.64 57.28 391.89 57.28H393.44C395.04 57.28 396.34 58.58 396.34 60.18V60.35C396.34 61.95 395.04 63.25 393.44 63.25H391.89C391.64 63.25 391.43 63.46 391.43 63.71C391.43 64.63 390.46 65.23 389.64 64.82L383.44 61.72C383.17 61.58 382.86 61.51 382.55 61.51H380.65C380.58 61.51 380.5 61.51 380.43 61.49C380.55 61.1 380.62 60.69 380.62 60.27C380.62 59.85 380.55 59.44 380.43 59.05C380.5 59.04 380.57 59.03 380.65 59.03H382.55C382.86 59.03 383.16 58.96 383.44 58.82L389.64 55.72C390.46 55.31 391.43 55.91 391.43 56.83V56.82ZM425.63 66.57L420.41 63.95C419.02 63.25 418.14 61.82 418.14 60.26C418.14 58.7 419.02 57.27 420.41 56.57L425.63 53.95C426.7 53.41 428 53.84 428.54 54.9C428.76 55.33 428.71 55.85 428.42 56.23C428.18 56.55 428.29 57 428.65 57.17L431.14 58.35C431.87 58.7 432.34 59.43 432.34 60.24C432.34 61.05 431.87 61.79 431.14 62.13L428.65 63.31C428.29 63.48 428.18 63.94 428.42 64.25C428.71 64.63 428.76 65.15 428.54 65.58C428 66.64 426.7 67.07 425.63 66.53V66.57Z" fill="#332932"/>
<path d="M460.09 9.19C460.09 4.12 455.94 0 450.82 0H9.28C4.16 0 0.0100098 4.12 0.0100098 9.19V39.02H460.09V9.19ZM15.17 28.14C14.97 28.34 14.79 28.56 14.62 28.79C13.42 28.26 12.29 27.5 11.3 26.52C10.31 25.54 9.56 24.41 9.03 23.2C9.26001 23.03 9.47998 22.86 9.67999 22.65C11.82 20.51 11.82 17.05 9.67999 14.92C9.47998 14.72 9.26001 14.54 9.03 14.37C9.56 13.17 10.32 12.04 11.3 11.05C12.29 10.06 13.41 9.31 14.62 8.78C14.79 9.01 14.96 9.23 15.17 9.43C17.31 11.57 20.77 11.57 22.9 9.43C23.1 9.23 23.28 9.01 23.45 8.78C24.65 9.31 25.78 10.07 26.77 11.05C27.76 12.04 28.51 13.16 29.04 14.37C28.81 14.54 28.59 14.71 28.39 14.92C26.25 17.06 26.25 20.52 28.39 22.65C28.59 22.85 28.81 23.03 29.04 23.2C28.51 24.4 27.75 25.53 26.77 26.52C25.79 27.51 24.66 28.26 23.45 28.79C23.28 28.56 23.11 28.34 22.9 28.14C20.76 26 17.3 26 15.17 28.14ZM197.43 28.14C197.23 28.34 197.05 28.56 196.88 28.79C195.68 28.26 194.55 27.5 193.56 26.52C192.57 25.54 191.82 24.41 191.29 23.2C191.52 23.03 191.74 22.86 191.94 22.65C194.08 20.51 194.08 17.05 191.94 14.92C191.74 14.72 191.52 14.54 191.29 14.37C191.82 13.17 192.58 12.04 193.56 11.05C194.55 10.06 195.67 9.31 196.88 8.78C197.05 9.01 197.22 9.23 197.43 9.43C199.57 11.57 203.03 11.57 205.16 9.43C205.36 9.23 205.54 9.01 205.71 8.78C206.91 9.31 208.04 10.07 209.03 11.05C210.02 12.04 210.77 13.16 211.3 14.37C211.07 14.54 210.85 14.71 210.65 14.92C208.51 17.06 208.51 20.52 210.65 22.65C210.85 22.85 211.07 23.03 211.3 23.2C210.77 24.4 210.01 25.53 209.03 26.52C208.04 27.51 206.92 28.26 205.71 28.79C205.54 28.56 205.37 28.34 205.16 28.14C203.02 26 199.56 26 197.43 28.14ZM254.92 28.14C254.72 28.34 254.54 28.56 254.37 28.79C253.17 28.26 252.04 27.5 251.05 26.52C250.06 25.53 249.31 24.41 248.78 23.2C249.01 23.03 249.23 22.86 249.43 22.65C251.57 20.51 251.57 17.05 249.43 14.92C249.23 14.72 249.01 14.54 248.78 14.37C249.31 13.17 250.07 12.04 251.05 11.05C252.04 10.06 253.16 9.31 254.37 8.78C254.54 9.01 254.71 9.23 254.92 9.43C257.06 11.57 260.52 11.57 262.65 9.43C262.85 9.23 263.03 9.01 263.2 8.78C264.4 9.31 265.53 10.07 266.52 11.05C267.51 12.04 268.26 13.16 268.79 14.37C268.56 14.54 268.34 14.71 268.14 14.92C266 17.06 266 20.52 268.14 22.65C268.34 22.85 268.56 23.03 268.79 23.2C268.26 24.4 267.5 25.53 266.52 26.52C265.54 27.51 264.41 28.26 263.2 28.79C263.03 28.56 262.86 28.34 262.65 28.14C260.51 26 257.05 26 254.92 28.14ZM437.19 28.14C436.99 28.34 436.81 28.56 436.64 28.79C435.44 28.26 434.31 27.5 433.32 26.52C432.33 25.54 431.58 24.41 431.05 23.2C431.28 23.03 431.5 22.86 431.7 22.65C433.84 20.51 433.84 17.05 431.7 14.92C431.5 14.72 431.28 14.54 431.05 14.37C431.58 13.17 432.34 12.04 433.32 11.05C434.31 10.06 435.43 9.31 436.64 8.78C436.81 9.01 436.98 9.23 437.19 9.43C439.33 11.57 442.79 11.57 444.92 9.43C445.12 9.23 445.3 9.01 445.47 8.78C446.67 9.31 447.8 10.07 448.79 11.05C449.78 12.04 450.53 13.16 451.06 14.37C450.83 14.54 450.61 14.71 450.41 14.92C448.27 17.06 448.27 20.52 450.41 22.65C450.61 22.85 450.83 23.03 451.06 23.2C450.53 24.4 449.77 25.53 448.79 26.52C447.8 27.51 446.68 28.26 445.47 28.79C445.3 28.56 445.13 28.34 444.92 28.14C442.78 26 439.32 26 437.19 28.14Z" fill="#251929"/>
</g>
<defs>
<clipPath id="clip0_54715_969">
<rect width="74.05" height="460.09" fill="white" transform="matrix(0 1 -1 0 460.09 0)"/>
</clipPath>
</defs>
</svg>
