<svg width="59" height="59" viewBox="0 0 59 59" fill="none" xmlns="http://www.w3.org/2000/svg">
<g clip-path="url(#clip0_54715_993)">
<path d="M44.7 35.66C43.28 34.79 41.52 34.43 39.63 34.91C39.47 34.95 39.31 35.01 39.16 35.06C38.15 36.76 36.72 38.19 35.01 39.19C34.95 39.37 34.88 39.54 34.84 39.72C34.38 41.61 34.75 43.38 35.63 44.81C36.03 45.45 36.28 46.18 36.28 46.94V47.53C36.28 48.64 35.36 49.54 34.25 49.51C33.29 49.48 32.5 50.26 32.35 51.2C31.71 55.3 30.41 58.11 28.91 58.11C27.41 58.11 26.11 55.3 25.47 51.2C25.32 50.23 24.5 49.51 23.52 49.51C22.43 49.51 21.54 48.62 21.54 47.53V46.94C21.54 46.18 21.79 45.46 22.19 44.81C23.08 43.39 23.45 41.62 22.99 39.72C22.93 39.46 22.84 39.22 22.75 38.97C21.23 38 19.96 36.7 19.02 35.16C18.75 35.05 18.48 34.96 18.2 34.89C16.32 34.42 14.56 34.78 13.13 35.64C12.49 36.03 11.78 36.27 11.04 36.27H10.59C9.48 36.27 8.58 35.35 8.61 34.24C8.64 33.28 7.86 32.49 6.92 32.34C2.82 31.7 0.0100021 30.4 0.0100021 28.9C0.0100021 27.4 2.82 26.1 6.92 25.46C7.89 25.31 8.61 24.49 8.61 23.51C8.61 22.42 9.5 21.53 10.59 21.53H10.86C11.63 21.53 12.37 21.79 13.02 22.21C14.45 23.11 16.23 23.5 18.14 23.04C18.5 22.95 18.84 22.83 19.17 22.69C20.07 21.29 21.27 20.09 22.67 19.18C22.8 18.87 22.91 18.55 23 18.22C23.47 16.32 23.1 14.54 22.21 13.12C21.81 12.48 21.56 11.75 21.56 10.99V10.58C21.56 9.49 22.45 8.6 23.54 8.6C24.52 8.6 25.34 7.88 25.49 6.91C26.13 2.81 27.43 0 28.93 0C30.43 0 31.73 2.81 32.37 6.91C32.52 7.89 33.37 8.62 34.36 8.6C35.44 8.58 36.3 9.5 36.3 10.58V11C36.3 11.76 36.05 12.48 35.65 13.13C34.76 14.56 34.39 16.33 34.86 18.23C34.92 18.48 35.01 18.73 35.1 18.97C36.71 19.93 38.06 21.26 39.06 22.85C39.28 22.93 39.49 23 39.72 23.06C41.63 23.52 43.41 23.13 44.84 22.23C45.49 21.82 46.23 21.55 47 21.55H47.55C48.64 21.55 49.53 22.44 49.53 23.53C49.53 24.51 50.25 25.33 51.22 25.48C55.32 26.12 58.13 27.42 58.13 28.92C58.13 30.42 55.32 31.72 51.22 32.36C50.24 32.51 49.51 33.36 49.53 34.35C49.55 35.43 48.63 36.29 47.55 36.29H46.82C46.08 36.29 45.36 36.05 44.73 35.66H44.7Z" fill="#B6D9AD"/>
</g>
<defs>
<clipPath id="clip0_54715_993">
<rect width="58.11" height="58.11" fill="white"/>
</clipPath>
</defs>
</svg>
