<svg width="53" height="53" viewBox="0 0 53 53" fill="none" xmlns="http://www.w3.org/2000/svg">
<g clip-path="url(#clip0_54715_1001)">
<path d="M50.73 22.95L46.09 20.75C45.42 20.43 45.21 19.58 45.66 18.99C46.2 18.27 46.29 17.31 45.88 16.51C44.87 14.53 42.44 13.74 40.46 14.73L36.01 16.96L38.24 12.51C39.24 10.52 38.44 8.10001 36.46 7.09001C35.66 6.68001 34.7 6.76001 33.98 7.31001C33.39 7.76001 32.54 7.55001 32.22 6.88001L30.02 2.24001C29.37 0.88001 28 0.0100098 26.49 0.0100098C24.98 0.0100098 23.61 0.88001 22.96 2.24001L20.76 6.88001C20.44 7.55001 19.59 7.76001 19 7.31001C18.28 6.77001 17.32 6.68001 16.52 7.09001C14.54 8.10001 13.75 10.53 14.74 12.51L16.97 16.96L12.52 14.73C10.53 13.73 8.11002 14.53 7.10002 16.51C6.69002 17.31 6.77002 18.27 7.32002 18.99C7.77002 19.58 7.56002 20.43 6.89002 20.75L2.25002 22.95C0.89002 23.6 0.0200195 24.97 0.0200195 26.48C0.0200195 27.99 0.89002 29.36 2.25002 30.01L6.89002 32.21C7.56002 32.53 7.77002 33.38 7.32002 33.97C6.78002 34.69 6.69002 35.65 7.10002 36.45C8.11002 38.43 10.54 39.22 12.52 38.23L16.97 36L14.74 40.45C13.74 42.44 14.54 44.86 16.52 45.87C17.32 46.28 18.28 46.2 19 45.65C19.59 45.2 20.44 45.41 20.76 46.08L22.96 50.72C23.61 52.08 24.98 52.95 26.49 52.95C28 52.95 29.37 52.08 30.02 50.72L32.22 46.08C32.54 45.41 33.39 45.2 33.98 45.65C34.7 46.19 35.66 46.28 36.46 45.87C38.44 44.86 39.23 42.43 38.24 40.45L36.01 36L40.46 38.23C42.45 39.23 44.87 38.43 45.88 36.45C46.29 35.65 46.21 34.69 45.66 33.97C45.21 33.38 45.42 32.53 46.09 32.21L50.73 30.01C52.09 29.36 52.96 27.99 52.96 26.48C52.96 24.97 52.09 23.6 50.73 22.95Z" fill="#83C9B3"/>
</g>
<defs>
<clipPath id="clip0_54715_1001">
<rect width="52.96" height="52.96" fill="white"/>
</clipPath>
</defs>
</svg>
