<svg width="55" height="58" viewBox="0 0 55 58" fill="none" xmlns="http://www.w3.org/2000/svg">
<g clip-path="url(#clip0_54715_996)">
<path d="M43.39 36.14C48.02 34.19 52.02 33.62 52.02 33.62C47.28 29.51 54.33 22.13 54.33 22.13C54.33 22.13 44.99 26.22 42.75 20.37C42.75 20.37 40.97 21.26 38.35 22.64C37.51 23.08 36.51 23.06 35.69 22.59C34.62 21.97 34.09 20.7 34.41 19.51C35.77 14.42 37.56 10.89 37.56 10.89C29.73 12.85 27.16 0 27.16 0C27.16 0 24.59 12.85 16.76 10.9C16.76 10.9 18.55 14.43 19.91 19.52C20.23 20.72 19.7 21.98 18.63 22.6L18.16 22.87C17.27 23.39 16.16 23.36 15.29 22.8C13.05 21.35 11.58 20.37 11.58 20.37C9.34 26.23 0 22.13 0 22.13C0 22.13 7.04 29.5 2.3 33.62C2.3 33.62 6.3 34.19 10.93 36.13C13.14 37.06 13.16 40.2 10.96 41.17C7.63 42.64 4.77 43 4.77 43C4.77 43 14.79 44.78 21.53 47.34C23.23 47.19 25.19 46.44 26.29 44.22C26.47 49.58 25.82 54.25 25.01 55.56C23.55 57.94 27.14 57.82 27.14 57.82H27.17C27.17 57.82 30.76 57.94 29.3 55.56C28.5 54.25 27.85 49.59 28.02 44.24C29.12 46.44 31.08 47.19 32.77 47.34C39.51 44.79 49.53 43 49.53 43C49.53 43 46.67 42.64 43.35 41.17C41.16 40.2 41.17 37.06 43.38 36.13L43.39 36.14Z" fill="#F6B0BB"/>
</g>
<defs>
<clipPath id="clip0_54715_996">
<rect width="54.33" height="57.82" fill="white"/>
</clipPath>
</defs>
</svg>
