<svg width="28" height="50" viewBox="0 0 28 50" fill="none" xmlns="http://www.w3.org/2000/svg">
<g clip-path="url(#clip0_54715_1007)">
<path d="M27.15 19.69L18.04 37.91C17.64 38.72 17.43 39.61 17.43 40.51V46.08C17.43 48.1 15.79 49.74 13.77 49.74C11.75 49.74 10.11 48.1 10.11 46.08V40.51C10.11 39.61 9.89996 38.72 9.49996 37.91L0.389964 19.69C-0.820036 17.27 0.939964 14.42 3.64996 14.42C4.39996 14.42 4.99996 13.81 4.99996 13.07V8.52C4.99996 3.81 8.80996 0 13.51 0H13.76H14.01C18.71 0 22.52 3.81 22.52 8.51V13.06C22.52 13.81 23.13 14.41 23.87 14.41C26.58 14.41 28.34 17.26 27.13 19.68L27.15 19.69Z" fill="#83C9B3"/>
</g>
<defs>
<clipPath id="clip0_54715_1007">
<rect width="27.54" height="49.73" fill="white"/>
</clipPath>
</defs>
</svg>
