<svg width="47" height="51" viewBox="0 0 47 51" fill="none" xmlns="http://www.w3.org/2000/svg">
<g clip-path="url(#clip0_54715_1004)">
<path d="M23.2901 50.63C28.8501 50.63 33.93 47.49 36.4201 42.52L45.7501 23.93C47.6601 20.13 46.1401 15.5 42.3501 13.56C40.8201 12.78 38.9801 12.94 37.6101 13.97C36.4801 14.82 34.8601 14.42 34.2501 13.15L30.0301 4.27C28.7901 1.66 26.1701 0 23.2801 0C20.3901 0 17.7701 1.66 16.5301 4.27L12.3101 13.15C11.7001 14.43 10.0801 14.82 8.95005 13.97C7.58005 12.93 5.74005 12.77 4.21005 13.56C0.430052 15.49 -1.07995 20.12 0.820052 23.93L10.1501 42.52C12.6401 47.49 17.7301 50.63 23.2901 50.63Z" fill="#F6B0BB"/>
</g>
<defs>
<clipPath id="clip0_54715_1004">
<rect width="46.57" height="50.63" fill="white"/>
</clipPath>
</defs>
</svg>
