<svg width="291" height="291" viewBox="0 0 291 291" fill="none" xmlns="http://www.w3.org/2000/svg">
<g clip-path="url(#clip0_54991_194)">
<rect y="-1" width="291" height="291" rx="35" fill="#83C9B3"/>
<path d="M275.204 0H14.9284C6.70043 0 0 6.72048 0 14.9731V275.992C0 284.28 6.70043 290.965 14.9284 290.965H275.169C283.432 290.965 290.097 284.245 290.965 275.922V14.9383C290.097 6.72047 283.432 0 275.169 0H275.204ZM103.006 31.1301C103.076 28.5881 104.082 26.081 106.061 24.4792C109.22 21.9373 108.804 17.4802 114.428 17.4802H175.773C181.398 17.4802 180.981 21.9373 184.14 24.4792C186.119 26.0462 187.126 28.5881 187.195 31.1301V31.722H103.006V31.1301ZM250.068 145.517C250.068 145.517 249.27 153.735 244.687 160.351C245.347 168.081 245.902 179.468 245.937 196.147C245.937 199.56 243.125 202.345 239.688 202.241H239.618C238.369 202.206 235.626 201.928 234.133 198.202C231.078 190.576 224.586 189.009 220.975 188.382C220.767 188.347 220.559 188.382 220.35 188.313H220.385C212.227 186.815 212.088 180.339 212.921 178.389C213.581 176.647 213.928 174.802 213.928 172.956C213.928 170.066 215.594 167.42 218.198 166.166L223.475 163.659C230.453 160.351 234.897 153.283 234.897 145.517C234.897 137.752 230.453 130.718 223.475 127.376L218.198 124.868C215.594 123.615 213.928 120.969 213.928 118.078C213.928 116.233 213.581 114.353 212.921 112.646C212.088 110.696 212.227 104.22 220.385 102.757H220.35C220.559 102.687 220.767 102.722 220.975 102.653C224.586 101.991 231.078 100.424 234.133 92.8331C235.626 89.1072 238.369 88.8287 239.618 88.7938H239.688C243.09 88.6894 245.937 91.4751 245.937 94.8875C245.937 111.567 245.382 122.953 244.687 130.684C249.27 137.3 250.068 145.517 250.068 145.517ZM40.9664 145.517C40.9664 145.517 41.7649 137.3 46.3475 130.684C45.6879 122.953 45.1324 111.567 45.0977 94.8875C45.0977 91.4751 47.9098 88.6894 51.3468 88.7938H51.4162C52.6661 88.8287 55.4087 89.1072 56.9016 92.8331C59.9567 100.459 66.4488 102.026 70.0594 102.653C70.2677 102.687 70.476 102.653 70.6843 102.722H70.6496C78.8082 104.22 78.947 110.696 78.1138 112.646C77.4542 114.387 77.107 116.233 77.107 118.078C77.107 120.969 75.4406 123.615 72.8368 124.868L67.5598 127.376C60.5816 130.684 56.1378 137.752 56.1378 145.517C56.1378 153.283 60.5816 160.316 67.5598 163.659L72.8368 166.166C75.4406 167.42 77.107 170.066 77.107 172.956C77.107 174.802 77.4542 176.682 78.1138 178.389C78.947 180.339 78.8082 186.815 70.6496 188.278H70.6843C70.476 188.347 70.2677 188.313 70.0594 188.382C66.4488 189.044 59.9567 190.611 56.9016 198.202C55.4087 201.928 52.6661 202.206 51.4162 202.241H51.3468C47.9445 202.345 45.0977 199.56 45.0977 196.147C45.0977 179.468 45.6532 168.081 46.3475 160.351C41.7649 153.735 40.9664 145.517 40.9664 145.517ZM110.956 104.324C108.005 98.4393 110.366 91.3009 116.199 88.3063C118.559 87.0876 121.372 87.3313 123.489 88.9331C125.225 90.2563 127.725 89.6295 128.662 87.6447L135.154 73.9252C137.064 69.886 141.091 67.344 145.535 67.344C149.979 67.344 154.006 69.9208 155.915 73.9252L162.407 87.6447C163.345 89.6295 165.844 90.2215 167.58 88.9331C169.698 87.3313 172.51 87.0876 174.871 88.3063C180.703 91.3009 183.029 98.4393 180.113 104.324L173.552 117.452L186.64 110.87C192.507 107.911 199.624 110.278 202.61 116.128C203.825 118.496 203.582 121.317 201.985 123.441C200.666 125.182 201.291 127.689 203.27 128.629L216.948 135.141C220.975 137.056 223.51 141.095 223.51 145.552C223.51 150.009 220.941 154.049 216.948 155.964L203.27 162.475C201.291 163.415 200.7 165.923 201.985 167.664C203.582 169.788 203.825 172.608 202.61 174.976C199.624 180.826 192.507 183.159 186.64 180.234L173.552 173.653L180.113 186.78C183.064 192.665 180.703 199.804 174.871 202.798C172.51 204.017 169.698 203.773 167.58 202.171C165.844 200.848 163.345 201.475 162.407 203.46L155.915 217.179C154.006 221.219 149.979 223.76 145.535 223.76C141.091 223.76 137.064 221.184 135.154 217.179L128.662 203.46C127.725 201.475 125.225 200.883 123.489 202.171C121.372 203.773 118.559 204.017 116.199 202.798C110.366 199.804 108.04 192.665 110.956 186.78L117.518 173.653L104.429 180.234C98.5623 183.194 91.4452 180.826 88.4595 174.976C87.2444 172.608 87.4875 169.788 89.0845 167.664C90.4037 165.923 89.7788 163.415 87.7999 162.475L74.1213 155.964C70.0941 154.049 67.5598 150.009 67.5598 145.552C67.5598 141.095 70.1288 137.056 74.1213 135.141L87.7999 128.629C89.7788 127.689 90.369 125.182 89.0845 123.441C87.4875 121.317 87.2444 118.496 88.4595 116.128C91.4452 110.278 98.5623 107.945 104.429 110.87L117.518 117.452L110.956 104.324ZM93.2853 78.1734C84.849 73.7163 88.7373 63.4789 88.7373 63.4789C99.4302 70.1994 93.2853 78.1734 93.2853 78.1734ZM90.2301 82.3867C89.6747 83.7099 88.7373 85.1724 87.175 86.5653C85.7516 88.1322 84.3282 89.0724 83.0089 89.6295C80.8912 90.5001 78.461 89.351 77.9055 87.1224C77.1764 84.1278 75.3017 79.5314 70.6843 75.7359C71.0315 75.4225 72.6285 74.0993 73.7394 73.1243C74.7115 72.0101 76.0308 70.4083 76.3432 70.0601C80.1274 74.6913 84.7101 76.5368 87.6958 77.3029C89.9177 77.86 91.0981 80.2975 90.1954 82.4216L90.2301 82.3867ZM78.8082 92.6938C78.8082 92.6938 70.8579 98.8223 64.1575 88.1322C64.1575 88.1322 74.3643 84.2323 78.8082 92.6938ZM71.1009 70.3038C71.1009 70.3038 71.0662 70.3386 71.0315 70.3735C71.0315 70.3735 70.9968 70.4083 70.9621 70.4431C61.8661 79.3573 55.0963 80.4019 52.1106 80.3323C51.0691 80.3323 50.1664 79.8448 49.6457 79.0439C48.4306 77.1636 46.0351 72.7761 45.6185 67.0306C44.7158 54.3558 55.0268 44.0139 67.6639 44.9192C73.3923 45.3371 77.7666 47.7397 79.6414 48.9585C80.4399 49.4808 80.8912 50.3861 80.9259 51.4308C80.9953 54.4254 79.9538 61.2503 71.0662 70.3386L71.1009 70.3038ZM78.3915 197.923C73.9477 206.385 63.7409 202.485 63.7409 202.485C70.4413 191.76 78.3915 197.923 78.3915 197.923ZM45.2366 223.586C45.6532 217.841 48.0487 213.453 49.2638 211.573C49.7845 210.772 50.6872 210.32 51.7287 210.285C54.7144 210.215 61.519 211.26 70.5802 220.174C70.5802 220.174 70.6149 220.209 70.6496 220.244C70.6496 220.244 70.6843 220.278 70.719 220.313C79.6067 229.436 80.6482 236.226 80.5787 239.221C80.5787 240.266 80.0927 241.171 79.2942 241.693C77.4195 242.912 73.0451 245.315 67.3167 245.733C54.6797 246.638 44.3686 236.296 45.2713 223.621L45.2366 223.586ZM75.9613 220.592C75.6489 220.244 74.3296 218.642 73.3575 217.527C72.2466 216.552 70.6496 215.229 70.3024 214.916C74.9198 211.12 76.7598 206.524 77.5236 203.529C78.0791 201.301 80.5093 200.117 82.6271 201.022C83.9463 201.579 85.4044 202.52 86.7931 204.087C88.3554 205.514 89.2928 206.942 89.8482 208.265C90.7162 210.389 89.5705 212.827 87.3486 213.384C84.3629 214.115 79.7802 215.995 75.9961 220.627L75.9613 220.592ZM92.8686 212.444C92.8686 212.444 98.9789 220.418 88.3207 227.138C88.3207 227.138 84.4324 216.901 92.8686 212.444ZM88.9803 239.917C88.9803 238.664 89.2928 235.913 93.0075 234.416C100.611 231.351 102.173 224.84 102.798 221.219C102.832 221.01 102.798 220.801 102.867 220.592C104.325 212.444 110.783 212.304 112.727 213.14C114.463 213.802 116.303 214.15 118.143 214.15C121.024 214.15 123.663 215.821 124.913 218.433L127.412 223.726C130.71 230.725 137.758 235.182 145.5 235.182C153.242 235.182 160.255 230.725 163.588 223.726L166.087 218.433C167.337 215.821 169.976 214.15 172.857 214.15C174.697 214.15 176.572 213.802 178.273 213.14C180.217 212.339 186.675 212.444 188.133 220.627C188.133 220.801 188.133 221.01 188.202 221.219C188.862 224.84 190.424 231.351 197.992 234.416C201.707 235.913 201.985 238.664 202.02 239.917V239.987C202.124 243.4 199.346 246.255 195.944 246.255C179.315 246.255 167.962 245.698 160.255 245.001C153.659 249.598 145.465 250.399 145.465 250.399C145.465 250.399 137.272 249.598 130.676 245.001C122.968 245.663 111.616 246.22 94.9864 246.255C91.5841 246.255 88.8067 243.434 88.9109 239.987V239.917H88.9803ZM197.819 212.861C206.255 217.319 202.367 227.556 202.367 227.556C191.674 220.835 197.819 212.861 197.819 212.861ZM200.874 208.648C201.429 207.325 202.367 205.862 203.929 204.47C205.353 202.903 206.776 201.962 208.095 201.405C210.213 200.535 212.643 201.684 213.199 203.912C213.928 206.907 215.802 211.503 220.42 215.299C220.073 215.612 218.476 216.936 217.365 217.911C216.393 219.025 215.073 220.627 214.761 220.975C210.977 216.344 206.394 214.498 203.408 213.732C201.186 213.175 200.006 210.737 200.909 208.613L200.874 208.648ZM212.296 198.341C212.296 198.341 220.246 192.213 226.947 202.903C226.947 202.903 216.74 206.803 212.296 198.341ZM220.003 220.731C220.003 220.731 220.038 220.696 220.073 220.661C220.073 220.661 220.107 220.627 220.142 220.592C229.238 211.678 236.008 210.633 238.994 210.703C240.035 210.703 240.938 211.19 241.458 211.991C242.674 213.871 245.069 218.259 245.486 224.004C246.388 236.679 236.077 247.021 223.44 246.116C217.712 245.698 213.337 243.295 211.463 242.076C210.664 241.554 210.213 240.649 210.178 239.604C210.109 236.609 211.15 229.785 220.038 220.696L220.003 220.731ZM212.713 93.1116C217.156 84.6501 227.363 88.5501 227.363 88.5501C220.663 99.275 212.713 93.1116 212.713 93.1116ZM245.868 67.4485C245.451 73.194 243.055 77.5814 241.84 79.4618C241.32 80.2627 240.417 80.7153 239.375 80.7502C236.39 80.8198 229.585 79.7752 220.524 70.861C220.524 70.861 220.489 70.8261 220.455 70.7913C220.455 70.7913 220.42 70.7565 220.385 70.7217C211.497 61.5985 210.456 54.8084 210.525 51.8138C210.525 50.7692 211.011 49.8638 211.81 49.3415C213.685 48.1228 218.059 45.7201 223.787 45.3023C236.424 44.3969 246.735 54.7388 245.833 67.4137L245.868 67.4485ZM215.143 70.4431C215.455 70.7913 216.775 72.3931 217.747 73.5074C218.858 74.4824 220.455 75.8056 220.802 76.1189C216.184 79.9145 214.344 84.5108 213.581 87.5054C213.025 89.734 210.595 90.9179 208.477 90.0126C207.158 89.4554 205.7 88.5153 204.311 86.9483C202.749 85.5206 201.811 84.093 201.256 82.7698C200.388 80.6457 201.534 78.2082 203.756 77.6511C206.741 76.9198 211.324 75.0395 215.108 70.4083L215.143 70.4431ZM198.235 78.5912C198.235 78.5912 192.125 70.6172 202.783 63.8967C202.783 63.8967 206.672 74.1341 198.235 78.5912ZM202.124 51.1174C202.124 52.3709 201.811 55.1218 198.097 56.6191C190.494 59.6834 188.931 66.1949 188.306 69.8163C188.272 70.0252 188.306 70.2342 188.237 70.4431C186.779 78.5912 180.321 78.7305 178.377 77.8948C176.641 77.2332 174.801 76.885 172.961 76.885C170.08 76.885 167.441 75.2136 166.191 72.602L163.692 67.3092C160.394 60.3102 153.346 55.8531 145.604 55.8531C137.862 55.8531 130.849 60.3102 127.516 67.3092L125.017 72.602C123.767 75.2136 121.128 76.885 118.247 76.885C116.407 76.885 114.532 77.2332 112.831 77.8948C110.887 78.6957 104.429 78.5912 102.971 70.4083C102.971 70.2342 102.971 70.0252 102.902 69.8163C102.242 66.1949 100.68 59.6834 93.1117 56.6191C89.3969 55.1218 89.1192 52.3709 89.0845 51.1174V51.0477C88.9803 47.6353 91.7577 44.7799 95.16 44.7799C111.79 44.7799 123.142 45.3371 130.849 46.0335C137.446 41.4371 145.639 40.6362 145.639 40.6362C145.639 40.6362 153.832 41.4371 160.428 46.0335C168.136 45.3719 179.488 44.8148 196.118 44.7799C199.52 44.7799 202.297 47.6005 202.193 51.0477V51.1174H202.124ZM17.4628 32.4881C17.4628 24.2007 24.1632 17.515 32.3912 17.515H84.3282C89.9524 17.515 89.5358 21.9721 92.6951 24.5141C94.6739 26.081 95.6807 28.623 95.7502 31.1649V31.7569H31.6274V96.1063H31.0372C28.5029 96.0018 26.0032 95.0268 24.4062 93.042C21.8719 89.8733 17.4281 90.2911 17.4281 84.6501V32.5577L17.4628 32.4881ZM17.4628 114.736C17.4628 109.095 21.9066 109.512 24.4409 106.344C26.0032 104.359 28.5376 103.349 31.0719 103.279H31.6621V187.721H31.0719C28.5376 187.616 26.0379 186.641 24.4409 184.656C21.9066 181.488 17.4628 181.905 17.4628 176.264V114.736ZM95.7502 259.87C95.6807 262.412 94.6739 264.919 92.6951 266.521C89.5358 269.063 89.9524 273.52 84.3282 273.52H32.3912C24.1285 273.52 17.4628 266.799 17.4628 258.547V206.454C17.4628 200.813 21.9066 201.231 24.4409 198.062C26.0032 196.078 28.5376 195.068 31.0719 194.998H31.6621V259.313H95.8196V259.905L95.7502 259.87ZM187.161 259.87C187.091 262.412 186.084 264.919 184.106 266.521C180.946 269.063 181.363 273.52 175.739 273.52H114.393C108.769 273.52 109.186 269.063 106.026 266.521C104.048 264.954 103.041 262.412 102.971 259.87V259.278H187.161V259.87ZM272.704 258.512C272.704 266.799 266.004 273.485 257.776 273.485H205.839C200.214 273.485 200.631 269.028 197.472 266.486C195.493 264.919 194.486 262.377 194.417 259.835V259.243H258.539V194.894H259.13C261.664 194.998 264.164 195.973 265.761 197.958C268.295 201.127 272.739 200.709 272.739 206.35V258.442L272.704 258.512ZM272.704 176.264C272.704 181.905 268.26 181.488 265.726 184.656C264.164 186.641 261.629 187.651 259.095 187.721H258.505V103.279H259.095C261.629 103.384 264.129 104.359 265.726 106.344C268.26 109.512 272.704 109.095 272.704 114.736V176.264ZM272.704 84.5805C272.704 90.2215 268.26 89.8036 265.726 92.9724C264.164 94.9572 261.629 95.967 259.095 96.0366H258.505V31.722H194.347V31.1301C194.451 28.5881 195.423 26.081 197.402 24.4792C200.562 21.9373 200.145 17.4802 205.769 17.4802H257.706C265.969 17.4802 272.635 24.2007 272.635 32.4533V84.5457L272.704 84.5805Z" fill="#251929"/>
</g>
<defs>
<clipPath id="clip0_54991_194">
<rect width="291" height="291" fill="white"/>
</clipPath>
</defs>
</svg>
