<svg width="28" height="50" viewBox="0 0 28 50" fill="none" xmlns="http://www.w3.org/2000/svg">
<path d="M27.1489 19.69L18.0389 37.91C17.6389 38.72 17.4289 39.61 17.4289 40.51V46.08C17.4289 48.1 15.7889 49.74 13.7689 49.74C11.7489 49.74 10.1089 48.1 10.1089 46.08V40.51C10.1089 39.61 9.89886 38.72 9.49887 37.91L0.388865 19.69C-0.821135 17.27 0.938865 14.42 3.64887 14.42C4.39887 14.42 4.99887 13.81 4.99887 13.07V8.52C4.99887 3.81 8.80887 0 13.5089 0H13.7589H14.0089C18.7089 0 22.5189 3.81 22.5189 8.51V13.06C22.5189 13.81 23.1289 14.41 23.8689 14.41C26.5789 14.41 28.3389 17.26 27.1289 19.68L27.1489 19.69Z" fill="#F6B0BB"/>
</svg>
