<svg width="1222" height="300" viewBox="0 0 1222 300" fill="none" xmlns="http://www.w3.org/2000/svg">
<g opacity="0.16" clip-path="url(#clip0_71_826)">
<g style="mix-blend-mode:soft-light">
<path d="M180.226 75.5378V55.0006H130.966V189.471H156.093V164.043H160.483V229.802H156.093V220.765H64.8877C41.2425 220.765 37.0871 210.242 37.0871 190.683V84.8284L63.1904 55.0006H13.1687V75.5378H8.77916V12.2244H13.1687V23.7253H180.207V12.2244H184.596V75.5573H180.207L180.226 75.5378ZM79.266 189.471V55.0006H68.3018V189.471H79.266ZM84.6311 189.471H126.576V55.0006H110.481V163.554L84.6311 189.471Z" fill="#332932"/>
<path d="M417.732 220.785H357.741V216.384H372.139V148.67H318.001V216.384H332.145V220.785H286.786V148.65H253.132V264.539H180.207V273.575H175.817V221.743H180.207V233.244H248.723V55.0007H232.628V220.765H187.016V216.365H201.413V52.5753L232.862 23.7254H317.962V45.4753L343.558 23.7254H403.295V216.384H417.693V220.785H417.732ZM253.132 55.0007V116.123H286.786V55.0007H253.132ZM253.132 144.23H286.786V120.524H253.132V144.23ZM318.001 55.0007V116.123H372.139V55.0007H318.001ZM318.001 144.23H372.139V120.524H318.001V144.23Z" fill="#332932"/>
<path d="M579.424 23.7058V28.1067H565.027V216.365H579.424V220.765H533.812V198.507L508.216 220.765H467.734C444.089 220.765 439.933 210.243 439.933 190.683V55.0006H415.547V23.7058H471.148V189.471H487.243V23.7058H491.633V116.123H533.812V28.1262H519.414V23.7254H579.405L579.424 23.7058ZM491.633 144.23H533.812V120.524H491.633V144.23ZM491.633 189.451H533.812V148.611H491.633V189.451Z" fill="#332932"/>
<path d="M757.446 75.5379V55.0007H708.185V189.471H733.313V164.044H737.703V229.802H733.313V220.765H642.107C618.462 220.765 614.307 210.243 614.307 190.683V84.8285L640.41 55.0007H590.428V75.5379H586.038V12.2245H590.428V23.7254H757.466V12.2245H761.855V75.5574H757.466L757.446 75.5379ZM656.486 189.471V55.0007H645.522V189.471H656.486ZM661.851 189.471H703.796V55.0007H687.701V163.555L661.851 189.471Z" fill="#332932"/>
<path d="M771.59 217.108H778.653L825.963 55.0007H792.055V75.5379H787.666V12.2245H792.055V23.7254H874.228V28.1262H859.831L903.726 216.384H918.124V220.785H858.387V216.384H872.785L862.542 172.611H800.6L787.685 217.108H817.925V200.971H822.314V248.403H747.204C747.204 264.05 757.934 266.984 767.201 266.984H796.465V271.385H767.201C745.975 271.385 742.814 257.204 742.814 247.17C742.814 232.012 751.827 217.088 771.59 217.088V217.108ZM834.995 54.7659L809.867 141.316H855.226L834.976 54.7659H834.995Z" fill="#332932"/>
<path d="M1019.59 116.143H1066.41V191.935L1037.38 220.785H953.494C929.849 220.785 925.694 210.262 925.694 190.703V55.0006H956.909V186.048L967.873 176.757V55.0006C984.456 55.0006 998.112 44.732 998.112 23.7058H1060.05V12.205H1064.44V75.5379H1060.05V55.0006H1019.57V116.123L1019.59 116.143ZM1035.2 189.49V147.438H1015.2V55.0006H999.107V155.496L960.323 189.49H1035.2Z" fill="#332932"/>
<path d="M1075.43 217.108H1082.49L1129.8 55.0007H1095.89V75.5379H1091.5V12.2245H1095.89V23.7254H1178.07V28.1262H1163.67L1207.56 216.384H1221.96V220.785H1162.22V216.384H1176.62L1166.38 172.611H1104.44L1091.52 217.108H1121.76V200.971H1126.15V248.403H1051.04C1051.04 264.05 1061.77 266.984 1071.04 266.984H1100.3V271.385H1071.04C1049.81 271.385 1046.65 257.204 1046.65 247.17C1046.65 232.012 1055.66 217.088 1075.43 217.088V217.108ZM1138.83 54.7659L1113.7 141.316H1159.06L1138.81 54.7659H1138.83Z" fill="#332932"/>
</g>
</g>
<defs>
<clipPath id="clip0_71_826">
<rect width="1222" height="300" fill="white"/>
</clipPath>
</defs>
</svg>
