<svg width="660" height="147" viewBox="0 0 660 147" fill="none" xmlns="http://www.w3.org/2000/svg">
<path d="M30.3197 101.303V39.0336H27.1665C16.5667 39.0336 8.56229 40.4632 0.97023 50.5426L4.63285 26.6039C11.3032 28.1788 19.5744 28.3 27.2878 28.3H53.6053C61.3429 28.3 69.5899 28.1788 76.2602 26.6039L80.0683 50.5426C72.3307 40.4632 64.3506 39.0336 53.8721 39.0336H50.5976V101.303C50.5976 108.112 52.1742 114 58.4564 118.7H22.3153C28.7431 114 30.2955 108.112 30.2955 101.303H30.3197Z" fill="white"/>
<path d="M127.779 34.5754C127.779 46.2298 142.454 78.5276 147.16 94.7613C152.132 77.0981 165.885 49.3554 165.885 35.7627C165.885 33.4124 165.618 30.6502 164.309 28.3H199.14C196.132 31.8375 194.944 36.4168 194.944 41.9169C194.944 51.4633 198.994 85.8691 200.838 100.673C201.76 108.645 204.501 115.599 208.042 118.724H173.72C178.959 114.92 180.924 109.032 180.924 102.636C180.924 92.823 176.461 61.8093 175.151 46.6417C171.1 64.5715 153.66 101.715 151.041 119.136H134.935C133.091 108.79 113.711 62.9965 108.86 46.6417C107.938 62.4635 103.499 90.7393 103.499 101.328C103.499 109.711 106.24 114.944 112.547 118.724H84.9195C88.4608 115.574 91.0805 109.032 92.2447 100.673C93.1665 93.0895 98.0176 50.3003 98.0176 41.4081C98.0176 36.8287 96.8291 31.8617 93.8214 28.3242H129.453C128.265 30.2868 127.755 32.5159 127.755 34.5996L127.779 34.5754Z" fill="white"/>
<path d="M258.227 120.154C237.003 120.154 221.94 109.032 221.94 89.1401V45.6967C221.94 38.8883 220.364 33.0005 214.082 28.3H250.223C243.795 33.0005 242.364 38.8883 242.364 45.6967V86.6445C242.364 102.345 248.525 110.074 261.744 110.074C274.187 110.074 281.003 102.999 281.003 89.019V45.721C281.003 38.9125 279.427 33.0247 273.144 28.3242H300.117C293.835 33.0247 292.258 38.9125 292.258 45.721V86.8141C292.258 106.561 281.779 120.178 258.203 120.178L258.227 120.154Z" fill="white"/>
<path d="M334.196 101.303V39.0336H331.043C320.443 39.0336 312.439 40.4632 304.847 50.5426L308.509 26.6039C315.18 28.1788 323.451 28.3 331.164 28.3H357.482C365.219 28.3 373.466 28.1788 380.137 26.6039L383.945 50.5426C376.207 40.4632 368.227 39.0336 357.749 39.0336H354.474V101.303C354.474 108.112 356.051 114 362.333 118.7H326.192C332.62 114 334.172 108.112 334.172 101.303H334.196Z" fill="white"/>
<path d="M386.201 98.8076C396.679 75.5232 409.51 41.6262 409.51 35.6173C409.51 33.1216 407.667 29.6084 406.357 28.3H433.742C437.017 42.6923 448.538 74.3601 459.55 98.953C463.358 107.458 466.875 114.775 470.029 118.7H436.24C439.903 116.083 441.746 113.466 441.746 108.887C441.746 99.3407 434.421 93.3076 419.746 93.3076C411.354 93.3076 404.417 95.149 399.444 97.6204C398.523 100.625 398.013 103.12 398.013 104.938C398.013 108.863 399.857 115.671 402.986 118.676H375.213C377.832 116.326 381.883 108.475 386.225 98.7834L386.201 98.8076ZM425.883 82.1863C427.727 82.1863 429.546 82.3074 431.389 82.5739C427.848 73.2941 421.832 58.2476 418.024 48.0227C414.75 59.1441 407.667 74.9659 402.84 87.6621C409.389 84.1246 417.903 82.162 425.883 82.162V82.1863Z" fill="white"/>
<path d="M518.346 26.3374C531.056 26.3374 541.802 30.6502 550.049 30.6502V60.089C542.068 43.613 531.056 36.9257 518.225 36.9257C505.394 36.9257 493.605 44.0007 493.605 71.9857C493.605 99.9707 505.272 110.05 519.025 110.05C523.877 110.05 528.073 109.008 532.002 107.046V92.1203C532.002 85.3119 530.426 79.4241 524.143 74.7236H560.163C553.881 79.4241 552.304 85.3119 552.304 92.1203V114.751C544.324 114.751 529.383 120.638 514.053 120.638C492.32 120.638 471.096 108.088 471.096 75.4989C471.096 42.9103 494.139 26.3132 518.37 26.3132L518.346 26.3374Z" fill="white"/>
<path d="M575.202 98.8076C585.68 75.5232 598.512 41.6262 598.512 35.6173C598.512 33.1216 596.668 29.6084 595.358 28.3H622.743C626.018 42.6923 637.539 74.3601 648.551 98.953C652.359 107.458 655.877 114.775 659.03 118.7H625.241C628.904 116.083 630.748 113.466 630.748 108.887C630.748 99.3407 623.422 93.3076 608.747 93.3076C600.355 93.3076 593.418 95.149 588.445 97.6204C587.524 100.625 587.014 103.12 587.014 104.938C587.014 108.863 588.858 115.671 591.987 118.676H564.214C566.833 116.326 570.884 108.475 575.226 98.7834L575.202 98.8076ZM614.884 82.1863C616.728 82.1863 618.547 82.3074 620.39 82.5739C616.849 73.2941 610.833 58.2476 607.025 48.0227C603.751 59.1441 596.668 74.9659 591.841 87.6621C598.39 84.1246 606.904 82.162 614.884 82.162V82.1863Z" fill="white"/>
</svg>
